<?xml version="1.0" encoding="UTF-8" standalone="no"?>
<!DOCTYPE svg PUBLIC "-//W3C//DTD SVG 1.1//EN"
 "http://www.w3.org/Graphics/SVG/1.1/DTD/svg11.dtd">
<!-- Generated by graphviz version 2.36.0 (20140111.2315)
 -->
<!-- Title: ConstraintTpl&lt; _Dim, _Scalar, _Options &gt; Pages: 1 -->
<svg width="172pt" height="108pt"
 viewBox="0.00 0.00 172.00 108.00" xmlns="http://www.w3.org/2000/svg" xmlns:xlink="http://www.w3.org/1999/xlink">
<g id="graph0" class="graph" transform="scale(1 1) rotate(0) translate(4 104)">
<title>ConstraintTpl&lt; _Dim, _Scalar, _Options &gt;</title>
<polygon fill="white" stroke="none" points="-4,4 -4,-104 168,-104 168,4 -4,4"/>
<!-- Node1 -->
<g id="node1" class="node"><title>Node1</title>
<polygon fill="#bfbfbf" stroke="black" points="27,-1 27,-31 137,-31 137,-1 27,-1"/>
<text text-anchor="start" x="35" y="-19" font-family="Helvetica,sans-Serif" font-size="10.00">ConstraintTpl&lt; _Dim,</text>
<text text-anchor="middle" x="82" y="-8" font-family="Helvetica,sans-Serif" font-size="10.00"> _Scalar, _Options &gt;</text>
</g>
<!-- Node2 -->
<g id="node2" class="node"><title>Node2</title>
<g id="a_node2"><a xlink:href="classse3_1_1ConstraintBase.html" target="_top" xlink:title="ConstraintBase\&lt; Constraint\lTpl\&lt; _Dim, _Scalar, _Options \&gt; \&gt;">
<polygon fill="white" stroke="black" points="0,-69 0,-99 164,-99 164,-69 0,-69"/>
<text text-anchor="start" x="8" y="-87" font-family="Helvetica,sans-Serif" font-size="10.00">ConstraintBase&lt; Constraint</text>
<text text-anchor="middle" x="82" y="-76" font-family="Helvetica,sans-Serif" font-size="10.00">Tpl&lt; _Dim, _Scalar, _Options &gt; &gt;</text>
</a>
</g>
</g>
<!-- Node2&#45;&gt;Node1 -->
<g id="edge1" class="edge"><title>Node2&#45;&gt;Node1</title>
<path fill="none" stroke="midnightblue" d="M82,-58.5322C82,-49.3606 82,-39.2449 82,-31.2931"/>
<polygon fill="midnightblue" stroke="midnightblue" points="78.5001,-58.6789 82,-68.679 85.5001,-58.679 78.5001,-58.6789"/>
</g>
</g>
</svg>
