<?xml version="1.0" encoding="UTF-8" standalone="no"?>
<!DOCTYPE svg PUBLIC "-//W3C//DTD SVG 1.1//EN"
 "http://www.w3.org/Graphics/SVG/1.1/DTD/svg11.dtd">
<!-- Generated by graphviz version 2.36.0 (20140111.2315)
 -->
<!-- Title: ConstraintTpl&lt; _Dim, _Scalar, _Options &gt; Pages: 1 -->
<svg width="344pt" height="97pt"
 viewBox="0.00 0.00 344.00 97.00" xmlns="http://www.w3.org/2000/svg" xmlns:xlink="http://www.w3.org/1999/xlink">
<g id="graph0" class="graph" transform="scale(1 1) rotate(0) translate(4 93)">
<title>ConstraintTpl&lt; _Dim, _Scalar, _Options &gt;</title>
<polygon fill="white" stroke="none" points="-4,4 -4,-93 340,-93 340,4 -4,4"/>
<!-- Node1 -->
<g id="node1" class="node"><title>Node1</title>
<polygon fill="#bfbfbf" stroke="black" points="226,-32 226,-62 336,-62 336,-32 226,-32"/>
<text text-anchor="start" x="234" y="-50" font-family="Helvetica,sans-Serif" font-size="10.00">ConstraintTpl&lt; _Dim,</text>
<text text-anchor="middle" x="281" y="-39" font-family="Helvetica,sans-Serif" font-size="10.00"> _Scalar, _Options &gt;</text>
</g>
<!-- Node2 -->
<g id="node2" class="node"><title>Node2</title>
<g id="a_node2"><a xlink:href="classse3_1_1ConstraintBase.html" target="_top" xlink:title="ConstraintBase\&lt; Constraint\lTpl\&lt; _Dim, _Scalar, _Options \&gt; \&gt;">
<polygon fill="white" stroke="black" points="0,-59 0,-89 164,-89 164,-59 0,-59"/>
<text text-anchor="start" x="8" y="-77" font-family="Helvetica,sans-Serif" font-size="10.00">ConstraintBase&lt; Constraint</text>
<text text-anchor="middle" x="82" y="-66" font-family="Helvetica,sans-Serif" font-size="10.00">Tpl&lt; _Dim, _Scalar, _Options &gt; &gt;</text>
</a>
</g>
</g>
<!-- Node2&#45;&gt;Node1 -->
<g id="edge1" class="edge"><title>Node2&#45;&gt;Node1</title>
<path fill="none" stroke="midnightblue" d="M174.558,-61.4515C192.126,-59.0437 209.99,-56.5952 225.9,-54.4147"/>
<polygon fill="midnightblue" stroke="midnightblue" points="173.697,-58.0367 164.265,-62.8622 174.647,-64.9718 173.697,-58.0367"/>
</g>
<!-- Node3 -->
<g id="node3" class="node"><title>Node3</title>
<g id="a_node3"><a xlink:href="classse3_1_1ConstraintBase.html" target="_top" xlink:title="ConstraintBase\&lt; se3\l::ConstraintTpl\&lt; _Dim,\l _Scalar, _Options \&gt; \&gt;">
<polygon fill="white" stroke="black" points="24,0.5 24,-40.5 140,-40.5 140,0.5 24,0.5"/>
<text text-anchor="start" x="32" y="-28.5" font-family="Helvetica,sans-Serif" font-size="10.00">ConstraintBase&lt; se3</text>
<text text-anchor="start" x="32" y="-17.5" font-family="Helvetica,sans-Serif" font-size="10.00">::ConstraintTpl&lt; _Dim,</text>
<text text-anchor="middle" x="82" y="-6.5" font-family="Helvetica,sans-Serif" font-size="10.00"> _Scalar, _Options &gt; &gt;</text>
</a>
</g>
</g>
<!-- Node3&#45;&gt;Node1 -->
<g id="edge2" class="edge"><title>Node3&#45;&gt;Node1</title>
<path fill="none" stroke="#9a32cd" stroke-dasharray="5,2" d="M150.271,-29.2199C174.976,-32.6059 202.605,-36.3925 225.995,-39.5983"/>
<polygon fill="#9a32cd" stroke="#9a32cd" points="150.628,-25.7362 140.245,-27.8458 149.677,-32.6713 150.628,-25.7362"/>
<text text-anchor="middle" x="195" y="-39" font-family="Helvetica,sans-Serif" font-size="10.00"> Base</text>
</g>
</g>
</svg>
