<?xml version="1.0" encoding="UTF-8" standalone="no"?>
<!DOCTYPE svg PUBLIC "-//W3C//DTD SVG 1.1//EN"
 "http://www.w3.org/Graphics/SVG/1.1/DTD/svg11.dtd">
<!-- Generated by graphviz version 2.36.0 (20140111.2315)
 -->
<!-- Title: aligned_vector&lt; T &gt; Pages: 1 -->
<svg width="134pt" height="166pt"
 viewBox="0.00 0.00 134.00 166.00" xmlns="http://www.w3.org/2000/svg" xmlns:xlink="http://www.w3.org/1999/xlink">
<g id="graph0" class="graph" transform="scale(1 1) rotate(0) translate(4 162)">
<title>aligned_vector&lt; T &gt;</title>
<polygon fill="white" stroke="none" points="-4,4 -4,-162 130,-162 130,4 -4,4"/>
<!-- Node1 -->
<g id="node1" class="node"><title>Node1</title>
<polygon fill="#bfbfbf" stroke="black" points="11,-0.5 11,-19.5 115,-19.5 115,-0.5 11,-0.5"/>
<text text-anchor="middle" x="63" y="-7.5" font-family="Helvetica,sans-Serif" font-size="10.00">aligned_vector&lt; T &gt;</text>
</g>
<!-- Node2 -->
<g id="node2" class="node"><title>Node2</title>
<g id="a_node2"><a xlink:title="STL class. ">
<polygon fill="white" stroke="#bfbfbf" points="0,-59 0,-89 126,-89 126,-59 0,-59"/>
<text text-anchor="start" x="8" y="-77" font-family="Helvetica,sans-Serif" font-size="10.00">vector&lt; T, Eigen::aligned</text>
<text text-anchor="middle" x="63" y="-66" font-family="Helvetica,sans-Serif" font-size="10.00">_allocator&lt; T &gt; &gt;</text>
</a>
</g>
</g>
<!-- Node2&#45;&gt;Node1 -->
<g id="edge1" class="edge"><title>Node2&#45;&gt;Node1</title>
<path fill="none" stroke="midnightblue" d="M63,-48.8706C63,-38.6625 63,-27.4077 63,-19.8419"/>
<polygon fill="midnightblue" stroke="midnightblue" points="59.5001,-48.9312 63,-58.9312 66.5001,-48.9313 59.5001,-48.9312"/>
</g>
<!-- Node3 -->
<g id="node3" class="node"><title>Node3</title>
<polygon fill="white" stroke="#bfbfbf" points="48.5,-138.5 48.5,-157.5 77.5,-157.5 77.5,-138.5 48.5,-138.5"/>
<text text-anchor="middle" x="63" y="-145.5" font-family="Helvetica,sans-Serif" font-size="10.00">T</text>
</g>
<!-- Node3&#45;&gt;Node2 -->
<g id="edge2" class="edge"><title>Node3&#45;&gt;Node2</title>
<path fill="none" stroke="#9a32cd" stroke-dasharray="5,2" d="M63,-128.085C63,-115.915 63,-100.354 63,-89.2316"/>
<polygon fill="#9a32cd" stroke="#9a32cd" points="59.5001,-128.458 63,-138.458 66.5001,-128.458 59.5001,-128.458"/>
<text text-anchor="middle" x="84.5" y="-111.5" font-family="Helvetica,sans-Serif" font-size="10.00"> elements</text>
</g>
</g>
</svg>
