<?xml version="1.0" encoding="UTF-8" standalone="no"?>
<!DOCTYPE svg PUBLIC "-//W3C//DTD SVG 1.1//EN"
 "http://www.w3.org/Graphics/SVG/1.1/DTD/svg11.dtd">
<!-- Generated by graphviz version 2.36.0 (20140111.2315)
 -->
<!-- Title: JointRandomConfigurationVisitor Pages: 1 -->
<svg width="140pt" height="108pt"
 viewBox="0.00 0.00 140.00 108.00" xmlns="http://www.w3.org/2000/svg" xmlns:xlink="http://www.w3.org/1999/xlink">
<g id="graph0" class="graph" transform="scale(1 1) rotate(0) translate(4 104)">
<title>JointRandomConfigurationVisitor</title>
<polygon fill="white" stroke="none" points="-4,4 -4,-104 136,-104 136,4 -4,4"/>
<!-- Node1 -->
<g id="node1" class="node"><title>Node1</title>
<polygon fill="#bfbfbf" stroke="black" points="0,-1 0,-31 132,-31 132,-1 0,-1"/>
<text text-anchor="start" x="8" y="-19" font-family="Helvetica,sans-Serif" font-size="10.00">JointRandomConfiguration</text>
<text text-anchor="middle" x="66" y="-8" font-family="Helvetica,sans-Serif" font-size="10.00">Visitor</text>
</g>
<!-- Node2 -->
<g id="node2" class="node"><title>Node2</title>
<polygon fill="white" stroke="#bfbfbf" points="13,-69 13,-99 119,-99 119,-69 13,-69"/>
<text text-anchor="start" x="21" y="-87" font-family="Helvetica,sans-Serif" font-size="10.00">static_visitor&lt; Eigen</text>
<text text-anchor="middle" x="66" y="-76" font-family="Helvetica,sans-Serif" font-size="10.00">::VectorXd &gt;</text>
</g>
<!-- Node2&#45;&gt;Node1 -->
<g id="edge1" class="edge"><title>Node2&#45;&gt;Node1</title>
<path fill="none" stroke="midnightblue" d="M66,-58.5322C66,-49.3606 66,-39.2449 66,-31.2931"/>
<polygon fill="midnightblue" stroke="midnightblue" points="62.5001,-58.6789 66,-68.679 69.5001,-58.679 62.5001,-58.6789"/>
</g>
</g>
</svg>
