<?xml version="1.0" encoding="UTF-8" standalone="no"?>
<!DOCTYPE svg PUBLIC "-//W3C//DTD SVG 1.1//EN"
 "http://www.w3.org/Graphics/SVG/1.1/DTD/svg11.dtd">
<!-- Generated by graphviz version 2.36.0 (20140111.2315)
 -->
<!-- Title: Exception Pages: 1 -->
<svg width="158pt" height="154pt"
 viewBox="0.00 0.00 158.00 154.00" xmlns="http://www.w3.org/2000/svg" xmlns:xlink="http://www.w3.org/1999/xlink">
<g id="graph0" class="graph" transform="scale(1 1) rotate(0) translate(4 150)">
<title>Exception</title>
<polygon fill="white" stroke="none" points="-4,4 -4,-150 154,-150 154,4 -4,4"/>
<!-- Node1 -->
<g id="node1" class="node"><title>Node1</title>
<polygon fill="#bfbfbf" stroke="black" points="24,-0.5 24,-19.5 84,-19.5 84,-0.5 24,-0.5"/>
<text text-anchor="middle" x="54" y="-7.5" font-family="Helvetica,sans-Serif" font-size="10.00">Exception</text>
</g>
<!-- Node2 -->
<g id="node2" class="node"><title>Node2</title>
<g id="a_node2"><a xlink:title="STL class. ">
<polygon fill="white" stroke="#bfbfbf" points="-0.5,-68.5 -0.5,-87.5 58.5,-87.5 58.5,-68.5 -0.5,-68.5"/>
<text text-anchor="middle" x="29" y="-75.5" font-family="Helvetica,sans-Serif" font-size="10.00">exception</text>
</a>
</g>
</g>
<!-- Node2&#45;&gt;Node1 -->
<g id="edge1" class="edge"><title>Node2&#45;&gt;Node1</title>
<path fill="none" stroke="midnightblue" d="M35.8915,-58.8066C40.6953,-46.1244 46.8934,-29.7615 50.6511,-19.8411"/>
<polygon fill="midnightblue" stroke="midnightblue" points="32.5376,-57.7802 32.2683,-68.3717 39.0837,-60.2599 32.5376,-57.7802"/>
</g>
<!-- Node3 -->
<g id="node3" class="node"><title>Node3</title>
<g id="a_node3"><a xlink:title="STL class. ">
<polygon fill="white" stroke="#bfbfbf" points="76.5,-68.5 76.5,-87.5 117.5,-87.5 117.5,-68.5 76.5,-68.5"/>
<text text-anchor="middle" x="97" y="-75.5" font-family="Helvetica,sans-Serif" font-size="10.00">string</text>
</a>
</g>
</g>
<!-- Node3&#45;&gt;Node1 -->
<g id="edge2" class="edge"><title>Node3&#45;&gt;Node1</title>
<path fill="none" stroke="#9a32cd" stroke-dasharray="5,2" d="M85.8837,-59.9377C77.5275,-47.112 66.4173,-30.0591 59.7601,-19.8411"/>
<polygon fill="#9a32cd" stroke="#9a32cd" points="82.9871,-61.9036 91.3785,-68.3717 88.8522,-58.0824 82.9871,-61.9036"/>
<text text-anchor="middle" x="100.5" y="-41.5" font-family="Helvetica,sans-Serif" font-size="10.00"> message</text>
</g>
<!-- Node4 -->
<g id="node4" class="node"><title>Node4</title>
<g id="a_node4"><a xlink:title="STL class. ">
<polygon fill="white" stroke="#bfbfbf" points="44,-126.5 44,-145.5 150,-145.5 150,-126.5 44,-126.5"/>
<text text-anchor="middle" x="97" y="-133.5" font-family="Helvetica,sans-Serif" font-size="10.00">basic_string&lt; char &gt;</text>
</a>
</g>
</g>
<!-- Node4&#45;&gt;Node3 -->
<g id="edge3" class="edge"><title>Node4&#45;&gt;Node3</title>
<path fill="none" stroke="midnightblue" d="M97,-115.953C97,-106.287 97,-95.0312 97,-87.5052"/>
<polygon fill="midnightblue" stroke="midnightblue" points="93.5001,-116.25 97,-126.25 100.5,-116.25 93.5001,-116.25"/>
</g>
</g>
</svg>
