<?xml version="1.0" encoding="UTF-8" standalone="no"?>
<!DOCTYPE svg PUBLIC "-//W3C//DTD SVG 1.1//EN"
 "http://www.w3.org/Graphics/SVG/1.1/DTD/svg11.dtd">
<!-- Generated by graphviz version 2.36.0 (20140111.2315)
 -->
<!-- Title: InertiaTpl&lt; _Scalar, _Options &gt; Pages: 1 -->
<svg width="288pt" height="120pt"
 viewBox="0.00 0.00 288.00 120.00" xmlns="http://www.w3.org/2000/svg" xmlns:xlink="http://www.w3.org/1999/xlink">
<g id="graph0" class="graph" transform="scale(1 1) rotate(0) translate(4 116)">
<title>InertiaTpl&lt; _Scalar, _Options &gt;</title>
<polygon fill="white" stroke="none" points="-4,4 -4,-116 284,-116 284,4 -4,4"/>
<!-- Node1 -->
<g id="node1" class="node"><title>Node1</title>
<polygon fill="#bfbfbf" stroke="black" points="84,-1 84,-31 186,-31 186,-1 84,-1"/>
<text text-anchor="start" x="92" y="-19" font-family="Helvetica,sans-Serif" font-size="10.00">InertiaTpl&lt; _Scalar,</text>
<text text-anchor="middle" x="135" y="-8" font-family="Helvetica,sans-Serif" font-size="10.00"> _Options &gt;</text>
</g>
<!-- Node2 -->
<g id="node2" class="node"><title>Node2</title>
<g id="a_node2"><a xlink:href="classse3_1_1InertiaBase.html" target="_top" xlink:title="InertiaBase\&lt; InertiaTpl\l\&lt; _Scalar, _Options \&gt; \&gt;">
<polygon fill="white" stroke="black" points="0,-81 0,-111 122,-111 122,-81 0,-81"/>
<text text-anchor="start" x="8" y="-99" font-family="Helvetica,sans-Serif" font-size="10.00">InertiaBase&lt; InertiaTpl</text>
<text text-anchor="middle" x="61" y="-88" font-family="Helvetica,sans-Serif" font-size="10.00">&lt; _Scalar, _Options &gt; &gt;</text>
</a>
</g>
</g>
<!-- Node2&#45;&gt;Node1 -->
<g id="edge1" class="edge"><title>Node2&#45;&gt;Node1</title>
<path fill="none" stroke="midnightblue" d="M81.6416,-73.2427C94.3877,-59.8075 110.377,-42.9542 121.513,-31.2157"/>
<polygon fill="midnightblue" stroke="midnightblue" points="78.9162,-71.03 74.5727,-80.6936 83.9945,-75.8479 78.9162,-71.03"/>
</g>
<!-- Node3 -->
<g id="node3" class="node"><title>Node3</title>
<g id="a_node3"><a xlink:href="classse3_1_1Symmetric3Tpl.html" target="_top" xlink:title="Symmetric3Tpl\&lt; double, 0 \&gt;">
<polygon fill="white" stroke="black" points="140,-86.5 140,-105.5 280,-105.5 280,-86.5 140,-86.5"/>
<text text-anchor="middle" x="210" y="-93.5" font-family="Helvetica,sans-Serif" font-size="10.00">Symmetric3Tpl&lt; double, 0 &gt;</text>
</a>
</g>
</g>
<!-- Node3&#45;&gt;Node1 -->
<g id="edge2" class="edge"><title>Node3&#45;&gt;Node1</title>
<path fill="none" stroke="#9a32cd" stroke-dasharray="5,2" d="M194.512,-78.8928C181.011,-64.8519 161.618,-44.6827 148.68,-31.227"/>
<polygon fill="#9a32cd" stroke="#9a32cd" points="192.233,-81.5721 201.687,-86.3546 197.279,-76.7204 192.233,-81.5721"/>
<text text-anchor="middle" x="180.5" y="-53.5" font-family="Helvetica,sans-Serif" font-size="10.00"> I</text>
</g>
</g>
</svg>
