<?xml version="1.0" encoding="UTF-8" standalone="no"?>
<!DOCTYPE svg PUBLIC "-//W3C//DTD SVG 1.1//EN"
 "http://www.w3.org/Graphics/SVG/1.1/DTD/svg11.dtd">
<!-- Generated by graphviz version 2.36.0 (20140111.2315)
 -->
<!-- Title: JointNeutralConfigurationVisitor Pages: 1 -->
<svg width="134pt" height="108pt"
 viewBox="0.00 0.00 134.00 108.00" xmlns="http://www.w3.org/2000/svg" xmlns:xlink="http://www.w3.org/1999/xlink">
<g id="graph0" class="graph" transform="scale(1 1) rotate(0) translate(4 104)">
<title>JointNeutralConfigurationVisitor</title>
<polygon fill="white" stroke="none" points="-4,4 -4,-104 130,-104 130,4 -4,4"/>
<!-- Node1 -->
<g id="node1" class="node"><title>Node1</title>
<polygon fill="#bfbfbf" stroke="black" points="-0.5,-1 -0.5,-31 126.5,-31 126.5,-1 -0.5,-1"/>
<text text-anchor="start" x="7.5" y="-19" font-family="Helvetica,sans-Serif" font-size="10.00">JointNeutralConfiguration</text>
<text text-anchor="middle" x="63" y="-8" font-family="Helvetica,sans-Serif" font-size="10.00">Visitor</text>
</g>
<!-- Node2 -->
<g id="node2" class="node"><title>Node2</title>
<polygon fill="white" stroke="#bfbfbf" points="10,-69 10,-99 116,-99 116,-69 10,-69"/>
<text text-anchor="start" x="18" y="-87" font-family="Helvetica,sans-Serif" font-size="10.00">static_visitor&lt; Eigen</text>
<text text-anchor="middle" x="63" y="-76" font-family="Helvetica,sans-Serif" font-size="10.00">::VectorXd &gt;</text>
</g>
<!-- Node2&#45;&gt;Node1 -->
<g id="edge1" class="edge"><title>Node2&#45;&gt;Node1</title>
<path fill="none" stroke="midnightblue" d="M63,-58.5322C63,-49.3606 63,-39.2449 63,-31.2931"/>
<polygon fill="midnightblue" stroke="midnightblue" points="59.5001,-58.6789 63,-68.679 66.5001,-58.679 59.5001,-58.6789"/>
</g>
</g>
</svg>
