<?xml version="1.0" encoding="UTF-8" standalone="no"?>
<!DOCTYPE svg PUBLIC "-//W3C//DTD SVG 1.1//EN"
 "http://www.w3.org/Graphics/SVG/1.1/DTD/svg11.dtd">
<!-- Generated by graphviz version 2.36.0 (20140111.2315)
 -->
<!-- Title: multibody Pages: 1 -->
<svg width="260pt" height="111pt"
 viewBox="0.00 0.00 260.00 111.00" xmlns="http://www.w3.org/2000/svg" xmlns:xlink="http://www.w3.org/1999/xlink">
<g id="graph0" class="graph" transform="scale(1 1) rotate(0) translate(4 107)">
<title>multibody</title>
<polygon fill="white" stroke="none" points="-4,4 -4,-107 256,-107 256,4 -4,4"/>
<g id="clust1" class="cluster"><title>clusterdir_68267d1309a1af8e8297ef4c3efbcdba</title>
<g id="a_clust1"><a xlink:href="dir_68267d1309a1af8e8297ef4c3efbcdba.html" target="_top" xlink:title="src">
<polygon fill="#ddddee" stroke="black" points="8,-8 8,-95 244,-95 244,-8 8,-8"/>
<text text-anchor="middle" x="126" y="-83" font-family="Helvetica,sans-Serif" font-size="10.00">src</text>
</a>
</g>
</g>
<g id="clust2" class="cluster"><title>clusterdir_b0d002c6e115d8ae22469c496c7200bf</title>
<g id="a_clust2"><a xlink:href="dir_b0d002c6e115d8ae22469c496c7200bf.html" target="_top">
<polygon fill="#eeeeff" stroke="black" points="16,-16 16,-68 236,-68 236,-16 16,-16"/>
</a>
</g>
</g>
<!-- dir_b0d002c6e115d8ae22469c496c7200bf -->
<g id="node1" class="node"><title>dir_b0d002c6e115d8ae22469c496c7200bf</title>
<text text-anchor="middle" x="198" y="-39.5" font-family="Helvetica,sans-Serif" font-size="10.00">multibody</text>
</g>
<!-- dir_98c85cd2bc17fb7da5baebd89869f9a8 -->
<g id="node2" class="node"><title>dir_98c85cd2bc17fb7da5baebd89869f9a8</title>
<g id="a_node2"><a xlink:href="dir_98c85cd2bc17fb7da5baebd89869f9a8.html" target="_top" xlink:title="joint">
<polygon fill="white" stroke="black" points="150,-60 96,-60 96,-24 150,-24 150,-60"/>
<text text-anchor="middle" x="123" y="-39.5" font-family="Helvetica,sans-Serif" font-size="10.00">joint</text>
</a>
</g>
</g>
<!-- dir_023660bd02ed6fa1ddfc3a8f5cccd1a6 -->
<g id="node3" class="node"><title>dir_023660bd02ed6fa1ddfc3a8f5cccd1a6</title>
<g id="a_node3"><a xlink:href="dir_023660bd02ed6fa1ddfc3a8f5cccd1a6.html" target="_top" xlink:title="liegroup">
<polygon fill="white" stroke="black" points="78,-60 24,-60 24,-24 78,-24 78,-60"/>
<text text-anchor="middle" x="51" y="-39.5" font-family="Helvetica,sans-Serif" font-size="10.00">liegroup</text>
</a>
</g>
</g>
</g>
</svg>
