<?xml version="1.0" encoding="UTF-8" standalone="no"?>
<!DOCTYPE svg PUBLIC "-//W3C//DTD SVG 1.1//EN"
 "http://www.w3.org/Graphics/SVG/1.1/DTD/svg11.dtd">
<!-- Generated by graphviz version 2.36.0 (20140111.2315)
 -->
<!-- Title: src Pages: 1 -->
<svg width="608pt" height="76pt"
 viewBox="0.00 0.00 608.00 76.00" xmlns="http://www.w3.org/2000/svg" xmlns:xlink="http://www.w3.org/1999/xlink">
<g id="graph0" class="graph" transform="scale(1 1) rotate(0) translate(4 72)">
<title>src</title>
<polygon fill="white" stroke="none" points="-4,4 -4,-72 604,-72 604,4 -4,4"/>
<g id="clust1" class="cluster"><title>clusterdir_68267d1309a1af8e8297ef4c3efbcdba</title>
<g id="a_clust1"><a xlink:href="dir_68267d1309a1af8e8297ef4c3efbcdba.html" target="_top">
<polygon fill="#eeeeff" stroke="black" points="8,-8 8,-60 592,-60 592,-8 8,-8"/>
</a>
</g>
</g>
<!-- dir_68267d1309a1af8e8297ef4c3efbcdba -->
<g id="node1" class="node"><title>dir_68267d1309a1af8e8297ef4c3efbcdba</title>
<text text-anchor="middle" x="557" y="-31.5" font-family="Helvetica,sans-Serif" font-size="10.00">src</text>
</g>
<!-- dir_fbc178c12bd249518b3c0868875b8083 -->
<g id="node2" class="node"><title>dir_fbc178c12bd249518b3c0868875b8083</title>
<g id="a_node2"><a xlink:href="dir_fbc178c12bd249518b3c0868875b8083.html" target="_top" xlink:title="algorithm">
<polygon fill="white" stroke="black" points="511.5,-52 456.5,-52 456.5,-16 511.5,-16 511.5,-52"/>
<text text-anchor="middle" x="484" y="-31.5" font-family="Helvetica,sans-Serif" font-size="10.00">algorithm</text>
</a>
</g>
</g>
<!-- dir_1b313d86a3cedf427c8a82c0995b1bb6 -->
<g id="node3" class="node"><title>dir_1b313d86a3cedf427c8a82c0995b1bb6</title>
<g id="a_node3"><a xlink:href="dir_1b313d86a3cedf427c8a82c0995b1bb6.html" target="_top" xlink:title="container">
<polygon fill="white" stroke="black" points="437.5,-52 382.5,-52 382.5,-16 437.5,-16 437.5,-52"/>
<text text-anchor="middle" x="410" y="-31.5" font-family="Helvetica,sans-Serif" font-size="10.00">container</text>
</a>
</g>
</g>
<!-- dir_ae9a93452e2a84339148a16bcf2eb561 -->
<g id="node4" class="node"><title>dir_ae9a93452e2a84339148a16bcf2eb561</title>
<g id="a_node4"><a xlink:href="dir_ae9a93452e2a84339148a16bcf2eb561.html" target="_top" xlink:title="math">
<polygon fill="white" stroke="black" points="364,-52 310,-52 310,-16 364,-16 364,-52"/>
<text text-anchor="middle" x="337" y="-31.5" font-family="Helvetica,sans-Serif" font-size="10.00">math</text>
</a>
</g>
</g>
<!-- dir_b0d002c6e115d8ae22469c496c7200bf -->
<g id="node5" class="node"><title>dir_b0d002c6e115d8ae22469c496c7200bf</title>
<g id="a_node5"><a xlink:href="dir_b0d002c6e115d8ae22469c496c7200bf.html" target="_top" xlink:title="multibody">
<polygon fill="white" stroke="red" points="291.25,-52 232.75,-52 232.75,-16 291.25,-16 291.25,-52"/>
<text text-anchor="middle" x="262" y="-31.5" font-family="Helvetica,sans-Serif" font-size="10.00">multibody</text>
</a>
</g>
</g>
<!-- dir_25205df789895db728d786a757b2675c -->
<g id="node6" class="node"><title>dir_25205df789895db728d786a757b2675c</title>
<g id="a_node6"><a xlink:href="dir_25205df789895db728d786a757b2675c.html" target="_top" xlink:title="parsers">
<polygon fill="white" stroke="red" points="214,-52 160,-52 160,-16 214,-16 214,-52"/>
<text text-anchor="middle" x="187" y="-31.5" font-family="Helvetica,sans-Serif" font-size="10.00">parsers</text>
</a>
</g>
</g>
<!-- dir_31b4388cdeb919ea2783a13f6c738b17 -->
<g id="node7" class="node"><title>dir_31b4388cdeb919ea2783a13f6c738b17</title>
<g id="a_node7"><a xlink:href="dir_31b4388cdeb919ea2783a13f6c738b17.html" target="_top" xlink:title="spatial">
<polygon fill="white" stroke="black" points="142,-52 88,-52 88,-16 142,-16 142,-52"/>
<text text-anchor="middle" x="115" y="-31.5" font-family="Helvetica,sans-Serif" font-size="10.00">spatial</text>
</a>
</g>
</g>
<!-- dir_1563a38af0d3a5e4a6330d6d45e9792a -->
<g id="node8" class="node"><title>dir_1563a38af0d3a5e4a6330d6d45e9792a</title>
<g id="a_node8"><a xlink:href="dir_1563a38af0d3a5e4a6330d6d45e9792a.html" target="_top" xlink:title="tools">
<polygon fill="white" stroke="black" points="70,-52 16,-52 16,-16 70,-16 70,-52"/>
<text text-anchor="middle" x="43" y="-31.5" font-family="Helvetica,sans-Serif" font-size="10.00">tools</text>
</a>
</g>
</g>
</g>
</svg>
