<?xml version="1.0" encoding="UTF-8" standalone="no"?>
<!DOCTYPE svg PUBLIC "-//W3C//DTD SVG 1.1//EN"
 "http://www.w3.org/Graphics/SVG/1.1/DTD/svg11.dtd">
<!-- Generated by graphviz version 2.36.0 (20140111.2315)
 -->
<!-- Title: Parsers Pages: 1 -->
<svg width="156pt" height="66pt"
 viewBox="0.00 0.00 156.00 66.00" xmlns="http://www.w3.org/2000/svg" xmlns:xlink="http://www.w3.org/1999/xlink">
<g id="graph0" class="graph" transform="scale(1 1) rotate(0) translate(4 62)">
<title>Parsers</title>
<polygon fill="white" stroke="none" points="-4,4 -4,-62 152,-62 152,4 -4,4"/>
<!-- Node2 -->
<g id="node1" class="node"><title>Node2</title>
<g id="a_node1"><a xlink:href="group__Geometric__group.html" target="_top" xlink:title="Geometric">
<polygon fill="white" stroke="black" points="86,-38.5 86,-57.5 148,-57.5 148,-38.5 86,-38.5"/>
<text text-anchor="middle" x="117" y="-45.5" font-family="Helvetica,sans-Serif" font-size="10.00">Geometric</text>
</a>
</g>
</g>
<!-- Node1 -->
<g id="node2" class="node"><title>Node1</title>
<g id="a_node2"><a xlink:href="group__Cinematic__group.html" target="_top" xlink:title="Cinematic">
<polygon fill="white" stroke="black" points="86.5,-0.5 86.5,-19.5 147.5,-19.5 147.5,-0.5 86.5,-0.5"/>
<text text-anchor="middle" x="117" y="-7.5" font-family="Helvetica,sans-Serif" font-size="10.00">Cinematic</text>
</a>
</g>
</g>
<!-- Node0 -->
<g id="node3" class="node"><title>Node0</title>
<polygon fill="#bfbfbf" stroke="black" points="0,-19.5 0,-38.5 50,-38.5 50,-19.5 0,-19.5"/>
<text text-anchor="middle" x="25" y="-26.5" font-family="Helvetica,sans-Serif" font-size="10.00">Parsers</text>
</g>
<!-- Node0&#45;&gt;Node2 -->
<g id="edge2" class="edge"><title>Node0&#45;&gt;Node2</title>
<path fill="none" stroke="black" d="M60.044,-36.1871C68.4741,-37.9668 77.4504,-39.8617 85.6889,-41.601"/>
<polygon fill="black" stroke="black" points="60.6257,-32.7328 50.1183,-34.0917 59.1797,-39.5818 60.6257,-32.7328"/>
</g>
<!-- Node0&#45;&gt;Node1 -->
<g id="edge1" class="edge"><title>Node0&#45;&gt;Node1</title>
<path fill="none" stroke="black" d="M59.9567,-21.8314C68.6378,-19.9987 77.9035,-18.0426 86.3495,-16.2596"/>
<polygon fill="black" stroke="black" points="59.1797,-18.4182 50.1183,-23.9083 60.6257,-25.2672 59.1797,-18.4182"/>
</g>
</g>
</svg>
