<?xml version="1.0" encoding="UTF-8" standalone="no"?>
<!DOCTYPE svg PUBLIC "-//W3C//DTD SVG 1.1//EN"
 "http://www.w3.org/Graphics/SVG/1.1/DTD/svg11.dtd">
<!-- Generated by graphviz version 2.36.0 (20140111.2315)
 -->
<!-- Title: Spatial Pages: 1 -->
<svg width="138pt" height="142pt"
 viewBox="0.00 0.00 138.00 142.00" xmlns="http://www.w3.org/2000/svg" xmlns:xlink="http://www.w3.org/1999/xlink">
<g id="graph0" class="graph" transform="scale(1 1) rotate(0) translate(4 138)">
<title>Spatial</title>
<polygon fill="white" stroke="none" points="-4,4 -4,-138 134,-138 134,4 -4,4"/>
<!-- Node3 -->
<g id="node1" class="node"><title>Node3</title>
<g id="a_node1"><a xlink:href="group__Inertia__group.html" target="_top" xlink:title="Inertia">
<polygon fill="white" stroke="black" points="85,-114.5 85,-133.5 129,-133.5 129,-114.5 85,-114.5"/>
<text text-anchor="middle" x="107" y="-121.5" font-family="Helvetica,sans-Serif" font-size="10.00">Inertia</text>
</a>
</g>
</g>
<!-- Node4 -->
<g id="node2" class="node"><title>Node4</title>
<g id="a_node2"><a xlink:href="group__SE3__group.html" target="_top" xlink:title="SE3">
<polygon fill="white" stroke="black" points="89.5,-76.5 89.5,-95.5 124.5,-95.5 124.5,-76.5 89.5,-76.5"/>
<text text-anchor="middle" x="107" y="-83.5" font-family="Helvetica,sans-Serif" font-size="10.00">SE3</text>
</a>
</g>
</g>
<!-- Node2 -->
<g id="node3" class="node"><title>Node2</title>
<g id="a_node3"><a xlink:href="group__Motion__group.html" target="_top" xlink:title="Motion">
<polygon fill="white" stroke="black" points="84,-38.5 84,-57.5 130,-57.5 130,-38.5 84,-38.5"/>
<text text-anchor="middle" x="107" y="-45.5" font-family="Helvetica,sans-Serif" font-size="10.00">Motion</text>
</a>
</g>
</g>
<!-- Node1 -->
<g id="node4" class="node"><title>Node1</title>
<g id="a_node4"><a xlink:href="group__Force__group.html" target="_top" xlink:title="Force">
<polygon fill="white" stroke="black" points="86.5,-0.5 86.5,-19.5 127.5,-19.5 127.5,-0.5 86.5,-0.5"/>
<text text-anchor="middle" x="107" y="-7.5" font-family="Helvetica,sans-Serif" font-size="10.00">Force</text>
</a>
</g>
</g>
<!-- Node0 -->
<g id="node5" class="node"><title>Node0</title>
<polygon fill="#bfbfbf" stroke="black" points="0.5,-57.5 0.5,-76.5 47.5,-76.5 47.5,-57.5 0.5,-57.5"/>
<text text-anchor="middle" x="24" y="-64.5" font-family="Helvetica,sans-Serif" font-size="10.00">Spatial</text>
</g>
<!-- Node0&#45;&gt;Node3 -->
<g id="edge3" class="edge"><title>Node0&#45;&gt;Node3</title>
<path fill="none" stroke="black" d="M47.1611,-82.5948C61.6542,-92.7937 80.1194,-105.788 92.4624,-114.474"/>
<polygon fill="black" stroke="black" points="48.9329,-79.5619 38.7405,-76.6693 44.9044,-85.2866 48.9329,-79.5619"/>
</g>
<!-- Node0&#45;&gt;Node4 -->
<g id="edge4" class="edge"><title>Node0&#45;&gt;Node4</title>
<path fill="none" stroke="black" d="M57.3443,-74.5869C68.3597,-77.1708 80.2148,-79.9516 89.465,-82.1214"/>
<polygon fill="black" stroke="black" points="58.0981,-71.1688 47.563,-72.2926 56.4994,-77.9838 58.0981,-71.1688"/>
</g>
<!-- Node0&#45;&gt;Node2 -->
<g id="edge2" class="edge"><title>Node0&#45;&gt;Node2</title>
<path fill="none" stroke="black" d="M57.5724,-59.3596C66.3932,-57.2905 75.7361,-55.0989 83.8379,-53.1985"/>
<polygon fill="black" stroke="black" points="56.4994,-56.0162 47.563,-61.7074 58.0981,-62.8312 56.4994,-56.0162"/>
</g>
<!-- Node0&#45;&gt;Node1 -->
<g id="edge1" class="edge"><title>Node0&#45;&gt;Node1</title>
<path fill="none" stroke="black" d="M47.1611,-51.4052C61.6542,-41.2063 80.1194,-28.2123 92.4624,-19.5265"/>
<polygon fill="black" stroke="black" points="44.9044,-48.7134 38.7405,-57.3307 48.9329,-54.4381 44.9044,-48.7134"/>
</g>
</g>
</svg>
