<?xml version="1.0" encoding="UTF-8" standalone="no"?>
<!DOCTYPE svg PUBLIC "-//W3C//DTD SVG 1.1//EN"
 "http://www.w3.org/Graphics/SVG/1.1/DTD/svg11.dtd">
<!-- Generated by graphviz version 2.36.0 (20140111.2315)
 -->
<!-- Title: Graphical Class Hierarchy Pages: 1 -->
<svg width="322pt" height="48pt"
 viewBox="0.00 0.00 322.00 48.00" xmlns="http://www.w3.org/2000/svg" xmlns:xlink="http://www.w3.org/1999/xlink">
<g id="graph0" class="graph" transform="scale(1 1) rotate(0) translate(4 44)">
<title>Graphical Class Hierarchy</title>
<polygon fill="white" stroke="none" points="-4,4 -4,-44 318,-44 318,4 -4,4"/>
<!-- Node1 -->
<g id="node1" class="node"><title>Node1</title>
<g id="a_node1"><a xlink:href="structse3_1_1LieGroupOperationBase.html" target="_top" xlink:title="LieGroupOperationBase\l\&lt; CartesianProductOperation\l\&lt; LieGroup1, LieGroup2 \&gt; \&gt;">
<polygon fill="white" stroke="black" points="0.5,0.5 0.5,-40.5 143.5,-40.5 143.5,0.5 0.5,0.5"/>
<text text-anchor="start" x="8.5" y="-28.5" font-family="Helvetica,sans-Serif" font-size="10.00">LieGroupOperationBase</text>
<text text-anchor="start" x="8.5" y="-17.5" font-family="Helvetica,sans-Serif" font-size="10.00">&lt; CartesianProductOperation</text>
<text text-anchor="middle" x="72" y="-6.5" font-family="Helvetica,sans-Serif" font-size="10.00">&lt; LieGroup1, LieGroup2 &gt; &gt;</text>
</a>
</g>
</g>
<!-- Node2 -->
<g id="node2" class="node"><title>Node2</title>
<g id="a_node2"><a xlink:href="structse3_1_1CartesianProductOperation.html" target="_top" xlink:title="CartesianProductOperation\l\&lt; LieGroup1, LieGroup2 \&gt;">
<polygon fill="white" stroke="black" points="180,-5 180,-35 314,-35 314,-5 180,-5"/>
<text text-anchor="start" x="188" y="-23" font-family="Helvetica,sans-Serif" font-size="10.00">CartesianProductOperation</text>
<text text-anchor="middle" x="247" y="-12" font-family="Helvetica,sans-Serif" font-size="10.00">&lt; LieGroup1, LieGroup2 &gt;</text>
</a>
</g>
</g>
<!-- Node1&#45;&gt;Node2 -->
<g id="edge1" class="edge"><title>Node1&#45;&gt;Node2</title>
<path fill="none" stroke="midnightblue" d="M154.019,-20C162.716,-20 171.487,-20 179.979,-20"/>
<polygon fill="midnightblue" stroke="midnightblue" points="153.865,-16.5001 143.865,-20 153.865,-23.5001 153.865,-16.5001"/>
</g>
</g>
</svg>
