<?xml version="1.0" encoding="UTF-8" standalone="no"?>
<!DOCTYPE svg PUBLIC "-//W3C//DTD SVG 1.1//EN"
 "http://www.w3.org/Graphics/SVG/1.1/DTD/svg11.dtd">
<!-- Generated by graphviz version 2.36.0 (20140111.2315)
 -->
<!-- Title: Graphical Class Hierarchy Pages: 1 -->
<svg width="284pt" height="38pt"
 viewBox="0.00 0.00 284.00 38.00" xmlns="http://www.w3.org/2000/svg" xmlns:xlink="http://www.w3.org/1999/xlink">
<g id="graph0" class="graph" transform="scale(1 1) rotate(0) translate(4 34)">
<title>Graphical Class Hierarchy</title>
<polygon fill="white" stroke="none" points="-4,4 -4,-34 280,-34 280,4 -4,4"/>
<!-- Node1 -->
<g id="node1" class="node"><title>Node1</title>
<g id="a_node1"><a xlink:href="classse3_1_1ConstraintBase.html" target="_top" xlink:title="ConstraintBase\&lt; Constraint\lRevolute\&lt; axis \&gt; \&gt;">
<polygon fill="white" stroke="black" points="0,-0 0,-30 138,-30 138,-0 0,-0"/>
<text text-anchor="start" x="8" y="-18" font-family="Helvetica,sans-Serif" font-size="10.00">ConstraintBase&lt; Constraint</text>
<text text-anchor="middle" x="69" y="-7" font-family="Helvetica,sans-Serif" font-size="10.00">Revolute&lt; axis &gt; &gt;</text>
</a>
</g>
</g>
<!-- Node2 -->
<g id="node2" class="node"><title>Node2</title>
<g id="a_node2"><a xlink:href="structse3_1_1ConstraintRevolute.html" target="_top" xlink:title="ConstraintRevolute\l\&lt; axis \&gt;">
<polygon fill="white" stroke="black" points="174.5,-0 174.5,-30 275.5,-30 275.5,-0 174.5,-0"/>
<text text-anchor="start" x="182.5" y="-18" font-family="Helvetica,sans-Serif" font-size="10.00">ConstraintRevolute</text>
<text text-anchor="middle" x="225" y="-7" font-family="Helvetica,sans-Serif" font-size="10.00">&lt; axis &gt;</text>
</a>
</g>
</g>
<!-- Node1&#45;&gt;Node2 -->
<g id="edge1" class="edge"><title>Node1&#45;&gt;Node2</title>
<path fill="none" stroke="midnightblue" d="M148.651,-15C157.358,-15 166.037,-15 174.242,-15"/>
<polygon fill="midnightblue" stroke="midnightblue" points="148.444,-11.5001 138.443,-15 148.443,-18.5001 148.444,-11.5001"/>
</g>
</g>
</svg>
