<?xml version="1.0" encoding="UTF-8" standalone="no"?>
<!DOCTYPE svg PUBLIC "-//W3C//DTD SVG 1.1//EN"
 "http://www.w3.org/Graphics/SVG/1.1/DTD/svg11.dtd">
<!-- Generated by graphviz version 2.36.0 (20140111.2315)
 -->
<!-- Title: Graphical Class Hierarchy Pages: 1 -->
<svg width="284pt" height="48pt"
 viewBox="0.00 0.00 284.00 48.00" xmlns="http://www.w3.org/2000/svg" xmlns:xlink="http://www.w3.org/1999/xlink">
<g id="graph0" class="graph" transform="scale(1 1) rotate(0) translate(4 44)">
<title>Graphical Class Hierarchy</title>
<polygon fill="white" stroke="none" points="-4,4 -4,-44 280,-44 280,4 -4,4"/>
<!-- Node1 -->
<g id="node1" class="node"><title>Node1</title>
<g id="a_node1"><a xlink:href="structse3_1_1LieGroupOperationBase.html" target="_top" xlink:title="LieGroupOperationBase\l\&lt; VectorSpaceOperation\l\&lt; Size \&gt; \&gt;">
<polygon fill="white" stroke="black" points="0,0.5 0,-40.5 124,-40.5 124,0.5 0,0.5"/>
<text text-anchor="start" x="8" y="-28.5" font-family="Helvetica,sans-Serif" font-size="10.00">LieGroupOperationBase</text>
<text text-anchor="start" x="8" y="-17.5" font-family="Helvetica,sans-Serif" font-size="10.00">&lt; VectorSpaceOperation</text>
<text text-anchor="middle" x="62" y="-6.5" font-family="Helvetica,sans-Serif" font-size="10.00">&lt; Size &gt; &gt;</text>
</a>
</g>
</g>
<!-- Node2 -->
<g id="node2" class="node"><title>Node2</title>
<g id="a_node2"><a xlink:href="structse3_1_1VectorSpaceOperation.html" target="_top" xlink:title="VectorSpaceOperation\l\&lt; Size \&gt;">
<polygon fill="white" stroke="black" points="160.5,-5 160.5,-35 275.5,-35 275.5,-5 160.5,-5"/>
<text text-anchor="start" x="168.5" y="-23" font-family="Helvetica,sans-Serif" font-size="10.00">VectorSpaceOperation</text>
<text text-anchor="middle" x="218" y="-12" font-family="Helvetica,sans-Serif" font-size="10.00">&lt; Size &gt;</text>
</a>
</g>
</g>
<!-- Node1&#45;&gt;Node2 -->
<g id="edge1" class="edge"><title>Node1&#45;&gt;Node2</title>
<path fill="none" stroke="midnightblue" d="M134.454,-20C143.158,-20 151.957,-20 160.403,-20"/>
<polygon fill="midnightblue" stroke="midnightblue" points="134.307,-16.5001 124.307,-20 134.307,-23.5001 134.307,-16.5001"/>
</g>
</g>
</svg>
