<?xml version="1.0" encoding="UTF-8" standalone="no"?>
<!DOCTYPE svg PUBLIC "-//W3C//DTD SVG 1.1//EN"
 "http://www.w3.org/Graphics/SVG/1.1/DTD/svg11.dtd">
<!-- Generated by graphviz version 2.36.0 (20140111.2315)
 -->
<!-- Title: Graphical Class Hierarchy Pages: 1 -->
<svg width="354pt" height="48pt"
 viewBox="0.00 0.00 354.00 48.00" xmlns="http://www.w3.org/2000/svg" xmlns:xlink="http://www.w3.org/1999/xlink">
<g id="graph0" class="graph" transform="scale(1 1) rotate(0) translate(4 44)">
<title>Graphical Class Hierarchy</title>
<polygon fill="white" stroke="none" points="-4,4 -4,-44 350,-44 350,4 -4,4"/>
<!-- Node1 -->
<g id="node1" class="node"><title>Node1</title>
<g id="a_node1"><a xlink:href="structse3_1_1LieGroupOperationBase.html" target="_top" xlink:title="LieGroupOperationBase\l\&lt; SpecialOrthogonalOperation\l\&lt; 3 \&gt; \&gt;">
<polygon fill="white" stroke="black" points="0.5,0.5 0.5,-40.5 147.5,-40.5 147.5,0.5 0.5,0.5"/>
<text text-anchor="start" x="8.5" y="-28.5" font-family="Helvetica,sans-Serif" font-size="10.00">LieGroupOperationBase</text>
<text text-anchor="start" x="8.5" y="-17.5" font-family="Helvetica,sans-Serif" font-size="10.00">&lt; SpecialOrthogonalOperation</text>
<text text-anchor="middle" x="74" y="-6.5" font-family="Helvetica,sans-Serif" font-size="10.00">&lt; 3 &gt; &gt;</text>
</a>
</g>
</g>
<!-- Node2 -->
<g id="node2" class="node"><title>Node2</title>
<g id="a_node2"><a xlink:href="structse3_1_1SpecialOrthogonalOperation_3_013_01_4.html" target="_top" xlink:title="SpecialOrthogonalOperation\&lt; 3 \&gt;">
<polygon fill="white" stroke="black" points="184.5,-10.5 184.5,-29.5 345.5,-29.5 345.5,-10.5 184.5,-10.5"/>
<text text-anchor="middle" x="265" y="-17.5" font-family="Helvetica,sans-Serif" font-size="10.00">SpecialOrthogonalOperation&lt; 3 &gt;</text>
</a>
</g>
</g>
<!-- Node1&#45;&gt;Node2 -->
<g id="edge1" class="edge"><title>Node1&#45;&gt;Node2</title>
<path fill="none" stroke="midnightblue" d="M157.534,-20C166.463,-20 175.536,-20 184.429,-20"/>
<polygon fill="midnightblue" stroke="midnightblue" points="157.532,-16.5001 147.532,-20 157.532,-23.5001 157.532,-16.5001"/>
</g>
</g>
</svg>
