<?xml version="1.0" encoding="UTF-8" standalone="no"?>
<!DOCTYPE svg PUBLIC "-//W3C//DTD SVG 1.1//EN"
 "http://www.w3.org/Graphics/SVG/1.1/DTD/svg11.dtd">
<!-- Generated by graphviz version 2.36.0 (20140111.2315)
 -->
<!-- Title: Graphical Class Hierarchy Pages: 1 -->
<svg width="284pt" height="722pt"
 viewBox="0.00 0.00 284.00 722.00" xmlns="http://www.w3.org/2000/svg" xmlns:xlink="http://www.w3.org/1999/xlink">
<g id="graph0" class="graph" transform="scale(1 1) rotate(0) translate(4 718)">
<title>Graphical Class Hierarchy</title>
<polygon fill="white" stroke="none" points="-4,4 -4,-718 280,-718 280,4 -4,4"/>
<!-- Node1 -->
<g id="node1" class="node"><title>Node1</title>
<g id="a_node1"><a xlink:title="STL class. ">
<polygon fill="white" stroke="#bfbfbf" points="0,-351.5 0,-370.5 68,-370.5 68,-351.5 0,-351.5"/>
<text text-anchor="middle" x="34" y="-358.5" font-family="Helvetica,sans-Serif" font-size="10.00">vector&lt; T &gt;</text>
</a>
</g>
</g>
<!-- Node2 -->
<g id="node2" class="node"><title>Node2</title>
<g id="a_node2"><a xlink:href="classse3_1_1container_1_1aligned__vector.html" target="_top" xlink:title="aligned_vector\&lt; Eigen\l::Vector3d \&gt;">
<polygon fill="white" stroke="black" points="133.5,-684 133.5,-714 246.5,-714 246.5,-684 133.5,-684"/>
<text text-anchor="start" x="141.5" y="-702" font-family="Helvetica,sans-Serif" font-size="10.00">aligned_vector&lt; Eigen</text>
<text text-anchor="middle" x="190" y="-691" font-family="Helvetica,sans-Serif" font-size="10.00">::Vector3d &gt;</text>
</a>
</g>
</g>
<!-- Node1&#45;&gt;Node2 -->
<g id="edge1" class="edge"><title>Node1&#45;&gt;Node2</title>
<path fill="none" stroke="midnightblue" d="M36.7451,-380.66C42.6053,-442.359 63.5241,-630.627 104,-674 111.871,-682.434 122.426,-688.072 133.416,-691.829"/>
<polygon fill="midnightblue" stroke="midnightblue" points="40.228,-380.312 35.8248,-370.676 33.2575,-380.955 40.228,-380.312"/>
</g>
<!-- Node3 -->
<g id="node3" class="node"><title>Node3</title>
<g id="a_node3"><a xlink:href="classse3_1_1container_1_1aligned__vector.html" target="_top" xlink:title="aligned_vector\&lt; JointData \&gt;">
<polygon fill="white" stroke="black" points="120,-645.5 120,-664.5 260,-664.5 260,-645.5 120,-645.5"/>
<text text-anchor="middle" x="190" y="-652.5" font-family="Helvetica,sans-Serif" font-size="10.00">aligned_vector&lt; JointData &gt;</text>
</a>
</g>
</g>
<!-- Node1&#45;&gt;Node3 -->
<g id="edge2" class="edge"><title>Node1&#45;&gt;Node3</title>
<path fill="none" stroke="midnightblue" d="M37.3246,-380.836C44.3718,-437.589 67.2905,-598.859 104,-635 108.537,-639.467 113.874,-643.007 119.625,-645.803"/>
<polygon fill="midnightblue" stroke="midnightblue" points="40.7704,-380.177 36.0947,-370.67 33.8211,-381.018 40.7704,-380.177"/>
</g>
<!-- Node4 -->
<g id="node4" class="node"><title>Node4</title>
<g id="a_node4"><a xlink:href="classse3_1_1container_1_1aligned__vector.html" target="_top" xlink:title="aligned_vector\&lt; JointData\lVariant \&gt;">
<polygon fill="white" stroke="black" points="124.5,-596 124.5,-626 255.5,-626 255.5,-596 124.5,-596"/>
<text text-anchor="start" x="132.5" y="-614" font-family="Helvetica,sans-Serif" font-size="10.00">aligned_vector&lt; JointData</text>
<text text-anchor="middle" x="190" y="-603" font-family="Helvetica,sans-Serif" font-size="10.00">Variant &gt;</text>
</a>
</g>
</g>
<!-- Node1&#45;&gt;Node4 -->
<g id="edge3" class="edge"><title>Node1&#45;&gt;Node4</title>
<path fill="none" stroke="midnightblue" d="M35.1348,-380.864C36.5373,-424.377 46.1191,-528.782 104,-586 109.798,-591.731 116.838,-596.161 124.358,-599.583"/>
<polygon fill="midnightblue" stroke="midnightblue" points="38.6314,-380.661 34.9261,-370.735 31.6329,-380.805 38.6314,-380.661"/>
</g>
<!-- Node5 -->
<g id="node5" class="node"><title>Node5</title>
<g id="a_node5"><a xlink:href="classse3_1_1container_1_1aligned__vector.html" target="_top" xlink:title="aligned_vector\&lt; JointModel \&gt;">
<polygon fill="white" stroke="black" points="117.5,-557.5 117.5,-576.5 262.5,-576.5 262.5,-557.5 117.5,-557.5"/>
<text text-anchor="middle" x="190" y="-564.5" font-family="Helvetica,sans-Serif" font-size="10.00">aligned_vector&lt; JointModel &gt;</text>
</a>
</g>
</g>
<!-- Node1&#45;&gt;Node5 -->
<g id="edge4" class="edge"><title>Node1&#45;&gt;Node5</title>
<path fill="none" stroke="midnightblue" d="M36.4246,-381.237C40.2526,-419.6 54.1632,-502.995 104,-547 108.887,-551.315 114.53,-554.744 120.537,-557.464"/>
<polygon fill="midnightblue" stroke="midnightblue" points="39.877,-380.533 35.5316,-370.87 32.9028,-381.134 39.877,-380.533"/>
</g>
<!-- Node6 -->
<g id="node6" class="node"><title>Node6</title>
<g id="a_node6"><a xlink:href="classse3_1_1container_1_1aligned__vector.html" target="_top" xlink:title="aligned_vector\&lt; JointModel\lVariant \&gt;">
<polygon fill="white" stroke="black" points="122,-508 122,-538 258,-538 258,-508 122,-508"/>
<text text-anchor="start" x="130" y="-526" font-family="Helvetica,sans-Serif" font-size="10.00">aligned_vector&lt; JointModel</text>
<text text-anchor="middle" x="190" y="-515" font-family="Helvetica,sans-Serif" font-size="10.00">Variant &gt;</text>
</a>
</g>
</g>
<!-- Node1&#45;&gt;Node6 -->
<g id="edge5" class="edge"><title>Node1&#45;&gt;Node6</title>
<path fill="none" stroke="midnightblue" d="M39.5459,-380.616C47.4665,-410.399 66.6422,-466.843 104,-498 109.316,-502.433 115.389,-506.081 121.789,-509.081"/>
<polygon fill="midnightblue" stroke="midnightblue" points="42.8668,-379.469 37.0468,-370.616 36.0757,-381.166 42.8668,-379.469"/>
</g>
<!-- Node7 -->
<g id="node7" class="node"><title>Node7</title>
<g id="a_node7"><a xlink:href="classse3_1_1container_1_1aligned__vector.html" target="_top" xlink:title="aligned_vector\&lt; Matrix6x \&gt;">
<polygon fill="white" stroke="black" points="122.5,-469.5 122.5,-488.5 257.5,-488.5 257.5,-469.5 122.5,-469.5"/>
<text text-anchor="middle" x="190" y="-476.5" font-family="Helvetica,sans-Serif" font-size="10.00">aligned_vector&lt; Matrix6x &gt;</text>
</a>
</g>
</g>
<!-- Node1&#45;&gt;Node7 -->
<g id="edge6" class="edge"><title>Node1&#45;&gt;Node7</title>
<path fill="none" stroke="midnightblue" d="M43.0489,-379.713C53.6752,-402.117 74.5457,-439.098 104,-459 110.406,-463.329 117.634,-466.726 125.1,-469.392"/>
<polygon fill="midnightblue" stroke="midnightblue" points="46.2141,-378.219 38.8934,-370.56 39.8401,-381.112 46.2141,-378.219"/>
</g>
<!-- Node8 -->
<g id="node8" class="node"><title>Node8</title>
<g id="a_node8"><a xlink:href="classse3_1_1container_1_1aligned__vector.html" target="_top" xlink:title="aligned_vector\&lt; se3\l::ForceTpl \&gt;">
<polygon fill="white" stroke="black" points="138,-420 138,-450 242,-450 242,-420 138,-420"/>
<text text-anchor="start" x="146" y="-438" font-family="Helvetica,sans-Serif" font-size="10.00">aligned_vector&lt; se3</text>
<text text-anchor="middle" x="190" y="-427" font-family="Helvetica,sans-Serif" font-size="10.00">::ForceTpl &gt;</text>
</a>
</g>
</g>
<!-- Node1&#45;&gt;Node8 -->
<g id="edge7" class="edge"><title>Node1&#45;&gt;Node8</title>
<path fill="none" stroke="midnightblue" d="M53.8926,-377.036C67.1837,-387.638 85.7834,-401.16 104,-410 114.517,-415.104 126.282,-419.38 137.625,-422.871"/>
<polygon fill="midnightblue" stroke="midnightblue" points="55.9398,-374.189 45.9824,-370.57 51.5093,-379.609 55.9398,-374.189"/>
</g>
<!-- Node9 -->
<g id="node9" class="node"><title>Node9</title>
<g id="a_node9"><a xlink:href="classse3_1_1container_1_1aligned__vector.html" target="_top" xlink:title="aligned_vector\&lt; se3\l::FrameTpl \&gt;">
<polygon fill="white" stroke="black" points="138,-371 138,-401 242,-401 242,-371 138,-371"/>
<text text-anchor="start" x="146" y="-389" font-family="Helvetica,sans-Serif" font-size="10.00">aligned_vector&lt; se3</text>
<text text-anchor="middle" x="190" y="-378" font-family="Helvetica,sans-Serif" font-size="10.00">::FrameTpl &gt;</text>
</a>
</g>
</g>
<!-- Node1&#45;&gt;Node9 -->
<g id="edge8" class="edge"><title>Node1&#45;&gt;Node9</title>
<path fill="none" stroke="midnightblue" d="M77.9788,-367.977C96.5525,-370.992 118.432,-374.544 137.836,-377.694"/>
<polygon fill="midnightblue" stroke="midnightblue" points="78.4685,-364.511 68.0369,-366.363 77.3468,-371.42 78.4685,-364.511"/>
</g>
<!-- Node10 -->
<g id="node10" class="node"><title>Node10</title>
<g id="a_node10"><a xlink:href="classse3_1_1container_1_1aligned__vector.html" target="_top" xlink:title="aligned_vector\&lt; se3\l::GeometryObject \&gt;">
<polygon fill="white" stroke="black" points="138,-322 138,-352 242,-352 242,-322 138,-322"/>
<text text-anchor="start" x="146" y="-340" font-family="Helvetica,sans-Serif" font-size="10.00">aligned_vector&lt; se3</text>
<text text-anchor="middle" x="190" y="-329" font-family="Helvetica,sans-Serif" font-size="10.00">::GeometryObject &gt;</text>
</a>
</g>
</g>
<!-- Node1&#45;&gt;Node10 -->
<g id="edge9" class="edge"><title>Node1&#45;&gt;Node10</title>
<path fill="none" stroke="midnightblue" d="M77.9788,-354.302C96.5525,-351.407 118.432,-347.998 137.836,-344.974"/>
<polygon fill="midnightblue" stroke="midnightblue" points="77.3786,-350.853 68.0369,-355.851 78.4566,-357.77 77.3786,-350.853"/>
</g>
<!-- Node11 -->
<g id="node11" class="node"><title>Node11</title>
<g id="a_node11"><a xlink:href="classse3_1_1container_1_1aligned__vector.html" target="_top" xlink:title="aligned_vector\&lt; se3\l::InertiaTpl \&gt;">
<polygon fill="white" stroke="black" points="138,-273 138,-303 242,-303 242,-273 138,-273"/>
<text text-anchor="start" x="146" y="-291" font-family="Helvetica,sans-Serif" font-size="10.00">aligned_vector&lt; se3</text>
<text text-anchor="middle" x="190" y="-280" font-family="Helvetica,sans-Serif" font-size="10.00">::InertiaTpl &gt;</text>
</a>
</g>
</g>
<!-- Node1&#45;&gt;Node11 -->
<g id="edge10" class="edge"><title>Node1&#45;&gt;Node11</title>
<path fill="none" stroke="midnightblue" d="M54.4224,-344.94C67.7018,-334.621 86.0807,-321.588 104,-313 114.542,-307.947 126.316,-303.692 137.662,-300.204"/>
<polygon fill="midnightblue" stroke="midnightblue" points="52.1327,-342.289 46.4884,-351.255 56.4921,-347.766 52.1327,-342.289"/>
</g>
<!-- Node12 -->
<g id="node12" class="node"><title>Node12</title>
<g id="a_node12"><a xlink:href="classse3_1_1container_1_1aligned__vector.html" target="_top" xlink:title="aligned_vector\&lt; se3\l::InertiaTpl::Matrix6 \&gt;">
<polygon fill="white" stroke="black" points="135,-224 135,-254 245,-254 245,-224 135,-224"/>
<text text-anchor="start" x="143" y="-242" font-family="Helvetica,sans-Serif" font-size="10.00">aligned_vector&lt; se3</text>
<text text-anchor="middle" x="190" y="-231" font-family="Helvetica,sans-Serif" font-size="10.00">::InertiaTpl::Matrix6 &gt;</text>
</a>
</g>
</g>
<!-- Node1&#45;&gt;Node12 -->
<g id="edge11" class="edge"><title>Node1&#45;&gt;Node12</title>
<path fill="none" stroke="midnightblue" d="M43.5972,-342.109C54.5485,-320.138 75.5256,-284.297 104,-264 113.144,-257.482 123.984,-252.649 134.811,-249.069"/>
<polygon fill="midnightblue" stroke="midnightblue" points="40.3169,-340.856 39.1586,-351.387 46.6315,-343.877 40.3169,-340.856"/>
</g>
<!-- Node13 -->
<g id="node13" class="node"><title>Node13</title>
<g id="a_node13"><a xlink:href="classse3_1_1container_1_1aligned__vector.html" target="_top" xlink:title="aligned_vector\&lt; se3\l::MotionTpl \&gt;">
<polygon fill="white" stroke="black" points="138,-175 138,-205 242,-205 242,-175 138,-175"/>
<text text-anchor="start" x="146" y="-193" font-family="Helvetica,sans-Serif" font-size="10.00">aligned_vector&lt; se3</text>
<text text-anchor="middle" x="190" y="-182" font-family="Helvetica,sans-Serif" font-size="10.00">::MotionTpl &gt;</text>
</a>
</g>
</g>
<!-- Node1&#45;&gt;Node13 -->
<g id="edge12" class="edge"><title>Node1&#45;&gt;Node13</title>
<path fill="none" stroke="midnightblue" d="M38.9593,-340.992C46.2334,-309.524 64.7253,-248.599 104,-215 113.584,-206.801 125.75,-201.289 137.859,-197.584"/>
<polygon fill="midnightblue" stroke="midnightblue" points="35.4561,-340.634 36.7693,-351.147 42.2988,-342.11 35.4561,-340.634"/>
</g>
<!-- Node14 -->
<g id="node14" class="node"><title>Node14</title>
<g id="a_node14"><a xlink:href="classse3_1_1container_1_1aligned__vector.html" target="_top" xlink:title="aligned_vector\&lt; se3\l::se3::SE3Tpl \&gt;">
<polygon fill="white" stroke="black" points="138,-126 138,-156 242,-156 242,-126 138,-126"/>
<text text-anchor="start" x="146" y="-144" font-family="Helvetica,sans-Serif" font-size="10.00">aligned_vector&lt; se3</text>
<text text-anchor="middle" x="190" y="-133" font-family="Helvetica,sans-Serif" font-size="10.00">::se3::SE3Tpl &gt;</text>
</a>
</g>
</g>
<!-- Node1&#45;&gt;Node14 -->
<g id="edge13" class="edge"><title>Node1&#45;&gt;Node14</title>
<path fill="none" stroke="midnightblue" d="M36.2392,-341.128C39.7698,-301.889 53.223,-214.104 104,-166 113.268,-157.22 125.462,-151.505 137.709,-147.791"/>
<polygon fill="midnightblue" stroke="midnightblue" points="32.7384,-341.004 35.4573,-351.244 39.7176,-341.543 32.7384,-341.004"/>
</g>
<!-- Node15 -->
<g id="node15" class="node"><title>Node15</title>
<g id="a_node15"><a xlink:href="classse3_1_1container_1_1aligned__vector.html" target="_top" xlink:title="aligned_vector\&lt; se3\l::SE3Tpl \&gt;">
<polygon fill="white" stroke="black" points="138,-77 138,-107 242,-107 242,-77 138,-77"/>
<text text-anchor="start" x="146" y="-95" font-family="Helvetica,sans-Serif" font-size="10.00">aligned_vector&lt; se3</text>
<text text-anchor="middle" x="190" y="-84" font-family="Helvetica,sans-Serif" font-size="10.00">::SE3Tpl &gt;</text>
</a>
</g>
</g>
<!-- Node1&#45;&gt;Node15 -->
<g id="edge14" class="edge"><title>Node1&#45;&gt;Node15</title>
<path fill="none" stroke="midnightblue" d="M34.5659,-341.373C34.6584,-295.46 41.4841,-180.173 104,-117 113.089,-107.816 125.364,-101.967 137.757,-98.2539"/>
<polygon fill="midnightblue" stroke="midnightblue" points="31.0669,-341.509 34.6577,-351.477 38.0666,-341.445 31.0669,-341.509"/>
</g>
<!-- Node16 -->
<g id="node16" class="node"><title>Node16</title>
<g id="a_node16"><a xlink:href="classse3_1_1container_1_1aligned__vector.html" target="_top" xlink:title="aligned_vector\&lt; Transformation_t \&gt;">
<polygon fill="white" stroke="black" points="104.5,-38.5 104.5,-57.5 275.5,-57.5 275.5,-38.5 104.5,-38.5"/>
<text text-anchor="middle" x="190" y="-45.5" font-family="Helvetica,sans-Serif" font-size="10.00">aligned_vector&lt; Transformation_t &gt;</text>
</a>
</g>
</g>
<!-- Node1&#45;&gt;Node16 -->
<g id="edge15" class="edge"><title>Node1&#45;&gt;Node16</title>
<path fill="none" stroke="midnightblue" d="M36.9957,-340.981C43.3356,-281.42 64.9357,-107.057 104,-68 108.288,-63.7125 113.312,-60.2766 118.736,-57.5308"/>
<polygon fill="midnightblue" stroke="midnightblue" points="33.477,-340.981 35.9305,-351.288 40.44,-341.701 33.477,-340.981"/>
</g>
<!-- Node17 -->
<g id="node17" class="node"><title>Node17</title>
<g id="a_node17"><a xlink:href="classse3_1_1container_1_1aligned__vector.html" target="_top" xlink:title="Specialization of an std::vector with an aligned allocator. This specialization might be used when th...">
<polygon fill="white" stroke="black" points="138,-0.5 138,-19.5 242,-19.5 242,-0.5 138,-0.5"/>
<text text-anchor="middle" x="190" y="-7.5" font-family="Helvetica,sans-Serif" font-size="10.00">aligned_vector&lt; T &gt;</text>
</a>
</g>
</g>
<!-- Node1&#45;&gt;Node17 -->
<g id="edge16" class="edge"><title>Node1&#45;&gt;Node17</title>
<path fill="none" stroke="midnightblue" d="M36.3509,-341.304C41.1721,-276.883 59.6667,-74.0033 104,-29 113.02,-19.8437 125.421,-14.6731 137.963,-11.8509"/>
<polygon fill="midnightblue" stroke="midnightblue" points="32.8552,-341.12 35.6278,-351.346 39.8371,-341.623 32.8552,-341.12"/>
</g>
</g>
</svg>
