<?xml version="1.0" encoding="UTF-8" standalone="no"?>
<!DOCTYPE svg PUBLIC "-//W3C//DTD SVG 1.1//EN"
 "http://www.w3.org/Graphics/SVG/1.1/DTD/svg11.dtd">
<!-- Generated by graphviz version 2.36.0 (20140111.2315)
 -->
<!-- Title: Graphical Class Hierarchy Pages: 1 -->
<svg width="260pt" height="66pt"
 viewBox="0.00 0.00 260.00 66.00" xmlns="http://www.w3.org/2000/svg" xmlns:xlink="http://www.w3.org/1999/xlink">
<g id="graph0" class="graph" transform="scale(1 1) rotate(0) translate(4 62)">
<title>Graphical Class Hierarchy</title>
<polygon fill="white" stroke="none" points="-4,4 -4,-62 256,-62 256,4 -4,4"/>
<!-- Node1 -->
<g id="node1" class="node"><title>Node1</title>
<g id="a_node1"><a xlink:href="structse3_1_1JointModelBase.html" target="_top" xlink:title="JointModelBase\&lt; JointModel \&gt;">
<polygon fill="white" stroke="black" points="0,-38.5 0,-57.5 152,-57.5 152,-38.5 0,-38.5"/>
<text text-anchor="middle" x="76" y="-45.5" font-family="Helvetica,sans-Serif" font-size="10.00">JointModelBase&lt; JointModel &gt;</text>
</a>
</g>
</g>
<!-- Node2 -->
<g id="node2" class="node"><title>Node2</title>
<g id="a_node2"><a xlink:href="structse3_1_1JointModel.html" target="_top" xlink:title="JointModel">
<polygon fill="white" stroke="black" points="188,-19.5 188,-38.5 252,-38.5 252,-19.5 188,-19.5"/>
<text text-anchor="middle" x="220" y="-26.5" font-family="Helvetica,sans-Serif" font-size="10.00">JointModel</text>
</a>
</g>
</g>
<!-- Node1&#45;&gt;Node2 -->
<g id="edge1" class="edge"><title>Node1&#45;&gt;Node2</title>
<path fill="none" stroke="midnightblue" d="M158.418,-37.106C168.785,-35.7189 178.849,-34.3723 187.7,-33.188"/>
<polygon fill="midnightblue" stroke="midnightblue" points="157.863,-33.649 148.416,-38.4443 158.792,-40.5871 157.863,-33.649"/>
</g>
<!-- Node3 -->
<g id="node3" class="node"><title>Node3</title>
<polygon fill="white" stroke="#bfbfbf" points="28.5,-0.5 28.5,-19.5 123.5,-19.5 123.5,-0.5 28.5,-0.5"/>
<text text-anchor="middle" x="76" y="-7.5" font-family="Helvetica,sans-Serif" font-size="10.00">JointModelVariant</text>
</g>
<!-- Node3&#45;&gt;Node2 -->
<g id="edge2" class="edge"><title>Node3&#45;&gt;Node2</title>
<path fill="none" stroke="midnightblue" d="M133.936,-17.6182C152.322,-20.0783 172.019,-22.7138 187.824,-24.8285"/>
<polygon fill="midnightblue" stroke="midnightblue" points="134.266,-14.1312 123.89,-16.274 133.337,-21.0693 134.266,-14.1312"/>
</g>
</g>
</svg>
