<?xml version="1.0" encoding="UTF-8" standalone="no"?>
<!DOCTYPE svg PUBLIC "-//W3C//DTD SVG 1.1//EN"
 "http://www.w3.org/Graphics/SVG/1.1/DTD/svg11.dtd">
<!-- Generated by graphviz version 2.36.0 (20140111.2315)
 -->
<!-- Title: JointDataSpherical Pages: 1 -->
<svg width="146pt" height="166pt"
 viewBox="0.00 0.00 146.00 166.00" xmlns="http://www.w3.org/2000/svg" xmlns:xlink="http://www.w3.org/1999/xlink">
<g id="graph0" class="graph" transform="scale(1 1) rotate(0) translate(4 162)">
<title>JointDataSpherical</title>
<polygon fill="white" stroke="none" points="-4,4 -4,-162 142,-162 142,4 -4,4"/>
<!-- Node1 -->
<g id="node1" class="node"><title>Node1</title>
<polygon fill="#bfbfbf" stroke="black" points="19.5,-0.5 19.5,-19.5 118.5,-19.5 118.5,-0.5 19.5,-0.5"/>
<text text-anchor="middle" x="69" y="-7.5" font-family="Helvetica,sans-Serif" font-size="10.00">JointDataSpherical</text>
</g>
<!-- Node2 -->
<g id="node2" class="node"><title>Node2</title>
<g id="a_node2"><a xlink:href="structse3_1_1JointDataBase.html" target="_top" xlink:title="JointDataBase\&lt; JointData\lSpherical \&gt;">
<polygon fill="white" stroke="black" points="3,-59 3,-89 135,-89 135,-59 3,-59"/>
<text text-anchor="start" x="11" y="-77" font-family="Helvetica,sans-Serif" font-size="10.00">JointDataBase&lt; JointData</text>
<text text-anchor="middle" x="69" y="-66" font-family="Helvetica,sans-Serif" font-size="10.00">Spherical &gt;</text>
</a>
</g>
</g>
<!-- Node2&#45;&gt;Node1 -->
<g id="edge1" class="edge"><title>Node2&#45;&gt;Node1</title>
<path fill="none" stroke="midnightblue" d="M69,-48.8706C69,-38.6625 69,-27.4077 69,-19.8419"/>
<polygon fill="midnightblue" stroke="midnightblue" points="65.5001,-48.9312 69,-58.9312 72.5001,-48.9313 65.5001,-48.9312"/>
</g>
<!-- Node3 -->
<g id="node3" class="node"><title>Node3</title>
<g id="a_node3"><a xlink:href="structse3_1_1traits_3_01JointDataSpherical_01_4.html" target="_top" xlink:title="traits\&lt; JointDataSpherical \&gt;">
<polygon fill="white" stroke="black" points="-0.5,-138.5 -0.5,-157.5 138.5,-157.5 138.5,-138.5 -0.5,-138.5"/>
<text text-anchor="middle" x="69" y="-145.5" font-family="Helvetica,sans-Serif" font-size="10.00">traits&lt; JointDataSpherical &gt;</text>
</a>
</g>
</g>
<!-- Node3&#45;&gt;Node2 -->
<g id="edge2" class="edge"><title>Node3&#45;&gt;Node2</title>
<path fill="none" stroke="#9a32cd" stroke-dasharray="5,2" d="M69,-128.085C69,-115.915 69,-100.354 69,-89.2316"/>
<polygon fill="#9a32cd" stroke="#9a32cd" points="65.5001,-128.458 69,-138.458 72.5001,-128.458 65.5001,-128.458"/>
<text text-anchor="middle" x="98" y="-111.5" font-family="Helvetica,sans-Serif" font-size="10.00"> JointDerived</text>
</g>
</g>
</svg>
