<?xml version="1.0" encoding="UTF-8" standalone="no"?>
<!DOCTYPE svg PUBLIC "-//W3C//DTD SVG 1.1//EN"
 "http://www.w3.org/Graphics/SVG/1.1/DTD/svg11.dtd">
<!-- Generated by graphviz version 2.36.0 (20140111.2315)
 -->
<!-- Title: NormalizeStep Pages: 1 -->
<svg width="104pt" height="152pt"
 viewBox="0.00 0.00 104.00 152.00" xmlns="http://www.w3.org/2000/svg" xmlns:xlink="http://www.w3.org/1999/xlink">
<g id="graph0" class="graph" transform="scale(1 1) rotate(0) translate(4 148)">
<title>NormalizeStep</title>
<polygon fill="white" stroke="none" points="-4,4 -4,-148 100,-148 100,4 -4,4"/>
<!-- Node1 -->
<g id="node1" class="node"><title>Node1</title>
<polygon fill="#bfbfbf" stroke="black" points="7.5,-0.5 7.5,-19.5 88.5,-19.5 88.5,-0.5 7.5,-0.5"/>
<text text-anchor="middle" x="48" y="-7.5" font-family="Helvetica,sans-Serif" font-size="10.00">NormalizeStep</text>
</g>
<!-- Node2 -->
<g id="node2" class="node"><title>Node2</title>
<g id="a_node2"><a xlink:href="structse3_1_1fusion_1_1JointModelVisitor.html" target="_top" xlink:title="JointModelVisitor\&lt;\l NormalizeStep \&gt;">
<polygon fill="white" stroke="black" points="-1,-57 -1,-87 97,-87 97,-57 -1,-57"/>
<text text-anchor="start" x="7" y="-75" font-family="Helvetica,sans-Serif" font-size="10.00">JointModelVisitor&lt;</text>
<text text-anchor="middle" x="48" y="-64" font-family="Helvetica,sans-Serif" font-size="10.00"> NormalizeStep &gt;</text>
</a>
</g>
</g>
<!-- Node2&#45;&gt;Node1 -->
<g id="edge1" class="edge"><title>Node2&#45;&gt;Node1</title>
<path fill="none" stroke="midnightblue" d="M48,-46.5858C48,-37.0743 48,-26.7864 48,-19.7305"/>
<polygon fill="midnightblue" stroke="midnightblue" points="44.5001,-46.7808 48,-56.7808 51.5001,-46.7809 44.5001,-46.7808"/>
</g>
<!-- Node3 -->
<g id="node3" class="node"><title>Node3</title>
<polygon fill="white" stroke="#bfbfbf" points="6,-124.5 6,-143.5 90,-143.5 90,-124.5 6,-124.5"/>
<text text-anchor="middle" x="48" y="-131.5" font-family="Helvetica,sans-Serif" font-size="10.00">static_visitor&lt;&gt;</text>
</g>
<!-- Node3&#45;&gt;Node2 -->
<g id="edge2" class="edge"><title>Node3&#45;&gt;Node2</title>
<path fill="none" stroke="midnightblue" d="M48,-114.371C48,-105.585 48,-95.2721 48,-87.1408"/>
<polygon fill="midnightblue" stroke="midnightblue" points="44.5001,-114.403 48,-124.403 51.5001,-114.403 44.5001,-114.403"/>
</g>
</g>
</svg>
