<?xml version="1.0" encoding="UTF-8" standalone="no"?>
<!DOCTYPE svg PUBLIC "-//W3C//DTD SVG 1.1//EN"
 "http://www.w3.org/Graphics/SVG/1.1/DTD/svg11.dtd">
<!-- Generated by graphviz version 2.36.0 (20140111.2315)
 -->
<!-- Title: JointModelRevoluteUnaligned Pages: 1 -->
<svg width="154pt" height="178pt"
 viewBox="0.00 0.00 154.00 178.00" xmlns="http://www.w3.org/2000/svg" xmlns:xlink="http://www.w3.org/1999/xlink">
<g id="graph0" class="graph" transform="scale(1 1) rotate(0) translate(4 174)">
<title>JointModelRevoluteUnaligned</title>
<polygon fill="white" stroke="none" points="-4,4 -4,-174 150,-174 150,4 -4,4"/>
<!-- Node1 -->
<g id="node1" class="node"><title>Node1</title>
<polygon fill="#bfbfbf" stroke="black" points="0,-0.5 0,-19.5 146,-19.5 146,-0.5 0,-0.5"/>
<text text-anchor="middle" x="73" y="-7.5" font-family="Helvetica,sans-Serif" font-size="10.00">JointModelRevoluteUnaligned</text>
</g>
<!-- Node2 -->
<g id="node2" class="node"><title>Node2</title>
<g id="a_node2"><a xlink:href="structse3_1_1JointModelBase.html" target="_top" xlink:title="JointModelBase\&lt; JointModel\lRevoluteUnaligned \&gt;">
<polygon fill="white" stroke="black" points="1.5,-59 1.5,-89 144.5,-89 144.5,-59 1.5,-59"/>
<text text-anchor="start" x="9.5" y="-77" font-family="Helvetica,sans-Serif" font-size="10.00">JointModelBase&lt; JointModel</text>
<text text-anchor="middle" x="73" y="-66" font-family="Helvetica,sans-Serif" font-size="10.00">RevoluteUnaligned &gt;</text>
</a>
</g>
</g>
<!-- Node2&#45;&gt;Node1 -->
<g id="edge1" class="edge"><title>Node2&#45;&gt;Node1</title>
<path fill="none" stroke="midnightblue" d="M73,-48.8706C73,-38.6625 73,-27.4077 73,-19.8419"/>
<polygon fill="midnightblue" stroke="midnightblue" points="69.5001,-48.9312 73,-58.9312 76.5001,-48.9313 69.5001,-48.9312"/>
</g>
<!-- Node3 -->
<g id="node3" class="node"><title>Node3</title>
<g id="a_node3"><a xlink:href="structse3_1_1traits_3_01JointModelRevoluteUnaligned_01_4.html" target="_top" xlink:title="traits\&lt; JointModelRevolute\lUnaligned \&gt;">
<polygon fill="white" stroke="black" points="6,-139 6,-169 140,-169 140,-139 6,-139"/>
<text text-anchor="start" x="14" y="-157" font-family="Helvetica,sans-Serif" font-size="10.00">traits&lt; JointModelRevolute</text>
<text text-anchor="middle" x="73" y="-146" font-family="Helvetica,sans-Serif" font-size="10.00">Unaligned &gt;</text>
</a>
</g>
</g>
<!-- Node3&#45;&gt;Node2 -->
<g id="edge2" class="edge"><title>Node3&#45;&gt;Node2</title>
<path fill="none" stroke="#9a32cd" stroke-dasharray="5,2" d="M73,-128.564C73,-115.624 73,-100.186 73,-89.2157"/>
<polygon fill="#9a32cd" stroke="#9a32cd" points="69.5001,-128.694 73,-138.694 76.5001,-128.694 69.5001,-128.694"/>
<text text-anchor="middle" x="102" y="-111.5" font-family="Helvetica,sans-Serif" font-size="10.00"> JointDerived</text>
</g>
</g>
</svg>
