<?xml version="1.0" encoding="UTF-8" standalone="no"?>
<!DOCTYPE svg PUBLIC "-//W3C//DTD SVG 1.1//EN"
 "http://www.w3.org/Graphics/SVG/1.1/DTD/svg11.dtd">
<!-- Generated by graphviz version 2.36.0 (20140111.2315)
 -->
<!-- Title: JointModelComposite Pages: 1 -->
<svg width="730pt" height="183pt"
 viewBox="0.00 0.00 730.00 183.00" xmlns="http://www.w3.org/2000/svg" xmlns:xlink="http://www.w3.org/1999/xlink">
<g id="graph0" class="graph" transform="scale(1 1) rotate(0) translate(4 179)">
<title>JointModelComposite</title>
<polygon fill="white" stroke="none" points="-4,4 -4,-179 726,-179 726,4 -4,4"/>
<!-- Node1 -->
<g id="node1" class="node"><title>Node1</title>
<polygon fill="#bfbfbf" stroke="black" points="610.5,-84.5 610.5,-103.5 721.5,-103.5 721.5,-84.5 610.5,-84.5"/>
<text text-anchor="middle" x="666" y="-91.5" font-family="Helvetica,sans-Serif" font-size="10.00">JointModelComposite</text>
</g>
<!-- Node2 -->
<g id="node2" class="node"><title>Node2</title>
<g id="a_node2"><a xlink:href="structse3_1_1JointModelBase.html" target="_top" xlink:title="JointModelBase\&lt; JointModel\lComposite \&gt;">
<polygon fill="white" stroke="black" points="356.5,-145 356.5,-175 499.5,-175 499.5,-145 356.5,-145"/>
<text text-anchor="start" x="364.5" y="-163" font-family="Helvetica,sans-Serif" font-size="10.00">JointModelBase&lt; JointModel</text>
<text text-anchor="middle" x="428" y="-152" font-family="Helvetica,sans-Serif" font-size="10.00">Composite &gt;</text>
</a>
</g>
</g>
<!-- Node2&#45;&gt;Node1 -->
<g id="edge1" class="edge"><title>Node2&#45;&gt;Node1</title>
<path fill="none" stroke="midnightblue" d="M506.662,-142.643C533.819,-136.125 564.409,-128.276 592,-120 608.237,-115.13 626.175,-108.755 640.206,-103.537"/>
<polygon fill="midnightblue" stroke="midnightblue" points="505.743,-139.264 496.824,-144.982 507.363,-146.074 505.743,-139.264"/>
</g>
<!-- Node3 -->
<g id="node3" class="node"><title>Node3</title>
<g id="a_node3"><a xlink:href="structse3_1_1traits_3_01JointModelComposite_01_4.html" target="_top" xlink:title="traits\&lt; JointModelComposite \&gt;">
<polygon fill="white" stroke="black" points="110.5,-150.5 110.5,-169.5 261.5,-169.5 261.5,-150.5 110.5,-150.5"/>
<text text-anchor="middle" x="186" y="-157.5" font-family="Helvetica,sans-Serif" font-size="10.00">traits&lt; JointModelComposite &gt;</text>
</a>
</g>
</g>
<!-- Node3&#45;&gt;Node2 -->
<g id="edge2" class="edge"><title>Node3&#45;&gt;Node2</title>
<path fill="none" stroke="#9a32cd" stroke-dasharray="5,2" d="M271.658,-160C299.27,-160 329.623,-160 356.116,-160"/>
<polygon fill="#9a32cd" stroke="#9a32cd" points="271.622,-156.5 261.622,-160 271.622,-163.5 271.622,-156.5"/>
<text text-anchor="middle" x="309" y="-163" font-family="Helvetica,sans-Serif" font-size="10.00"> JointDerived</text>
</g>
<!-- Node4 -->
<g id="node4" class="node"><title>Node4</title>
<g id="a_node4"><a xlink:href="classse3_1_1container_1_1aligned__vector.html" target="_top" xlink:title="aligned_vector\&lt; se3\l::SE3Tpl \&gt;">
<polygon fill="white" stroke="black" points="376,-96 376,-126 480,-126 480,-96 376,-96"/>
<text text-anchor="start" x="384" y="-114" font-family="Helvetica,sans-Serif" font-size="10.00">aligned_vector&lt; se3</text>
<text text-anchor="middle" x="428" y="-103" font-family="Helvetica,sans-Serif" font-size="10.00">::SE3Tpl &gt;</text>
</a>
</g>
</g>
<!-- Node4&#45;&gt;Node1 -->
<g id="edge3" class="edge"><title>Node4&#45;&gt;Node1</title>
<path fill="none" stroke="#9a32cd" stroke-dasharray="5,2" d="M490.393,-106.578C527.484,-103.906 574.353,-100.53 610.192,-97.9481"/>
<polygon fill="#9a32cd" stroke="#9a32cd" points="489.931,-103.102 480.208,-107.311 490.434,-110.084 489.931,-103.102"/>
<text text-anchor="middle" x="555" y="-108" font-family="Helvetica,sans-Serif" font-size="10.00"> jointPlacements</text>
</g>
<!-- Node5 -->
<g id="node5" class="node"><title>Node5</title>
<g id="a_node5"><a xlink:title="STL class. ">
<polygon fill="white" stroke="#bfbfbf" points="124.5,-90.5 124.5,-131.5 247.5,-131.5 247.5,-90.5 124.5,-90.5"/>
<text text-anchor="start" x="132.5" y="-119.5" font-family="Helvetica,sans-Serif" font-size="10.00">vector&lt; se3::SE3Tpl,</text>
<text text-anchor="start" x="132.5" y="-108.5" font-family="Helvetica,sans-Serif" font-size="10.00"> Eigen::aligned_allocator</text>
<text text-anchor="middle" x="186" y="-97.5" font-family="Helvetica,sans-Serif" font-size="10.00">&lt; se3::SE3Tpl &gt; &gt;</text>
</a>
</g>
</g>
<!-- Node5&#45;&gt;Node4 -->
<g id="edge4" class="edge"><title>Node5&#45;&gt;Node4</title>
<path fill="none" stroke="midnightblue" d="M258.005,-111C295.823,-111 341.48,-111 375.799,-111"/>
<polygon fill="midnightblue" stroke="midnightblue" points="257.562,-107.5 247.562,-111 257.562,-114.5 257.562,-107.5"/>
</g>
<!-- Node6 -->
<g id="node6" class="node"><title>Node6</title>
<polygon fill="white" stroke="#bfbfbf" points="0.5,-74.5 0.5,-93.5 29.5,-93.5 29.5,-74.5 0.5,-74.5"/>
<text text-anchor="middle" x="15" y="-81.5" font-family="Helvetica,sans-Serif" font-size="10.00">T</text>
</g>
<!-- Node6&#45;&gt;Node5 -->
<g id="edge5" class="edge"><title>Node6&#45;&gt;Node5</title>
<path fill="none" stroke="#9a32cd" stroke-dasharray="5,2" d="M39.5575,-87.7636C61.4303,-91.2581 94.943,-96.6122 124.288,-101.301"/>
<polygon fill="#9a32cd" stroke="#9a32cd" points="39.9713,-84.2854 29.5443,-86.1639 38.8669,-91.1978 39.9713,-84.2854"/>
<text text-anchor="middle" x="70" y="-99" font-family="Helvetica,sans-Serif" font-size="10.00"> elements</text>
</g>
<!-- Node8 -->
<g id="node8" class="node"><title>Node8</title>
<g id="a_node8"><a xlink:title="STL class. ">
<polygon fill="white" stroke="#bfbfbf" points="119,-30.5 119,-71.5 253,-71.5 253,-30.5 119,-30.5"/>
<text text-anchor="start" x="127" y="-59.5" font-family="Helvetica,sans-Serif" font-size="10.00">vector&lt; JointModelVariant,</text>
<text text-anchor="start" x="127" y="-48.5" font-family="Helvetica,sans-Serif" font-size="10.00"> Eigen::aligned_allocator</text>
<text text-anchor="middle" x="186" y="-37.5" font-family="Helvetica,sans-Serif" font-size="10.00">&lt; JointModelVariant &gt; &gt;</text>
</a>
</g>
</g>
<!-- Node6&#45;&gt;Node8 -->
<g id="edge8" class="edge"><title>Node6&#45;&gt;Node8</title>
<path fill="none" stroke="#9a32cd" stroke-dasharray="5,2" d="M39.5342,-77.0911C42.3759,-76.3428 45.2462,-75.6268 48,-75 70.9561,-69.775 96.2985,-65.0487 118.88,-61.1991"/>
<polygon fill="#9a32cd" stroke="#9a32cd" points="38.3257,-73.7941 29.6258,-79.8409 40.1976,-80.5392 38.3257,-73.7941"/>
<text text-anchor="middle" x="70" y="-78" font-family="Helvetica,sans-Serif" font-size="10.00"> elements</text>
</g>
<!-- Node7 -->
<g id="node7" class="node"><title>Node7</title>
<g id="a_node7"><a xlink:href="classse3_1_1container_1_1aligned__vector.html" target="_top" xlink:title="aligned_vector\&lt; JointModel\lVariant \&gt;">
<polygon fill="white" stroke="black" points="360,-43 360,-73 496,-73 496,-43 360,-43"/>
<text text-anchor="start" x="368" y="-61" font-family="Helvetica,sans-Serif" font-size="10.00">aligned_vector&lt; JointModel</text>
<text text-anchor="middle" x="428" y="-50" font-family="Helvetica,sans-Serif" font-size="10.00">Variant &gt;</text>
</a>
</g>
</g>
<!-- Node7&#45;&gt;Node1 -->
<g id="edge6" class="edge"><title>Node7&#45;&gt;Node1</title>
<path fill="none" stroke="#9a32cd" stroke-dasharray="5,2" d="M506.22,-69.7793C540.228,-74.9669 579.388,-80.9406 610.31,-85.6574"/>
<polygon fill="#9a32cd" stroke="#9a32cd" points="506.726,-66.3161 496.312,-68.268 505.67,-73.236 506.726,-66.3161"/>
<text text-anchor="middle" x="555" y="-86" font-family="Helvetica,sans-Serif" font-size="10.00"> joints</text>
</g>
<!-- Node8&#45;&gt;Node7 -->
<g id="edge7" class="edge"><title>Node8&#45;&gt;Node7</title>
<path fill="none" stroke="midnightblue" d="M263.519,-53.2318C294.446,-54.1338 329.829,-55.1658 359.749,-56.0385"/>
<polygon fill="midnightblue" stroke="midnightblue" points="263.314,-49.7244 253.216,-52.9313 263.11,-56.7215 263.314,-49.7244"/>
</g>
<!-- Node9 -->
<g id="node9" class="node"><title>Node9</title>
<polygon fill="white" stroke="#bfbfbf" points="392,-0.5 392,-19.5 464,-19.5 464,-0.5 392,-0.5"/>
<text text-anchor="middle" x="428" y="-7.5" font-family="Helvetica,sans-Serif" font-size="10.00">vector&lt; int &gt;</text>
</g>
<!-- Node9&#45;&gt;Node1 -->
<g id="edge9" class="edge"><title>Node9&#45;&gt;Node1</title>
<path fill="none" stroke="#9a32cd" stroke-dasharray="5,2" d="M474.157,-6.00077C508.057,-4.82439 554.832,-7.17627 592,-24 621.913,-37.54 647.077,-68.6498 658.468,-84.4363"/>
<polygon fill="#9a32cd" stroke="#9a32cd" points="473.902,-2.50872 464.074,-6.46701 474.225,-9.50124 473.902,-2.50872"/>
<text text-anchor="middle" x="555" y="-60" font-family="Helvetica,sans-Serif" font-size="10.00"> m_nvs</text>
<text text-anchor="middle" x="555" y="-49" font-family="Helvetica,sans-Serif" font-size="10.00">m_idx_v</text>
<text text-anchor="middle" x="555" y="-38" font-family="Helvetica,sans-Serif" font-size="10.00">m_nqs</text>
<text text-anchor="middle" x="555" y="-27" font-family="Helvetica,sans-Serif" font-size="10.00">m_idx_q</text>
</g>
</g>
</svg>
