<?xml version="1.0" encoding="UTF-8" standalone="no"?>
<!DOCTYPE svg PUBLIC "-//W3C//DTD SVG 1.1//EN"
 "http://www.w3.org/Graphics/SVG/1.1/DTD/svg11.dtd">
<!-- Generated by graphviz version 2.36.0 (20140111.2315)
 -->
<!-- Title: JointDataRevoluteUnbounded&lt; axis &gt; Pages: 1 -->
<svg width="156pt" height="108pt"
 viewBox="0.00 0.00 156.00 108.00" xmlns="http://www.w3.org/2000/svg" xmlns:xlink="http://www.w3.org/1999/xlink">
<g id="graph0" class="graph" transform="scale(1 1) rotate(0) translate(4 104)">
<title>JointDataRevoluteUnbounded&lt; axis &gt;</title>
<polygon fill="white" stroke="none" points="-4,4 -4,-104 152,-104 152,4 -4,4"/>
<!-- Node1 -->
<g id="node1" class="node"><title>Node1</title>
<polygon fill="#bfbfbf" stroke="black" points="0.5,-1 0.5,-31 147.5,-31 147.5,-1 0.5,-1"/>
<text text-anchor="start" x="8.5" y="-19" font-family="Helvetica,sans-Serif" font-size="10.00">JointDataRevoluteUnbounded</text>
<text text-anchor="middle" x="74" y="-8" font-family="Helvetica,sans-Serif" font-size="10.00">&lt; axis &gt;</text>
</g>
<!-- Node2 -->
<g id="node2" class="node"><title>Node2</title>
<g id="a_node2"><a xlink:href="structse3_1_1JointDataBase.html" target="_top" xlink:title="JointDataBase\&lt; JointData\lRevoluteUnbounded\&lt; axis \&gt; \&gt;">
<polygon fill="white" stroke="black" points="-1,-69 -1,-99 149,-99 149,-69 -1,-69"/>
<text text-anchor="start" x="7" y="-87" font-family="Helvetica,sans-Serif" font-size="10.00">JointDataBase&lt; JointData</text>
<text text-anchor="middle" x="74" y="-76" font-family="Helvetica,sans-Serif" font-size="10.00">RevoluteUnbounded&lt; axis &gt; &gt;</text>
</a>
</g>
</g>
<!-- Node2&#45;&gt;Node1 -->
<g id="edge1" class="edge"><title>Node2&#45;&gt;Node1</title>
<path fill="none" stroke="midnightblue" d="M74,-58.5322C74,-49.3606 74,-39.2449 74,-31.2931"/>
<polygon fill="midnightblue" stroke="midnightblue" points="70.5001,-58.6789 74,-68.679 77.5001,-58.679 70.5001,-58.6789"/>
</g>
</g>
</svg>
