<?xml version="1.0" encoding="UTF-8" standalone="no"?>
<!DOCTYPE svg PUBLIC "-//W3C//DTD SVG 1.1//EN"
 "http://www.w3.org/Graphics/SVG/1.1/DTD/svg11.dtd">
<!-- Generated by graphviz version 2.36.0 (20140111.2315)
 -->
<!-- Title: LuaTableNode Pages: 1 -->
<svg width="162pt" height="222pt"
 viewBox="0.00 0.00 162.00 222.00" xmlns="http://www.w3.org/2000/svg" xmlns:xlink="http://www.w3.org/1999/xlink">
<g id="graph0" class="graph" transform="scale(1 1) rotate(0) translate(4 218)">
<title>LuaTableNode</title>
<polygon fill="white" stroke="none" points="-4,4 -4,-218 158,-218 158,4 -4,4"/>
<!-- Node1 -->
<g id="node1" class="node"><title>Node1</title>
<polygon fill="#bfbfbf" stroke="black" points="25,-0.5 25,-19.5 105,-19.5 105,-0.5 25,-0.5"/>
<text text-anchor="middle" x="65" y="-7.5" font-family="Helvetica,sans-Serif" font-size="10.00">LuaTableNode</text>
</g>
<!-- Node1&#45;&gt;Node1 -->
<g id="edge1" class="edge"><title>Node1&#45;&gt;Node1</title>
<path fill="none" stroke="#9a32cd" stroke-dasharray="5,2" d="M115.265,-15.1219C120.005,-14.073 123,-12.3657 123,-10 123,-6.21484 115.332,-4.11526 105.119,-3.70126"/>
<polygon fill="#9a32cd" stroke="#9a32cd" points="114.649,-11.6698 105.119,-16.2987 115.455,-18.6232 114.649,-11.6698"/>
<text text-anchor="middle" x="138.5" y="-7.5" font-family="Helvetica,sans-Serif" font-size="10.00"> parent</text>
</g>
<!-- Node2 -->
<g id="node2" class="node"><title>Node2</title>
<g id="a_node2"><a xlink:href="structLuaKey.html" target="_top" xlink:title="LuaKey">
<polygon fill="white" stroke="black" points="0,-68.5 0,-87.5 50,-87.5 50,-68.5 0,-68.5"/>
<text text-anchor="middle" x="25" y="-75.5" font-family="Helvetica,sans-Serif" font-size="10.00">LuaKey</text>
</a>
</g>
</g>
<!-- Node2&#45;&gt;Node1 -->
<g id="edge2" class="edge"><title>Node2&#45;&gt;Node1</title>
<path fill="none" stroke="#9a32cd" stroke-dasharray="5,2" d="M35.5679,-59.563C43.3143,-46.7815 53.5091,-29.9599 59.6417,-19.8411"/>
<polygon fill="#9a32cd" stroke="#9a32cd" points="32.4192,-58.0056 30.2293,-68.3717 38.4056,-61.6337 32.4192,-58.0056"/>
<text text-anchor="middle" x="58.5" y="-41.5" font-family="Helvetica,sans-Serif" font-size="10.00"> key</text>
</g>
<!-- Node3 -->
<g id="node3" class="node"><title>Node3</title>
<g id="a_node3"><a xlink:title="STL class. ">
<polygon fill="white" stroke="#bfbfbf" points="39.5,-136.5 39.5,-155.5 80.5,-155.5 80.5,-136.5 39.5,-136.5"/>
<text text-anchor="middle" x="60" y="-143.5" font-family="Helvetica,sans-Serif" font-size="10.00">string</text>
</a>
</g>
</g>
<!-- Node3&#45;&gt;Node2 -->
<g id="edge3" class="edge"><title>Node3&#45;&gt;Node2</title>
<path fill="none" stroke="#9a32cd" stroke-dasharray="5,2" d="M32.519,-130.464C28.2788,-126.968 24.4883,-122.82 22,-118 17.0785,-108.466 19.3747,-95.8445 21.854,-87.5785"/>
<polygon fill="#9a32cd" stroke="#9a32cd" points="30.8007,-133.533 41.003,-136.39 34.8093,-127.794 30.8007,-133.533"/>
<text text-anchor="middle" x="50" y="-109.5" font-family="Helvetica,sans-Serif" font-size="10.00"> string_value</text>
</g>
<!-- Node5 -->
<g id="node5" class="node"><title>Node5</title>
<g id="a_node5"><a xlink:href="structLuaTable.html" target="_top" xlink:title="LuaTable">
<polygon fill="white" stroke="black" points="70,-68.5 70,-87.5 126,-87.5 126,-68.5 70,-68.5"/>
<text text-anchor="middle" x="98" y="-75.5" font-family="Helvetica,sans-Serif" font-size="10.00">LuaTable</text>
</a>
</g>
</g>
<!-- Node3&#45;&gt;Node5 -->
<g id="edge6" class="edge"><title>Node3&#45;&gt;Node5</title>
<path fill="none" stroke="#9a32cd" stroke-dasharray="5,2" d="M71.9165,-127.757C74.009,-124.554 76.1173,-121.206 78,-118 84.0104,-107.764 90.1224,-95.5207 93.9802,-87.5178"/>
<polygon fill="#9a32cd" stroke="#9a32cd" points="68.939,-125.913 66.2616,-136.164 74.7472,-129.82 68.939,-125.913"/>
<text text-anchor="middle" x="104" y="-109.5" font-family="Helvetica,sans-Serif" font-size="10.00"> filename</text>
</g>
<!-- Node4 -->
<g id="node4" class="node"><title>Node4</title>
<g id="a_node4"><a xlink:title="STL class. ">
<polygon fill="white" stroke="#bfbfbf" points="7,-194.5 7,-213.5 113,-213.5 113,-194.5 7,-194.5"/>
<text text-anchor="middle" x="60" y="-201.5" font-family="Helvetica,sans-Serif" font-size="10.00">basic_string&lt; char &gt;</text>
</a>
</g>
</g>
<!-- Node4&#45;&gt;Node3 -->
<g id="edge4" class="edge"><title>Node4&#45;&gt;Node3</title>
<path fill="none" stroke="midnightblue" d="M60,-183.953C60,-174.287 60,-163.031 60,-155.505"/>
<polygon fill="midnightblue" stroke="midnightblue" points="56.5001,-184.25 60,-194.25 63.5001,-184.25 56.5001,-184.25"/>
</g>
<!-- Node5&#45;&gt;Node1 -->
<g id="edge5" class="edge"><title>Node5&#45;&gt;Node1</title>
<path fill="none" stroke="#9a32cd" stroke-dasharray="5,2" d="M89.093,-59.1859C82.7261,-46.4523 74.4304,-29.8607 69.4206,-19.8411"/>
<polygon fill="#9a32cd" stroke="#9a32cd" points="86.0831,-60.9926 93.6858,-68.3717 92.3441,-57.8621 86.0831,-60.9926"/>
<text text-anchor="middle" x="104" y="-41.5" font-family="Helvetica,sans-Serif" font-size="10.00"> luaTable</text>
</g>
</g>
</svg>
