<?xml version="1.0" encoding="UTF-8" standalone="no"?>
<!DOCTYPE svg PUBLIC "-//W3C//DTD SVG 1.1//EN"
 "http://www.w3.org/Graphics/SVG/1.1/DTD/svg11.dtd">
<!-- Generated by graphviz version 2.36.0 (20140111.2315)
 -->
<!-- Title: JointDataComposite Pages: 1 -->
<svg width="724pt" height="187pt"
 viewBox="0.00 0.00 724.00 187.00" xmlns="http://www.w3.org/2000/svg" xmlns:xlink="http://www.w3.org/1999/xlink">
<g id="graph0" class="graph" transform="scale(1 1) rotate(0) translate(4 183)">
<title>JointDataComposite</title>
<polygon fill="white" stroke="none" points="-4,4 -4,-183 720,-183 720,4 -4,4"/>
<!-- Node1 -->
<g id="node1" class="node"><title>Node1</title>
<polygon fill="#bfbfbf" stroke="black" points="610,-78.5 610,-97.5 716,-97.5 716,-78.5 610,-78.5"/>
<text text-anchor="middle" x="663" y="-85.5" font-family="Helvetica,sans-Serif" font-size="10.00">JointDataComposite</text>
</g>
<!-- Node2 -->
<g id="node2" class="node"><title>Node2</title>
<g id="a_node2"><a xlink:href="structse3_1_1JointDataBase.html" target="_top" xlink:title="JointDataBase\&lt; JointData\lComposite \&gt;">
<polygon fill="white" stroke="black" points="392,-147 392,-177 524,-177 524,-147 392,-147"/>
<text text-anchor="start" x="400" y="-165" font-family="Helvetica,sans-Serif" font-size="10.00">JointDataBase&lt; JointData</text>
<text text-anchor="middle" x="458" y="-154" font-family="Helvetica,sans-Serif" font-size="10.00">Composite &gt;</text>
</a>
</g>
</g>
<!-- Node2&#45;&gt;Node1 -->
<g id="edge1" class="edge"><title>Node2&#45;&gt;Node1</title>
<path fill="none" stroke="midnightblue" d="M510.495,-143.541C535.173,-134.663 565.138,-123.836 592,-114 606.73,-108.606 623.174,-102.503 636.421,-97.5657"/>
<polygon fill="midnightblue" stroke="midnightblue" points="509.193,-140.29 500.967,-146.967 511.561,-146.877 509.193,-140.29"/>
</g>
<!-- Node3 -->
<g id="node3" class="node"><title>Node3</title>
<g id="a_node3"><a xlink:href="structse3_1_1traits_3_01JointDataComposite_01_4.html" target="_top" xlink:title="traits\&lt; JointDataComposite \&gt;">
<polygon fill="white" stroke="black" points="121,-159.5 121,-178.5 267,-178.5 267,-159.5 121,-159.5"/>
<text text-anchor="middle" x="194" y="-166.5" font-family="Helvetica,sans-Serif" font-size="10.00">traits&lt; JointDataComposite &gt;</text>
</a>
</g>
</g>
<!-- Node3&#45;&gt;Node2 -->
<g id="edge2" class="edge"><title>Node3&#45;&gt;Node2</title>
<path fill="none" stroke="#9a32cd" stroke-dasharray="5,2" d="M277.503,-166.796C314.33,-165.812 357.109,-164.669 391.666,-163.746"/>
<polygon fill="#9a32cd" stroke="#9a32cd" points="277.189,-163.303 267.286,-167.069 277.376,-170.3 277.189,-163.303"/>
<text text-anchor="middle" x="325" y="-169" font-family="Helvetica,sans-Serif" font-size="10.00"> JointDerived</text>
</g>
<!-- Node4 -->
<g id="node4" class="node"><title>Node4</title>
<g id="a_node4"><a xlink:href="classse3_1_1container_1_1aligned__vector.html" target="_top" xlink:title="aligned_vector\&lt; Transformation_t \&gt;">
<polygon fill="white" stroke="black" points="372.5,-101.5 372.5,-120.5 543.5,-120.5 543.5,-101.5 372.5,-101.5"/>
<text text-anchor="middle" x="458" y="-108.5" font-family="Helvetica,sans-Serif" font-size="10.00">aligned_vector&lt; Transformation_t &gt;</text>
</a>
</g>
</g>
<!-- Node4&#45;&gt;Node1 -->
<g id="edge3" class="edge"><title>Node4&#45;&gt;Node1</title>
<path fill="none" stroke="#9a32cd" stroke-dasharray="5,2" d="M553.2,-100.327C572.735,-98.1138 592.632,-95.8594 609.978,-93.8941"/>
<polygon fill="#9a32cd" stroke="#9a32cd" points="552.576,-96.8754 543.033,-101.479 553.364,-103.831 552.576,-96.8754"/>
<text text-anchor="middle" x="577" y="-102" font-family="Helvetica,sans-Serif" font-size="10.00"> iMlast</text>
</g>
<!-- Node5 -->
<g id="node5" class="node"><title>Node5</title>
<g id="a_node5"><a xlink:title="STL class. ">
<polygon fill="white" stroke="#bfbfbf" points="127,-99.5 127,-140.5 261,-140.5 261,-99.5 127,-99.5"/>
<text text-anchor="start" x="135" y="-128.5" font-family="Helvetica,sans-Serif" font-size="10.00">vector&lt; Transformation</text>
<text text-anchor="start" x="135" y="-117.5" font-family="Helvetica,sans-Serif" font-size="10.00">_t, Eigen::aligned_allocator</text>
<text text-anchor="middle" x="194" y="-106.5" font-family="Helvetica,sans-Serif" font-size="10.00">&lt; Transformation_t &gt; &gt;</text>
</a>
</g>
</g>
<!-- Node5&#45;&gt;Node4 -->
<g id="edge4" class="edge"><title>Node5&#45;&gt;Node4</title>
<path fill="none" stroke="midnightblue" d="M271.18,-117.383C302.782,-116.298 339.578,-115.034 372.049,-113.918"/>
<polygon fill="midnightblue" stroke="midnightblue" points="270.988,-113.888 261.114,-117.729 271.228,-120.883 270.988,-113.888"/>
</g>
<!-- Node6 -->
<g id="node6" class="node"><title>Node6</title>
<polygon fill="white" stroke="#bfbfbf" points="0.5,-83.5 0.5,-102.5 29.5,-102.5 29.5,-83.5 0.5,-83.5"/>
<text text-anchor="middle" x="15" y="-90.5" font-family="Helvetica,sans-Serif" font-size="10.00">T</text>
</g>
<!-- Node6&#45;&gt;Node5 -->
<g id="edge5" class="edge"><title>Node6&#45;&gt;Node5</title>
<path fill="none" stroke="#9a32cd" stroke-dasharray="5,2" d="M39.7655,-96.6252C62.0187,-100.02 96.3251,-105.253 126.84,-109.908"/>
<polygon fill="#9a32cd" stroke="#9a32cd" points="40.0085,-93.1219 29.595,-95.0738 38.9528,-100.042 40.0085,-93.1219"/>
<text text-anchor="middle" x="70" y="-107" font-family="Helvetica,sans-Serif" font-size="10.00"> elements</text>
</g>
<!-- Node10 -->
<g id="node10" class="node"><title>Node10</title>
<g id="a_node10"><a xlink:title="STL class. ">
<polygon fill="white" stroke="#bfbfbf" points="130,-39.5 130,-80.5 258,-80.5 258,-39.5 130,-39.5"/>
<text text-anchor="start" x="138" y="-68.5" font-family="Helvetica,sans-Serif" font-size="10.00">vector&lt; JointDataVariant,</text>
<text text-anchor="start" x="138" y="-57.5" font-family="Helvetica,sans-Serif" font-size="10.00"> Eigen::aligned_allocator</text>
<text text-anchor="middle" x="194" y="-46.5" font-family="Helvetica,sans-Serif" font-size="10.00">&lt; JointDataVariant &gt; &gt;</text>
</a>
</g>
</g>
<!-- Node6&#45;&gt;Node10 -->
<g id="edge10" class="edge"><title>Node6&#45;&gt;Node10</title>
<path fill="none" stroke="#9a32cd" stroke-dasharray="5,2" d="M39.5285,-86.0657C42.3712,-85.3219 45.2433,-84.6138 48,-84 74.6495,-78.0659 104.353,-72.8995 129.902,-68.8959"/>
<polygon fill="#9a32cd" stroke="#9a32cd" points="38.3212,-82.7683 29.6194,-88.8122 40.1909,-89.514 38.3212,-82.7683"/>
<text text-anchor="middle" x="70" y="-87" font-family="Helvetica,sans-Serif" font-size="10.00"> elements</text>
</g>
<!-- Node7 -->
<g id="node7" class="node"><title>Node7</title>
<g id="a_node7"><a xlink:href="structse3_1_1JointDataBase.html" target="_top" xlink:title="JointDataBase\&lt; se3\l::JointDataComposite \&gt;">
<polygon fill="white" stroke="black" points="397.5,-0 397.5,-30 518.5,-30 518.5,-0 397.5,-0"/>
<text text-anchor="start" x="405.5" y="-18" font-family="Helvetica,sans-Serif" font-size="10.00">JointDataBase&lt; se3</text>
<text text-anchor="middle" x="458" y="-7" font-family="Helvetica,sans-Serif" font-size="10.00">::JointDataComposite &gt;</text>
</a>
</g>
</g>
<!-- Node7&#45;&gt;Node1 -->
<g id="edge6" class="edge"><title>Node7&#45;&gt;Node1</title>
<path fill="none" stroke="#9a32cd" stroke-dasharray="5,2" d="M521.698,-33.0068C544.096,-39.909 569.379,-48.2436 592,-57 608.981,-63.5732 627.835,-71.9891 641.693,-78.393"/>
<polygon fill="#9a32cd" stroke="#9a32cd" points="522.548,-29.607 511.962,-30.04 520.508,-36.303 522.548,-29.607"/>
<text text-anchor="middle" x="577" y="-60" font-family="Helvetica,sans-Serif" font-size="10.00"> Base</text>
</g>
<!-- Node8 -->
<g id="node8" class="node"><title>Node8</title>
<g id="a_node8"><a xlink:href="structse3_1_1traits.html" target="_top" xlink:title="traits\&lt; se3::JointDataComposite \&gt;">
<polygon fill="white" stroke="black" points="110.5,-1.5 110.5,-20.5 277.5,-20.5 277.5,-1.5 110.5,-1.5"/>
<text text-anchor="middle" x="194" y="-8.5" font-family="Helvetica,sans-Serif" font-size="10.00">traits&lt; se3::JointDataComposite &gt;</text>
</a>
</g>
</g>
<!-- Node8&#45;&gt;Node7 -->
<g id="edge7" class="edge"><title>Node8&#45;&gt;Node7</title>
<path fill="none" stroke="#9a32cd" stroke-dasharray="5,2" d="M287.691,-12.4151C324.128,-12.9714 364.902,-13.5939 397.304,-14.0886"/>
<polygon fill="#9a32cd" stroke="#9a32cd" points="287.591,-8.91329 277.539,-12.2601 287.484,-15.9125 287.591,-8.91329"/>
<text text-anchor="middle" x="325" y="-17" font-family="Helvetica,sans-Serif" font-size="10.00"> JointDerived</text>
</g>
<!-- Node9 -->
<g id="node9" class="node"><title>Node9</title>
<g id="a_node9"><a xlink:href="classse3_1_1container_1_1aligned__vector.html" target="_top" xlink:title="aligned_vector\&lt; JointData\lVariant \&gt;">
<polygon fill="white" stroke="black" points="392.5,-51 392.5,-81 523.5,-81 523.5,-51 392.5,-51"/>
<text text-anchor="start" x="400.5" y="-69" font-family="Helvetica,sans-Serif" font-size="10.00">aligned_vector&lt; JointData</text>
<text text-anchor="middle" x="458" y="-58" font-family="Helvetica,sans-Serif" font-size="10.00">Variant &gt;</text>
</a>
</g>
</g>
<!-- Node9&#45;&gt;Node1 -->
<g id="edge8" class="edge"><title>Node9&#45;&gt;Node1</title>
<path fill="none" stroke="#9a32cd" stroke-dasharray="5,2" d="M533.851,-69.5365C552.86,-70.8538 573.218,-72.6286 592,-75 599.358,-75.929 607.112,-77.1366 614.672,-78.4413"/>
<polygon fill="#9a32cd" stroke="#9a32cd" points="533.958,-66.036 523.749,-68.8697 533.497,-73.0208 533.958,-66.036"/>
<text text-anchor="middle" x="577" y="-78" font-family="Helvetica,sans-Serif" font-size="10.00"> joints</text>
</g>
<!-- Node10&#45;&gt;Node9 -->
<g id="edge9" class="edge"><title>Node10&#45;&gt;Node9</title>
<path fill="none" stroke="midnightblue" d="M268.305,-61.6787C307.219,-62.5699 354.622,-63.6555 392.181,-64.5156"/>
<polygon fill="midnightblue" stroke="midnightblue" points="268.166,-58.1747 258.089,-61.4448 268.006,-65.1729 268.166,-58.1747"/>
</g>
</g>
</svg>
