<?xml version="1.0" encoding="UTF-8" standalone="no"?>
<!DOCTYPE svg PUBLIC "-//W3C//DTD SVG 1.1//EN"
 "http://www.w3.org/Graphics/SVG/1.1/DTD/svg11.dtd">
<!-- Generated by graphviz version 2.36.0 (20140111.2315)
 -->
<!-- Title: JointModel Pages: 1 -->
<svg width="273pt" height="154pt"
 viewBox="0.00 0.00 273.00 154.00" xmlns="http://www.w3.org/2000/svg" xmlns:xlink="http://www.w3.org/1999/xlink">
<g id="graph0" class="graph" transform="scale(1 1) rotate(0) translate(4 150)">
<title>JointModel</title>
<polygon fill="white" stroke="none" points="-4,4 -4,-150 269,-150 269,4 -4,4"/>
<!-- Node1 -->
<g id="node1" class="node"><title>Node1</title>
<polygon fill="#bfbfbf" stroke="black" points="150,-0.5 150,-19.5 214,-19.5 214,-0.5 150,-0.5"/>
<text text-anchor="middle" x="182" y="-7.5" font-family="Helvetica,sans-Serif" font-size="10.00">JointModel</text>
</g>
<!-- Node2 -->
<g id="node2" class="node"><title>Node2</title>
<g id="a_node2"><a xlink:href="structse3_1_1JointModelBase.html" target="_top" xlink:title="JointModelBase\&lt; JointModel \&gt;">
<polygon fill="white" stroke="black" points="0,-58.5 0,-77.5 152,-77.5 152,-58.5 0,-58.5"/>
<text text-anchor="middle" x="76" y="-65.5" font-family="Helvetica,sans-Serif" font-size="10.00">JointModelBase&lt; JointModel &gt;</text>
</a>
</g>
</g>
<!-- Node2&#45;&gt;Node1 -->
<g id="edge1" class="edge"><title>Node2&#45;&gt;Node1</title>
<path fill="none" stroke="midnightblue" d="M100.975,-53.8058C120.99,-43.2319 148.49,-28.7035 165.749,-19.5852"/>
<polygon fill="midnightblue" stroke="midnightblue" points="99.3061,-50.7289 92.0991,-58.4948 102.576,-56.9182 99.3061,-50.7289"/>
</g>
<!-- Node3 -->
<g id="node3" class="node"><title>Node3</title>
<g id="a_node3"><a xlink:href="structse3_1_1traits_3_01JointModel_01_4.html" target="_top" xlink:title="traits\&lt; JointModel \&gt;">
<polygon fill="white" stroke="black" points="24,-126.5 24,-145.5 128,-145.5 128,-126.5 24,-126.5"/>
<text text-anchor="middle" x="76" y="-133.5" font-family="Helvetica,sans-Serif" font-size="10.00">traits&lt; JointModel &gt;</text>
</a>
</g>
</g>
<!-- Node3&#45;&gt;Node2 -->
<g id="edge2" class="edge"><title>Node3&#45;&gt;Node2</title>
<path fill="none" stroke="#9a32cd" stroke-dasharray="5,2" d="M76,-116.041C76,-103.472 76,-87.5631 76,-77.8411"/>
<polygon fill="#9a32cd" stroke="#9a32cd" points="72.5001,-116.372 76,-126.372 79.5001,-116.372 72.5001,-116.372"/>
<text text-anchor="middle" x="105" y="-99.5" font-family="Helvetica,sans-Serif" font-size="10.00"> JointDerived</text>
</g>
<!-- Node4 -->
<g id="node4" class="node"><title>Node4</title>
<polygon fill="white" stroke="#bfbfbf" points="170.5,-58.5 170.5,-77.5 265.5,-77.5 265.5,-58.5 170.5,-58.5"/>
<text text-anchor="middle" x="218" y="-65.5" font-family="Helvetica,sans-Serif" font-size="10.00">JointModelVariant</text>
</g>
<!-- Node4&#45;&gt;Node1 -->
<g id="edge3" class="edge"><title>Node4&#45;&gt;Node1</title>
<path fill="none" stroke="midnightblue" d="M206.957,-49.8224C200.496,-39.7716 192.621,-27.522 187.468,-19.5052"/>
<polygon fill="midnightblue" stroke="midnightblue" points="204.023,-51.7309 212.375,-58.25 209.912,-47.9455 204.023,-51.7309"/>
</g>
</g>
</svg>
