<?xml version="1.0" encoding="UTF-8" standalone="no"?>
<!DOCTYPE svg PUBLIC "-//W3C//DTD SVG 1.1//EN"
 "http://www.w3.org/Graphics/SVG/1.1/DTD/svg11.dtd">
<!-- Generated by graphviz version 2.36.0 (20140111.2315)
 -->
<!-- Title: Data Pages: 1 -->
<svg width="626pt" height="617pt"
 viewBox="0.00 0.00 626.00 617.01" xmlns="http://www.w3.org/2000/svg" xmlns:xlink="http://www.w3.org/1999/xlink">
<g id="graph0" class="graph" transform="scale(1 1) rotate(0) translate(4 613.01)">
<title>Data</title>
<polygon fill="white" stroke="none" points="-4,4 -4,-613.01 622,-613.01 622,4 -4,4"/>
<!-- Node1 -->
<g id="node1" class="node"><title>Node1</title>
<polygon fill="#bfbfbf" stroke="black" points="580,-247.51 580,-266.51 618,-266.51 618,-247.51 580,-247.51"/>
<text text-anchor="middle" x="599" y="-254.51" font-family="Helvetica,sans-Serif" font-size="10.00">Data</text>
</g>
<!-- Node2 -->
<g id="node2" class="node"><title>Node2</title>
<g id="a_node2"><a xlink:href="classse3_1_1container_1_1aligned__vector.html" target="_top" xlink:title="aligned_vector\&lt; Matrix6x \&gt;">
<polygon fill="white" stroke="black" points="316.5,-549.51 316.5,-568.51 451.5,-568.51 451.5,-549.51 316.5,-549.51"/>
<text text-anchor="middle" x="384" y="-556.51" font-family="Helvetica,sans-Serif" font-size="10.00">aligned_vector&lt; Matrix6x &gt;</text>
</a>
</g>
</g>
<!-- Node2&#45;&gt;Node1 -->
<g id="edge1" class="edge"><title>Node2&#45;&gt;Node1</title>
<path fill="none" stroke="#9a32cd" stroke-dasharray="5,2" d="M462.058,-560.535C497.384,-557.012 536.892,-546.367 562,-519.01 596.693,-481.208 598.248,-309.712 598.084,-266.778"/>
<polygon fill="#9a32cd" stroke="#9a32cd" points="461.418,-557.075 451.737,-561.379 461.989,-564.052 461.418,-557.075"/>
<text text-anchor="middle" x="517" y="-561.01" font-family="Helvetica,sans-Serif" font-size="10.00"> Fcrb</text>
</g>
<!-- Node3 -->
<g id="node3" class="node"><title>Node3</title>
<g id="a_node3"><a xlink:title="STL class. ">
<polygon fill="white" stroke="#bfbfbf" points="110,-579.01 110,-609.01 270,-609.01 270,-579.01 110,-579.01"/>
<text text-anchor="start" x="118" y="-597.01" font-family="Helvetica,sans-Serif" font-size="10.00">vector&lt; Matrix6x, Eigen</text>
<text text-anchor="middle" x="190" y="-586.01" font-family="Helvetica,sans-Serif" font-size="10.00">::aligned_allocator&lt; Matrix6x &gt; &gt;</text>
</a>
</g>
</g>
<!-- Node3&#45;&gt;Node2 -->
<g id="edge2" class="edge"><title>Node3&#45;&gt;Node2</title>
<path fill="none" stroke="midnightblue" d="M280.337,-577.724C297.635,-574.571 315.223,-571.365 330.84,-568.518"/>
<polygon fill="midnightblue" stroke="midnightblue" points="279.412,-574.335 270.202,-579.572 280.668,-581.222 279.412,-574.335"/>
</g>
<!-- Node4 -->
<g id="node4" class="node"><title>Node4</title>
<polygon fill="white" stroke="#bfbfbf" points="0.5,-367.51 0.5,-386.51 29.5,-386.51 29.5,-367.51 0.5,-367.51"/>
<text text-anchor="middle" x="15" y="-374.51" font-family="Helvetica,sans-Serif" font-size="10.00">T</text>
</g>
<!-- Node4&#45;&gt;Node3 -->
<g id="edge3" class="edge"><title>Node4&#45;&gt;Node3</title>
<path fill="none" stroke="#9a32cd" stroke-dasharray="5,2" d="M17.193,-397.076C19.5915,-424.504 26.7538,-474.461 48,-511.01 66.9636,-543.631 77.4297,-549.958 110,-569.01 116.457,-572.787 123.55,-576.061 130.755,-578.88"/>
<polygon fill="#9a32cd" stroke="#9a32cd" points="20.6613,-396.519 16.4296,-386.806 13.6806,-397.037 20.6613,-396.519"/>
<text text-anchor="middle" x="70" y="-560.01" font-family="Helvetica,sans-Serif" font-size="10.00"> elements</text>
</g>
<!-- Node6 -->
<g id="node6" class="node"><title>Node6</title>
<g id="a_node6"><a xlink:title="STL class. ">
<polygon fill="white" stroke="#bfbfbf" points="128.5,-519.51 128.5,-560.51 251.5,-560.51 251.5,-519.51 128.5,-519.51"/>
<text text-anchor="start" x="136.5" y="-548.51" font-family="Helvetica,sans-Serif" font-size="10.00">vector&lt; JointData,</text>
<text text-anchor="start" x="136.5" y="-537.51" font-family="Helvetica,sans-Serif" font-size="10.00"> Eigen::aligned_allocator</text>
<text text-anchor="middle" x="190" y="-526.51" font-family="Helvetica,sans-Serif" font-size="10.00">&lt; JointData &gt; &gt;</text>
</a>
</g>
</g>
<!-- Node4&#45;&gt;Node6 -->
<g id="edge6" class="edge"><title>Node4&#45;&gt;Node6</title>
<path fill="none" stroke="#9a32cd" stroke-dasharray="5,2" d="M23.1381,-396.433C28.7926,-410.555 37.4787,-429.784 48,-445.01 70.5144,-477.59 77.0396,-487.055 110,-509.01 115.763,-512.848 122.073,-516.323 128.535,-519.437"/>
<polygon fill="#9a32cd" stroke="#9a32cd" points="26.2818,-394.856 19.4247,-386.78 19.7485,-397.37 26.2818,-394.856"/>
<text text-anchor="middle" x="70" y="-499.01" font-family="Helvetica,sans-Serif" font-size="10.00"> elements</text>
</g>
<!-- Node8 -->
<g id="node8" class="node"><title>Node8</title>
<g id="a_node8"><a xlink:title="STL class. ">
<polygon fill="white" stroke="#bfbfbf" points="125,-448.01 125,-500.01 255,-500.01 255,-448.01 125,-448.01"/>
<text text-anchor="start" x="133" y="-488.01" font-family="Helvetica,sans-Serif" font-size="10.00">vector&lt; se3::InertiaTpl</text>
<text text-anchor="start" x="133" y="-477.01" font-family="Helvetica,sans-Serif" font-size="10.00">::Matrix6, Eigen::aligned</text>
<text text-anchor="start" x="133" y="-466.01" font-family="Helvetica,sans-Serif" font-size="10.00">_allocator&lt; se3::InertiaTpl</text>
<text text-anchor="middle" x="190" y="-455.01" font-family="Helvetica,sans-Serif" font-size="10.00">::Matrix6 &gt; &gt;</text>
</a>
</g>
</g>
<!-- Node4&#45;&gt;Node8 -->
<g id="edge9" class="edge"><title>Node4&#45;&gt;Node8</title>
<path fill="none" stroke="#9a32cd" stroke-dasharray="5,2" d="M33.4447,-393.621C38.0074,-397.581 43.0418,-401.635 48,-405.01 72.2187,-421.495 100.961,-436.302 126.156,-447.934"/>
<polygon fill="#9a32cd" stroke="#9a32cd" points="35.623,-390.871 25.8596,-386.757 30.9263,-396.062 35.623,-390.871"/>
<text text-anchor="middle" x="70" y="-433.01" font-family="Helvetica,sans-Serif" font-size="10.00"> elements</text>
</g>
<!-- Node10 -->
<g id="node10" class="node"><title>Node10</title>
<g id="a_node10"><a xlink:title="STL class. ">
<polygon fill="white" stroke="#bfbfbf" points="128.5,-387.51 128.5,-428.51 251.5,-428.51 251.5,-387.51 128.5,-387.51"/>
<text text-anchor="start" x="136.5" y="-416.51" font-family="Helvetica,sans-Serif" font-size="10.00">vector&lt; se3::ForceTpl,</text>
<text text-anchor="start" x="136.5" y="-405.51" font-family="Helvetica,sans-Serif" font-size="10.00"> Eigen::aligned_allocator</text>
<text text-anchor="middle" x="190" y="-394.51" font-family="Helvetica,sans-Serif" font-size="10.00">&lt; se3::ForceTpl &gt; &gt;</text>
</a>
</g>
</g>
<!-- Node4&#45;&gt;Node10 -->
<g id="edge12" class="edge"><title>Node4&#45;&gt;Node10</title>
<path fill="none" stroke="#9a32cd" stroke-dasharray="5,2" d="M39.6418,-381.246C62.36,-385.317 97.6524,-391.641 128.227,-397.12"/>
<polygon fill="#9a32cd" stroke="#9a32cd" points="40.0356,-377.761 29.575,-379.442 38.8009,-384.651 40.0356,-377.761"/>
<text text-anchor="middle" x="70" y="-393.01" font-family="Helvetica,sans-Serif" font-size="10.00"> elements</text>
</g>
<!-- Node12 -->
<g id="node12" class="node"><title>Node12</title>
<g id="a_node12"><a xlink:title="STL class. ">
<polygon fill="white" stroke="#bfbfbf" points="127.5,-327.51 127.5,-368.51 252.5,-368.51 252.5,-327.51 127.5,-327.51"/>
<text text-anchor="start" x="135.5" y="-356.51" font-family="Helvetica,sans-Serif" font-size="10.00">vector&lt; Eigen::Vector3d,</text>
<text text-anchor="start" x="135.5" y="-345.51" font-family="Helvetica,sans-Serif" font-size="10.00"> Eigen::aligned_allocator</text>
<text text-anchor="middle" x="190" y="-334.51" font-family="Helvetica,sans-Serif" font-size="10.00">&lt; Eigen::Vector3d &gt; &gt;</text>
</a>
</g>
</g>
<!-- Node4&#45;&gt;Node12 -->
<g id="edge15" class="edge"><title>Node4&#45;&gt;Node12</title>
<path fill="none" stroke="#9a32cd" stroke-dasharray="5,2" d="M39.5149,-370.013C42.36,-369.28 45.2364,-368.592 48,-368.01 73.7662,-362.584 102.497,-358.211 127.266,-354.954"/>
<polygon fill="#9a32cd" stroke="#9a32cd" points="38.3106,-366.714 29.6041,-372.751 40.1751,-373.461 38.3106,-366.714"/>
<text text-anchor="middle" x="70" y="-371.01" font-family="Helvetica,sans-Serif" font-size="10.00"> elements</text>
</g>
<!-- Node14 -->
<g id="node14" class="node"><title>Node14</title>
<g id="a_node14"><a xlink:title="STL class. ">
<polygon fill="white" stroke="#bfbfbf" points="128.5,-267.51 128.5,-308.51 251.5,-308.51 251.5,-267.51 128.5,-267.51"/>
<text text-anchor="start" x="136.5" y="-296.51" font-family="Helvetica,sans-Serif" font-size="10.00">vector&lt; se3::SE3Tpl,</text>
<text text-anchor="start" x="136.5" y="-285.51" font-family="Helvetica,sans-Serif" font-size="10.00"> Eigen::aligned_allocator</text>
<text text-anchor="middle" x="190" y="-274.51" font-family="Helvetica,sans-Serif" font-size="10.00">&lt; se3::SE3Tpl &gt; &gt;</text>
</a>
</g>
</g>
<!-- Node4&#45;&gt;Node14 -->
<g id="edge18" class="edge"><title>Node4&#45;&gt;Node14</title>
<path fill="none" stroke="#9a32cd" stroke-dasharray="5,2" d="M31.3458,-360.047C36.3417,-355.124 42.1222,-350.004 48,-346.01 72.4105,-329.422 102.305,-316.281 128.276,-306.731"/>
<polygon fill="#9a32cd" stroke="#9a32cd" points="28.6515,-357.799 24.2396,-367.432 33.6955,-362.653 28.6515,-357.799"/>
<text text-anchor="middle" x="70" y="-349.01" font-family="Helvetica,sans-Serif" font-size="10.00"> elements</text>
</g>
<!-- Node19 -->
<g id="node19" class="node"><title>Node19</title>
<g id="a_node19"><a xlink:title="STL class. ">
<polygon fill="white" stroke="#bfbfbf" points="128.5,-207.51 128.5,-248.51 251.5,-248.51 251.5,-207.51 128.5,-207.51"/>
<text text-anchor="start" x="136.5" y="-236.51" font-family="Helvetica,sans-Serif" font-size="10.00">vector&lt; se3::MotionTpl,</text>
<text text-anchor="start" x="136.5" y="-225.51" font-family="Helvetica,sans-Serif" font-size="10.00"> Eigen::aligned_allocator</text>
<text text-anchor="middle" x="190" y="-214.51" font-family="Helvetica,sans-Serif" font-size="10.00">&lt; se3::MotionTpl &gt; &gt;</text>
</a>
</g>
</g>
<!-- Node4&#45;&gt;Node19 -->
<g id="edge24" class="edge"><title>Node4&#45;&gt;Node19</title>
<path fill="none" stroke="#9a32cd" stroke-dasharray="5,2" d="M22.1018,-357.49C27.3796,-342.641 36.0512,-322.236 48,-307.01 69.6831,-279.379 79.4483,-275.335 110,-258.01 115.998,-254.608 122.456,-251.445 129.004,-248.546"/>
<polygon fill="#9a32cd" stroke="#9a32cd" points="18.7178,-356.573 18.8603,-367.167 25.3553,-358.797 18.7178,-356.573"/>
<text text-anchor="middle" x="70" y="-310.01" font-family="Helvetica,sans-Serif" font-size="10.00"> elements</text>
</g>
<!-- Node25 -->
<g id="node25" class="node"><title>Node25</title>
<g id="a_node25"><a xlink:title="STL class. ">
<polygon fill="white" stroke="#bfbfbf" points="128.5,-147.51 128.5,-188.51 251.5,-188.51 251.5,-147.51 128.5,-147.51"/>
<text text-anchor="start" x="136.5" y="-176.51" font-family="Helvetica,sans-Serif" font-size="10.00">vector&lt; se3::InertiaTpl,</text>
<text text-anchor="start" x="136.5" y="-165.51" font-family="Helvetica,sans-Serif" font-size="10.00"> Eigen::aligned_allocator</text>
<text text-anchor="middle" x="190" y="-154.51" font-family="Helvetica,sans-Serif" font-size="10.00">&lt; se3::InertiaTpl &gt; &gt;</text>
</a>
</g>
</g>
<!-- Node4&#45;&gt;Node25 -->
<g id="edge31" class="edge"><title>Node4&#45;&gt;Node25</title>
<path fill="none" stroke="#9a32cd" stroke-dasharray="5,2" d="M17.644,-357.09C20.5078,-331.569 28.1488,-286.727 48,-254.01 67.2612,-222.264 78.3202,-217.379 110,-198.01 115.758,-194.489 121.997,-191.266 128.359,-188.345"/>
<polygon fill="#9a32cd" stroke="#9a32cd" points="14.1313,-357.049 16.6377,-367.343 21.0978,-357.733 14.1313,-357.049"/>
<text text-anchor="middle" x="70" y="-257.01" font-family="Helvetica,sans-Serif" font-size="10.00"> elements</text>
</g>
<!-- Node5 -->
<g id="node5" class="node"><title>Node5</title>
<g id="a_node5"><a xlink:href="classse3_1_1container_1_1aligned__vector.html" target="_top" xlink:title="aligned_vector\&lt; JointData \&gt;">
<polygon fill="white" stroke="black" points="314,-503.51 314,-522.51 454,-522.51 454,-503.51 314,-503.51"/>
<text text-anchor="middle" x="384" y="-510.51" font-family="Helvetica,sans-Serif" font-size="10.00">aligned_vector&lt; JointData &gt;</text>
</a>
</g>
</g>
<!-- Node5&#45;&gt;Node1 -->
<g id="edge4" class="edge"><title>Node5&#45;&gt;Node1</title>
<path fill="none" stroke="#9a32cd" stroke-dasharray="5,2" d="M463.994,-505.732C504.506,-500.334 548.19,-491.361 562,-477.01 591.586,-446.263 596.913,-305.267 597.822,-266.754"/>
<polygon fill="#9a32cd" stroke="#9a32cd" points="463.535,-502.262 454.057,-506.996 464.418,-509.206 463.535,-502.262"/>
<text text-anchor="middle" x="517" y="-507.01" font-family="Helvetica,sans-Serif" font-size="10.00"> joints</text>
</g>
<!-- Node6&#45;&gt;Node5 -->
<g id="edge5" class="edge"><title>Node6&#45;&gt;Node5</title>
<path fill="none" stroke="midnightblue" d="M261.876,-530.043C279.34,-527.587 297.998,-524.963 315.308,-522.529"/>
<polygon fill="midnightblue" stroke="midnightblue" points="261.165,-526.608 251.75,-531.467 262.14,-533.54 261.165,-526.608"/>
</g>
<!-- Node7 -->
<g id="node7" class="node"><title>Node7</title>
<g id="a_node7"><a xlink:href="classse3_1_1container_1_1aligned__vector.html" target="_top" xlink:title="aligned_vector\&lt; se3\l::InertiaTpl::Matrix6 \&gt;">
<polygon fill="white" stroke="black" points="329,-446.01 329,-476.01 439,-476.01 439,-446.01 329,-446.01"/>
<text text-anchor="start" x="337" y="-464.01" font-family="Helvetica,sans-Serif" font-size="10.00">aligned_vector&lt; se3</text>
<text text-anchor="middle" x="384" y="-453.01" font-family="Helvetica,sans-Serif" font-size="10.00">::InertiaTpl::Matrix6 &gt;</text>
</a>
</g>
</g>
<!-- Node7&#45;&gt;Node1 -->
<g id="edge7" class="edge"><title>Node7&#45;&gt;Node1</title>
<path fill="none" stroke="#9a32cd" stroke-dasharray="5,2" d="M449.666,-465.971C487.219,-465.213 532.744,-457.473 562,-429.01 585.616,-406.033 595.009,-299.38 597.368,-266.612"/>
<polygon fill="#9a32cd" stroke="#9a32cd" points="449.293,-462.472 439.306,-466.011 449.32,-469.472 449.293,-462.472"/>
<text text-anchor="middle" x="517" y="-468.01" font-family="Helvetica,sans-Serif" font-size="10.00"> Yaba</text>
</g>
<!-- Node8&#45;&gt;Node7 -->
<g id="edge8" class="edge"><title>Node8&#45;&gt;Node7</title>
<path fill="none" stroke="midnightblue" d="M265.428,-468.97C286.543,-467.541 309.126,-466.011 328.799,-464.679"/>
<polygon fill="midnightblue" stroke="midnightblue" points="264.941,-465.495 255.2,-469.663 265.414,-472.479 264.941,-465.495"/>
</g>
<!-- Node9 -->
<g id="node9" class="node"><title>Node9</title>
<g id="a_node9"><a xlink:href="classse3_1_1container_1_1aligned__vector.html" target="_top" xlink:title="aligned_vector\&lt; se3\l::ForceTpl \&gt;">
<polygon fill="white" stroke="black" points="332,-393.01 332,-423.01 436,-423.01 436,-393.01 332,-393.01"/>
<text text-anchor="start" x="340" y="-411.01" font-family="Helvetica,sans-Serif" font-size="10.00">aligned_vector&lt; se3</text>
<text text-anchor="middle" x="384" y="-400.01" font-family="Helvetica,sans-Serif" font-size="10.00">::ForceTpl &gt;</text>
</a>
</g>
</g>
<!-- Node9&#45;&gt;Node1 -->
<g id="edge10" class="edge"><title>Node9&#45;&gt;Node1</title>
<path fill="none" stroke="#9a32cd" stroke-dasharray="5,2" d="M446.712,-416.271C484.245,-417.779 530.799,-412.89 562,-386.01 598.112,-354.898 599.473,-290.892 598.583,-266.625"/>
<polygon fill="#9a32cd" stroke="#9a32cd" points="446.566,-412.757 436.385,-415.689 446.172,-419.746 446.566,-412.757"/>
<text text-anchor="middle" x="517" y="-420.01" font-family="Helvetica,sans-Serif" font-size="10.00"> f</text>
</g>
<!-- Node10&#45;&gt;Node9 -->
<g id="edge11" class="edge"><title>Node10&#45;&gt;Node9</title>
<path fill="none" stroke="midnightblue" d="M261.912,-408.01C285.157,-408.01 310.514,-408.01 331.989,-408.01"/>
<polygon fill="midnightblue" stroke="midnightblue" points="261.75,-404.51 251.75,-408.01 261.75,-411.51 261.75,-404.51"/>
</g>
<!-- Node11 -->
<g id="node11" class="node"><title>Node11</title>
<g id="a_node11"><a xlink:href="classse3_1_1container_1_1aligned__vector.html" target="_top" xlink:title="aligned_vector\&lt; Eigen\l::Vector3d \&gt;">
<polygon fill="white" stroke="black" points="327.5,-335.01 327.5,-365.01 440.5,-365.01 440.5,-335.01 327.5,-335.01"/>
<text text-anchor="start" x="335.5" y="-353.01" font-family="Helvetica,sans-Serif" font-size="10.00">aligned_vector&lt; Eigen</text>
<text text-anchor="middle" x="384" y="-342.01" font-family="Helvetica,sans-Serif" font-size="10.00">::Vector3d &gt;</text>
</a>
</g>
</g>
<!-- Node11&#45;&gt;Node1 -->
<g id="edge13" class="edge"><title>Node11&#45;&gt;Node1</title>
<path fill="none" stroke="#9a32cd" stroke-dasharray="5,2" d="M451.103,-353.575C486.824,-352.34 530.03,-345.421 562,-323.01 581.451,-309.374 591.441,-281.768 595.591,-266.948"/>
<polygon fill="#9a32cd" stroke="#9a32cd" points="450.689,-350.082 440.761,-353.783 450.83,-357.081 450.689,-350.082"/>
<text text-anchor="middle" x="517" y="-377.01" font-family="Helvetica,sans-Serif" font-size="10.00"> acom</text>
<text text-anchor="middle" x="517" y="-366.01" font-family="Helvetica,sans-Serif" font-size="10.00">com</text>
<text text-anchor="middle" x="517" y="-355.01" font-family="Helvetica,sans-Serif" font-size="10.00">vcom</text>
</g>
<!-- Node12&#45;&gt;Node11 -->
<g id="edge14" class="edge"><title>Node12&#45;&gt;Node11</title>
<path fill="none" stroke="midnightblue" d="M262.562,-348.755C283.966,-348.978 307.106,-349.219 327.328,-349.43"/>
<polygon fill="midnightblue" stroke="midnightblue" points="262.578,-345.255 252.542,-348.651 262.505,-352.255 262.578,-345.255"/>
</g>
<!-- Node13 -->
<g id="node13" class="node"><title>Node13</title>
<g id="a_node13"><a xlink:href="classse3_1_1container_1_1aligned__vector.html" target="_top" xlink:title="aligned_vector\&lt; se3\l::SE3Tpl \&gt;">
<polygon fill="white" stroke="black" points="332,-271.01 332,-301.01 436,-301.01 436,-271.01 332,-271.01"/>
<text text-anchor="start" x="340" y="-289.01" font-family="Helvetica,sans-Serif" font-size="10.00">aligned_vector&lt; se3</text>
<text text-anchor="middle" x="384" y="-278.01" font-family="Helvetica,sans-Serif" font-size="10.00">::SE3Tpl &gt;</text>
</a>
</g>
</g>
<!-- Node13&#45;&gt;Node1 -->
<g id="edge16" class="edge"><title>Node13&#45;&gt;Node1</title>
<path fill="none" stroke="#9a32cd" stroke-dasharray="5,2" d="M446.46,-278.574C480.543,-274.313 523.665,-268.693 562,-263.01 567.766,-262.155 574.037,-261.139 579.706,-260.189"/>
<polygon fill="#9a32cd" stroke="#9a32cd" points="445.68,-275.144 436.188,-279.852 446.544,-282.091 445.68,-275.144"/>
<text text-anchor="middle" x="517" y="-311.01" font-family="Helvetica,sans-Serif" font-size="10.00"> oMf</text>
<text text-anchor="middle" x="517" y="-300.01" font-family="Helvetica,sans-Serif" font-size="10.00">oMi</text>
<text text-anchor="middle" x="517" y="-289.01" font-family="Helvetica,sans-Serif" font-size="10.00">liMi</text>
<text text-anchor="middle" x="517" y="-278.01" font-family="Helvetica,sans-Serif" font-size="10.00">iMf</text>
</g>
<!-- Node14&#45;&gt;Node13 -->
<g id="edge17" class="edge"><title>Node14&#45;&gt;Node13</title>
<path fill="none" stroke="midnightblue" d="M261.912,-287.271C285.157,-287.029 310.514,-286.765 331.989,-286.541"/>
<polygon fill="midnightblue" stroke="midnightblue" points="261.713,-283.773 251.75,-287.377 261.786,-290.772 261.713,-283.773"/>
</g>
<!-- Node15 -->
<g id="node15" class="node"><title>Node15</title>
<g id="a_node15"><a xlink:href="classse3_1_1InertiaTpl.html" target="_top" xlink:title="InertiaTpl\&lt; double, 0 \&gt;">
<polygon fill="white" stroke="black" points="326.5,-122.51 326.5,-141.51 441.5,-141.51 441.5,-122.51 326.5,-122.51"/>
<text text-anchor="middle" x="384" y="-129.51" font-family="Helvetica,sans-Serif" font-size="10.00">InertiaTpl&lt; double, 0 &gt;</text>
</a>
</g>
</g>
<!-- Node15&#45;&gt;Node1 -->
<g id="edge19" class="edge"><title>Node15&#45;&gt;Node1</title>
<path fill="none" stroke="#9a32cd" stroke-dasharray="5,2" d="M451.757,-136.889C494.62,-141.282 545.283,-149.235 562,-163.01 588.299,-184.68 595.421,-227.877 597.322,-247.233"/>
<polygon fill="#9a32cd" stroke="#9a32cd" points="451.913,-133.388 441.621,-135.9 451.234,-140.355 451.913,-133.388"/>
<text text-anchor="middle" x="517" y="-166.01" font-family="Helvetica,sans-Serif" font-size="10.00"> Ig</text>
</g>
<!-- Node16 -->
<g id="node16" class="node"><title>Node16</title>
<g id="a_node16"><a xlink:href="classse3_1_1InertiaBase.html" target="_top" xlink:title="InertiaBase\&lt; InertiaTpl\l\&lt; double, _Options \&gt; \&gt;">
<polygon fill="white" stroke="black" points="131.5,-99.0096 131.5,-129.01 248.5,-129.01 248.5,-99.0096 131.5,-99.0096"/>
<text text-anchor="start" x="139.5" y="-117.01" font-family="Helvetica,sans-Serif" font-size="10.00">InertiaBase&lt; InertiaTpl</text>
<text text-anchor="middle" x="190" y="-106.01" font-family="Helvetica,sans-Serif" font-size="10.00">&lt; double, _Options &gt; &gt;</text>
</a>
</g>
</g>
<!-- Node16&#45;&gt;Node15 -->
<g id="edge20" class="edge"><title>Node16&#45;&gt;Node15</title>
<path fill="none" stroke="midnightblue" d="M258.615,-120.349C280.781,-122.427 305.165,-124.713 326.426,-126.706"/>
<polygon fill="midnightblue" stroke="midnightblue" points="258.889,-116.859 248.606,-119.41 258.236,-123.828 258.889,-116.859"/>
</g>
<!-- Node17 -->
<g id="node17" class="node"><title>Node17</title>
<g id="a_node17"><a xlink:href="classse3_1_1Symmetric3Tpl.html" target="_top" xlink:title="Symmetric3Tpl\&lt; double, 0 \&gt;">
<polygon fill="white" stroke="black" points="120,-60.5096 120,-79.5096 260,-79.5096 260,-60.5096 120,-60.5096"/>
<text text-anchor="middle" x="190" y="-67.5096" font-family="Helvetica,sans-Serif" font-size="10.00">Symmetric3Tpl&lt; double, 0 &gt;</text>
</a>
</g>
</g>
<!-- Node17&#45;&gt;Node15 -->
<g id="edge21" class="edge"><title>Node17&#45;&gt;Node15</title>
<path fill="none" stroke="#9a32cd" stroke-dasharray="5,2" d="M249.754,-82.3086C256.662,-84.2912 263.544,-86.5226 270,-89.0096 290.787,-97.0167 293.347,-104.664 314,-113.01 322.986,-116.641 332.901,-119.823 342.346,-122.493"/>
<polygon fill="#9a32cd" stroke="#9a32cd" points="250.228,-78.8113 239.661,-79.5813 248.402,-85.5689 250.228,-78.8113"/>
<text text-anchor="middle" x="292" y="-107.01" font-family="Helvetica,sans-Serif" font-size="10.00"> I</text>
</g>
<!-- Node18 -->
<g id="node18" class="node"><title>Node18</title>
<g id="a_node18"><a xlink:href="classse3_1_1container_1_1aligned__vector.html" target="_top" xlink:title="aligned_vector\&lt; se3\l::MotionTpl \&gt;">
<polygon fill="white" stroke="black" points="332,-214.01 332,-244.01 436,-244.01 436,-214.01 332,-214.01"/>
<text text-anchor="start" x="340" y="-232.01" font-family="Helvetica,sans-Serif" font-size="10.00">aligned_vector&lt; se3</text>
<text text-anchor="middle" x="384" y="-221.01" font-family="Helvetica,sans-Serif" font-size="10.00">::MotionTpl &gt;</text>
</a>
</g>
</g>
<!-- Node18&#45;&gt;Node1 -->
<g id="edge22" class="edge"><title>Node18&#45;&gt;Node1</title>
<path fill="none" stroke="#9a32cd" stroke-dasharray="5,2" d="M446.388,-220.032C481.184,-217.221 525.021,-217.567 562,-230.01 572.218,-233.448 581.881,-241.025 588.618,-247.28"/>
<polygon fill="#9a32cd" stroke="#9a32cd" points="446.002,-216.553 436.363,-220.949 446.64,-223.524 446.002,-216.553"/>
<text text-anchor="middle" x="517" y="-255.01" font-family="Helvetica,sans-Serif" font-size="10.00"> a</text>
<text text-anchor="middle" x="517" y="-244.01" font-family="Helvetica,sans-Serif" font-size="10.00">a_gf</text>
<text text-anchor="middle" x="517" y="-233.01" font-family="Helvetica,sans-Serif" font-size="10.00">v</text>
</g>
<!-- Node19&#45;&gt;Node18 -->
<g id="edge23" class="edge"><title>Node19&#45;&gt;Node18</title>
<path fill="none" stroke="midnightblue" d="M261.912,-228.379C285.157,-228.5 310.514,-228.632 331.989,-228.744"/>
<polygon fill="midnightblue" stroke="midnightblue" points="261.768,-224.878 251.75,-228.326 261.732,-231.878 261.768,-224.878"/>
</g>
<!-- Node20 -->
<g id="node20" class="node"><title>Node20</title>
<polygon fill="white" stroke="#bfbfbf" points="348,-84.5096 348,-103.51 420,-103.51 420,-84.5096 348,-84.5096"/>
<text text-anchor="middle" x="384" y="-91.5096" font-family="Helvetica,sans-Serif" font-size="10.00">vector&lt; int &gt;</text>
</g>
<!-- Node20&#45;&gt;Node1 -->
<g id="edge25" class="edge"><title>Node20&#45;&gt;Node1</title>
<path fill="none" stroke="#9a32cd" stroke-dasharray="5,2" d="M430.248,-87.2069C475.939,-81.4165 542.474,-76.2847 562,-92.0096 586.548,-111.779 595.255,-214.723 597.415,-247.19"/>
<polygon fill="#9a32cd" stroke="#9a32cd" points="429.725,-83.7455 420.268,-88.5232 430.64,-90.6854 429.725,-83.7455"/>
<text text-anchor="middle" x="517" y="-128.01" font-family="Helvetica,sans-Serif" font-size="10.00"> parents_fromRow</text>
<text text-anchor="middle" x="517" y="-117.01" font-family="Helvetica,sans-Serif" font-size="10.00">lastChild</text>
<text text-anchor="middle" x="517" y="-106.01" font-family="Helvetica,sans-Serif" font-size="10.00">nvSubtree</text>
<text text-anchor="middle" x="517" y="-95.0096" font-family="Helvetica,sans-Serif" font-size="10.00">nvSubtree_fromRow</text>
</g>
<!-- Node21 -->
<g id="node21" class="node"><title>Node21</title>
<polygon fill="white" stroke="#bfbfbf" points="339,-46.5096 339,-65.5096 429,-65.5096 429,-46.5096 339,-46.5096"/>
<text text-anchor="middle" x="384" y="-53.5096" font-family="Helvetica,sans-Serif" font-size="10.00">vector&lt; double &gt;</text>
</g>
<!-- Node21&#45;&gt;Node1 -->
<g id="edge26" class="edge"><title>Node21&#45;&gt;Node1</title>
<path fill="none" stroke="#9a32cd" stroke-dasharray="5,2" d="M431.69,-44.6256C471.241,-37.974 526.953,-36.0962 562,-67.0096 589.444,-91.2166 596.253,-211.976 597.67,-247.293"/>
<polygon fill="#9a32cd" stroke="#9a32cd" points="430.956,-41.2019 421.754,-46.4527 432.222,-48.0865 430.956,-41.2019"/>
<text text-anchor="middle" x="517" y="-70.0096" font-family="Helvetica,sans-Serif" font-size="10.00"> mass</text>
</g>
<!-- Node22 -->
<g id="node22" class="node"><title>Node22</title>
<g id="a_node22"><a xlink:href="classse3_1_1ForceTpl.html" target="_top" xlink:title="ForceTpl\&lt; double, 0 \&gt;">
<polygon fill="white" stroke="black" points="327.5,-8.5096 327.5,-27.5096 440.5,-27.5096 440.5,-8.5096 327.5,-8.5096"/>
<text text-anchor="middle" x="384" y="-15.5096" font-family="Helvetica,sans-Serif" font-size="10.00">ForceTpl&lt; double, 0 &gt;</text>
</a>
</g>
</g>
<!-- Node22&#45;&gt;Node1 -->
<g id="edge27" class="edge"><title>Node22&#45;&gt;Node1</title>
<path fill="none" stroke="#9a32cd" stroke-dasharray="5,2" d="M427.569,-6.26094C467.382,1.91056 525.964,6.2837 562,-26.0096 595.552,-56.0769 597.985,-207.712 598.039,-247.459"/>
<polygon fill="#9a32cd" stroke="#9a32cd" points="426.635,-2.883 417.626,-8.45957 428.146,-9.7179 426.635,-2.883"/>
<text text-anchor="middle" x="517" y="-29.0096" font-family="Helvetica,sans-Serif" font-size="10.00"> hg</text>
</g>
<!-- Node23 -->
<g id="node23" class="node"><title>Node23</title>
<g id="a_node23"><a xlink:href="classse3_1_1ForceBase.html" target="_top" xlink:title="Base interface for forces representation. ">
<polygon fill="white" stroke="black" points="131.5,-3.0096 131.5,-33.0096 248.5,-33.0096 248.5,-3.0096 131.5,-3.0096"/>
<text text-anchor="start" x="139.5" y="-21.0096" font-family="Helvetica,sans-Serif" font-size="10.00">ForceBase&lt; ForceTpl</text>
<text text-anchor="middle" x="190" y="-10.0096" font-family="Helvetica,sans-Serif" font-size="10.00">&lt; double, _Options &gt; &gt;</text>
</a>
</g>
</g>
<!-- Node23&#45;&gt;Node22 -->
<g id="edge28" class="edge"><title>Node23&#45;&gt;Node22</title>
<path fill="none" stroke="midnightblue" d="M258.752,-18.0096C281.225,-18.0096 305.965,-18.0096 327.413,-18.0096"/>
<polygon fill="midnightblue" stroke="midnightblue" points="258.606,-14.5097 248.606,-18.0096 258.606,-21.5097 258.606,-14.5097"/>
</g>
<!-- Node24 -->
<g id="node24" class="node"><title>Node24</title>
<g id="a_node24"><a xlink:href="classse3_1_1container_1_1aligned__vector.html" target="_top" xlink:title="aligned_vector\&lt; se3\l::InertiaTpl \&gt;">
<polygon fill="white" stroke="black" points="332,-163.01 332,-193.01 436,-193.01 436,-163.01 332,-163.01"/>
<text text-anchor="start" x="340" y="-181.01" font-family="Helvetica,sans-Serif" font-size="10.00">aligned_vector&lt; se3</text>
<text text-anchor="middle" x="384" y="-170.01" font-family="Helvetica,sans-Serif" font-size="10.00">::InertiaTpl &gt;</text>
</a>
</g>
</g>
<!-- Node24&#45;&gt;Node1 -->
<g id="edge29" class="edge"><title>Node24&#45;&gt;Node1</title>
<path fill="none" stroke="#9a32cd" stroke-dasharray="5,2" d="M446.437,-175.114C482.576,-176.178 527.75,-182.537 562,-204.01 578.398,-214.29 589.136,-235.08 594.333,-247.344"/>
<polygon fill="#9a32cd" stroke="#9a32cd" points="446.075,-171.608 436.019,-174.945 445.961,-178.607 446.075,-171.608"/>
<text text-anchor="middle" x="517" y="-207.01" font-family="Helvetica,sans-Serif" font-size="10.00"> Ycrb</text>
</g>
<!-- Node25&#45;&gt;Node24 -->
<g id="edge30" class="edge"><title>Node25&#45;&gt;Node24</title>
<path fill="none" stroke="midnightblue" d="M261.912,-171.703C285.157,-172.914 310.514,-174.234 331.989,-175.353"/>
<polygon fill="midnightblue" stroke="midnightblue" points="261.919,-168.199 251.75,-171.174 261.554,-175.189 261.919,-168.199"/>
</g>
</g>
</svg>
