<?xml version="1.0" encoding="UTF-8" standalone="no"?>
<!DOCTYPE svg PUBLIC "-//W3C//DTD SVG 1.1//EN"
 "http://www.w3.org/Graphics/SVG/1.1/DTD/svg11.dtd">
<!-- Generated by graphviz version 2.36.0 (20140111.2315)
 -->
<!-- Title: GeometryObject Pages: 1 -->
<svg width="272pt" height="188pt"
 viewBox="0.00 0.00 272.00 188.00" xmlns="http://www.w3.org/2000/svg" xmlns:xlink="http://www.w3.org/1999/xlink">
<g id="graph0" class="graph" transform="scale(1 1) rotate(0) translate(4 184)">
<title>GeometryObject</title>
<polygon fill="white" stroke="none" points="-4,4 -4,-184 268,-184 268,4 -4,4"/>
<!-- Node1 -->
<g id="node1" class="node"><title>Node1</title>
<polygon fill="#bfbfbf" stroke="black" points="75,-0.5 75,-19.5 163,-19.5 163,-0.5 75,-0.5"/>
<text text-anchor="middle" x="119" y="-7.5" font-family="Helvetica,sans-Serif" font-size="10.00">GeometryObject</text>
</g>
<!-- Node2 -->
<g id="node2" class="node"><title>Node2</title>
<g id="a_node2"><a xlink:title="STL class. ">
<polygon fill="white" stroke="#bfbfbf" points="35.5,-90.5 35.5,-109.5 76.5,-109.5 76.5,-90.5 35.5,-90.5"/>
<text text-anchor="middle" x="56" y="-97.5" font-family="Helvetica,sans-Serif" font-size="10.00">string</text>
</a>
</g>
</g>
<!-- Node2&#45;&gt;Node1 -->
<g id="edge1" class="edge"><title>Node2&#45;&gt;Node1</title>
<path fill="none" stroke="#9a32cd" stroke-dasharray="5,2" d="M56.782,-80.0466C58.1833,-67.0698 61.8144,-50.089 71,-38 77.1316,-29.9303 86.4149,-23.9142 95.1888,-19.6347"/>
<polygon fill="#9a32cd" stroke="#9a32cd" points="53.2785,-79.9678 56.041,-90.1962 60.26,-80.4776 53.2785,-79.9678"/>
<text text-anchor="middle" x="111.5" y="-63.5" font-family="Helvetica,sans-Serif" font-size="10.00"> meshTexturePath</text>
<text text-anchor="middle" x="111.5" y="-52.5" font-family="Helvetica,sans-Serif" font-size="10.00">meshPath</text>
<text text-anchor="middle" x="111.5" y="-41.5" font-family="Helvetica,sans-Serif" font-size="10.00">name</text>
</g>
<!-- Node3 -->
<g id="node3" class="node"><title>Node3</title>
<g id="a_node3"><a xlink:title="STL class. ">
<polygon fill="white" stroke="#bfbfbf" points="0,-154.5 0,-173.5 106,-173.5 106,-154.5 0,-154.5"/>
<text text-anchor="middle" x="53" y="-161.5" font-family="Helvetica,sans-Serif" font-size="10.00">basic_string&lt; char &gt;</text>
</a>
</g>
</g>
<!-- Node3&#45;&gt;Node2 -->
<g id="edge2" class="edge"><title>Node3&#45;&gt;Node2</title>
<path fill="none" stroke="midnightblue" d="M53.9175,-144.037C54.4744,-132.53 55.1579,-118.403 55.5864,-109.548"/>
<polygon fill="midnightblue" stroke="midnightblue" points="50.4046,-144.222 53.4171,-154.379 57.3964,-144.56 50.4046,-144.222"/>
</g>
<!-- Node4 -->
<g id="node4" class="node"><title>Node4</title>
<g id="a_node4"><a xlink:href="classse3_1_1SE3Tpl.html" target="_top" xlink:title="SE3Tpl\&lt; double, 0 \&gt;">
<polygon fill="white" stroke="black" points="138.5,-90.5 138.5,-109.5 245.5,-109.5 245.5,-90.5 138.5,-90.5"/>
<text text-anchor="middle" x="192" y="-97.5" font-family="Helvetica,sans-Serif" font-size="10.00">SE3Tpl&lt; double, 0 &gt;</text>
</a>
</g>
</g>
<!-- Node4&#45;&gt;Node1 -->
<g id="edge3" class="edge"><title>Node4&#45;&gt;Node1</title>
<path fill="none" stroke="#9a32cd" stroke-dasharray="5,2" d="M182.4,-81.3944C174.996,-68.6359 164.016,-51.353 152,-38 145.86,-31.1768 137.926,-24.6288 131.376,-19.6904"/>
<polygon fill="#9a32cd" stroke="#9a32cd" points="179.363,-83.1354 187.322,-90.1289 185.462,-79.6987 179.363,-83.1354"/>
<text text-anchor="middle" x="200.5" y="-52.5" font-family="Helvetica,sans-Serif" font-size="10.00"> placement</text>
</g>
<!-- Node5 -->
<g id="node5" class="node"><title>Node5</title>
<g id="a_node5"><a xlink:href="classse3_1_1SE3Base.html" target="_top" xlink:title="SE3Base\&lt; SE3Tpl\&lt; double,\l _Options \&gt; \&gt;">
<polygon fill="white" stroke="black" points="124,-149 124,-179 264,-179 264,-149 124,-149"/>
<text text-anchor="start" x="132" y="-167" font-family="Helvetica,sans-Serif" font-size="10.00">SE3Base&lt; SE3Tpl&lt; double,</text>
<text text-anchor="middle" x="194" y="-156" font-family="Helvetica,sans-Serif" font-size="10.00"> _Options &gt; &gt;</text>
</a>
</g>
</g>
<!-- Node5&#45;&gt;Node4 -->
<g id="edge4" class="edge"><title>Node5&#45;&gt;Node4</title>
<path fill="none" stroke="midnightblue" d="M193.222,-138.871C192.892,-128.663 192.529,-117.408 192.285,-109.842"/>
<polygon fill="midnightblue" stroke="midnightblue" points="189.725,-139.049 193.546,-148.931 196.722,-138.824 189.725,-139.049"/>
</g>
</g>
</svg>
