<?xml version="1.0" encoding="UTF-8" standalone="no"?>
<!DOCTYPE svg PUBLIC "-//W3C//DTD SVG 1.1//EN"
 "http://www.w3.org/Graphics/SVG/1.1/DTD/svg11.dtd">
<!-- Generated by graphviz version 2.36.0 (20140111.2315)
 -->
<!-- Title: FrameTpl&lt; _Scalar, _Options &gt; Pages: 1 -->
<svg width="271pt" height="178pt"
 viewBox="0.00 0.00 271.00 178.00" xmlns="http://www.w3.org/2000/svg" xmlns:xlink="http://www.w3.org/1999/xlink">
<g id="graph0" class="graph" transform="scale(1 1) rotate(0) translate(4 174)">
<title>FrameTpl&lt; _Scalar, _Options &gt;</title>
<polygon fill="white" stroke="none" points="-4,4 -4,-174 267,-174 267,4 -4,4"/>
<!-- Node1 -->
<g id="node1" class="node"><title>Node1</title>
<polygon fill="#bfbfbf" stroke="black" points="80.5,-1 80.5,-31 183.5,-31 183.5,-1 80.5,-1"/>
<text text-anchor="start" x="88.5" y="-19" font-family="Helvetica,sans-Serif" font-size="10.00">FrameTpl&lt; _Scalar,</text>
<text text-anchor="middle" x="132" y="-8" font-family="Helvetica,sans-Serif" font-size="10.00"> _Options &gt;</text>
</g>
<!-- Node2 -->
<g id="node2" class="node"><title>Node2</title>
<g id="a_node2"><a xlink:title="STL class. ">
<polygon fill="white" stroke="#bfbfbf" points="41.5,-80.5 41.5,-99.5 82.5,-99.5 82.5,-80.5 41.5,-80.5"/>
<text text-anchor="middle" x="62" y="-87.5" font-family="Helvetica,sans-Serif" font-size="10.00">string</text>
</a>
</g>
</g>
<!-- Node2&#45;&gt;Node1 -->
<g id="edge1" class="edge"><title>Node2&#45;&gt;Node1</title>
<path fill="none" stroke="#9a32cd" stroke-dasharray="5,2" d="M77.534,-73.0221C89.6969,-60.5118 106.459,-43.2711 118.164,-31.2316"/>
<polygon fill="#9a32cd" stroke="#9a32cd" points="74.7661,-70.8482 70.3048,-80.4579 79.7851,-75.7277 74.7661,-70.8482"/>
<text text-anchor="middle" x="114" y="-53.5" font-family="Helvetica,sans-Serif" font-size="10.00"> name</text>
</g>
<!-- Node3 -->
<g id="node3" class="node"><title>Node3</title>
<g id="a_node3"><a xlink:title="STL class. ">
<polygon fill="white" stroke="#bfbfbf" points="0,-144.5 0,-163.5 106,-163.5 106,-144.5 0,-144.5"/>
<text text-anchor="middle" x="53" y="-151.5" font-family="Helvetica,sans-Serif" font-size="10.00">basic_string&lt; char &gt;</text>
</a>
</g>
</g>
<!-- Node3&#45;&gt;Node2 -->
<g id="edge2" class="edge"><title>Node3&#45;&gt;Node2</title>
<path fill="none" stroke="midnightblue" d="M55.7006,-134.396C57.3803,-122.825 59.4604,-108.495 60.7592,-99.5476"/>
<polygon fill="midnightblue" stroke="midnightblue" points="52.2244,-133.98 54.2514,-144.379 59.1518,-134.986 52.2244,-133.98"/>
</g>
<!-- Node4 -->
<g id="node4" class="node"><title>Node4</title>
<g id="a_node4"><a xlink:href="classse3_1_1SE3Tpl.html" target="_top" xlink:title="SE3Tpl\&lt; Scalar, Options \&gt;">
<polygon fill="white" stroke="black" points="118,-80.5 118,-99.5 252,-99.5 252,-80.5 118,-80.5"/>
<text text-anchor="middle" x="185" y="-87.5" font-family="Helvetica,sans-Serif" font-size="10.00">SE3Tpl&lt; Scalar, Options &gt;</text>
</a>
</g>
</g>
<!-- Node4&#45;&gt;Node1 -->
<g id="edge3" class="edge"><title>Node4&#45;&gt;Node1</title>
<path fill="none" stroke="#9a32cd" stroke-dasharray="5,2" d="M172.709,-72.3022C163.547,-59.8569 151.17,-43.0418 142.476,-31.2316"/>
<polygon fill="#9a32cd" stroke="#9a32cd" points="169.965,-74.4794 178.712,-80.4579 175.603,-70.3297 169.965,-74.4794"/>
<text text-anchor="middle" x="189.5" y="-53.5" font-family="Helvetica,sans-Serif" font-size="10.00"> placement</text>
</g>
<!-- Node5 -->
<g id="node5" class="node"><title>Node5</title>
<g id="a_node5"><a xlink:href="classse3_1_1SE3Base.html" target="_top" xlink:title="SE3Base\&lt; SE3Tpl\&lt; Scalar,\l _Options \&gt; \&gt;">
<polygon fill="white" stroke="black" points="124.5,-139 124.5,-169 263.5,-169 263.5,-139 124.5,-139"/>
<text text-anchor="start" x="132.5" y="-157" font-family="Helvetica,sans-Serif" font-size="10.00">SE3Base&lt; SE3Tpl&lt; Scalar,</text>
<text text-anchor="middle" x="194" y="-146" font-family="Helvetica,sans-Serif" font-size="10.00"> _Options &gt; &gt;</text>
</a>
</g>
</g>
<!-- Node5&#45;&gt;Node4 -->
<g id="edge4" class="edge"><title>Node5&#45;&gt;Node4</title>
<path fill="none" stroke="midnightblue" d="M190.497,-128.871C189.016,-118.663 187.382,-107.408 186.284,-99.8419"/>
<polygon fill="midnightblue" stroke="midnightblue" points="187.057,-129.538 191.958,-138.931 193.985,-128.532 187.057,-129.538"/>
</g>
</g>
</svg>
