<?xml version="1.0" encoding="UTF-8" standalone="no"?>
<!DOCTYPE svg PUBLIC "-//W3C//DTD SVG 1.1//EN"
 "http://www.w3.org/Graphics/SVG/1.1/DTD/svg11.dtd">
<!-- Generated by graphviz version 2.36.0 (20140111.2315)
 -->
<!-- Title: ConstraintRevoluteUnaligned::TransposeConst Pages: 1 -->
<svg width="152pt" height="178pt"
 viewBox="0.00 0.00 152.00 178.00" xmlns="http://www.w3.org/2000/svg" xmlns:xlink="http://www.w3.org/1999/xlink">
<g id="graph0" class="graph" transform="scale(1 1) rotate(0) translate(4 174)">
<title>ConstraintRevoluteUnaligned::TransposeConst</title>
<polygon fill="white" stroke="none" points="-4,4 -4,-174 148,-174 148,4 -4,4"/>
<!-- Node1 -->
<g id="node1" class="node"><title>Node1</title>
<polygon fill="#bfbfbf" stroke="black" points="0,-1 0,-31 144,-31 144,-1 0,-1"/>
<text text-anchor="start" x="8" y="-19" font-family="Helvetica,sans-Serif" font-size="10.00">ConstraintRevoluteUnaligned</text>
<text text-anchor="middle" x="72" y="-8" font-family="Helvetica,sans-Serif" font-size="10.00">::TransposeConst</text>
</g>
<!-- Node2 -->
<g id="node2" class="node"><title>Node2</title>
<g id="a_node2"><a xlink:href="structse3_1_1ConstraintRevoluteUnaligned.html" target="_top" xlink:title="ConstraintRevoluteUnaligned">
<polygon fill="white" stroke="black" points="0,-80.5 0,-99.5 144,-99.5 144,-80.5 0,-80.5"/>
<text text-anchor="middle" x="72" y="-87.5" font-family="Helvetica,sans-Serif" font-size="10.00">ConstraintRevoluteUnaligned</text>
</a>
</g>
</g>
<!-- Node2&#45;&gt;Node1 -->
<g id="edge1" class="edge"><title>Node2&#45;&gt;Node1</title>
<path fill="none" stroke="#9a32cd" stroke-dasharray="5,2" d="M72,-70.0846C72,-57.9148 72,-42.3538 72,-31.2316"/>
<polygon fill="#9a32cd" stroke="#9a32cd" points="68.5001,-70.4579 72,-80.4579 75.5001,-70.4579 68.5001,-70.4579"/>
<text text-anchor="middle" x="79.5" y="-53.5" font-family="Helvetica,sans-Serif" font-size="10.00"> ref</text>
</g>
<!-- Node3 -->
<g id="node3" class="node"><title>Node3</title>
<g id="a_node3"><a xlink:href="classse3_1_1ConstraintBase.html" target="_top" xlink:title="ConstraintBase\&lt; Constraint\lRevoluteUnaligned \&gt;">
<polygon fill="white" stroke="black" points="3,-139 3,-169 141,-169 141,-139 3,-139"/>
<text text-anchor="start" x="11" y="-157" font-family="Helvetica,sans-Serif" font-size="10.00">ConstraintBase&lt; Constraint</text>
<text text-anchor="middle" x="72" y="-146" font-family="Helvetica,sans-Serif" font-size="10.00">RevoluteUnaligned &gt;</text>
</a>
</g>
</g>
<!-- Node3&#45;&gt;Node2 -->
<g id="edge2" class="edge"><title>Node3&#45;&gt;Node2</title>
<path fill="none" stroke="midnightblue" d="M72,-128.871C72,-118.663 72,-107.408 72,-99.8419"/>
<polygon fill="midnightblue" stroke="midnightblue" points="68.5001,-128.931 72,-138.931 75.5001,-128.931 68.5001,-128.931"/>
</g>
</g>
</svg>
