<?xml version="1.0" encoding="UTF-8" standalone="no"?>
<!DOCTYPE svg PUBLIC "-//W3C//DTD SVG 1.1//EN"
 "http://www.w3.org/Graphics/SVG/1.1/DTD/svg11.dtd">
<!-- Generated by graphviz version 2.36.0 (20140111.2315)
 -->
<!-- Title: JointModelRevolute&lt; axis &gt; Pages: 1 -->
<svg width="150pt" height="190pt"
 viewBox="0.00 0.00 150.00 190.00" xmlns="http://www.w3.org/2000/svg" xmlns:xlink="http://www.w3.org/1999/xlink">
<g id="graph0" class="graph" transform="scale(1 1) rotate(0) translate(4 186)">
<title>JointModelRevolute&lt; axis &gt;</title>
<polygon fill="white" stroke="none" points="-4,4 -4,-186 146,-186 146,4 -4,4"/>
<!-- Node1 -->
<g id="node1" class="node"><title>Node1</title>
<polygon fill="#bfbfbf" stroke="black" points="19.5,-1 19.5,-31 122.5,-31 122.5,-1 19.5,-1"/>
<text text-anchor="start" x="27.5" y="-19" font-family="Helvetica,sans-Serif" font-size="10.00">JointModelRevolute</text>
<text text-anchor="middle" x="71" y="-8" font-family="Helvetica,sans-Serif" font-size="10.00">&lt; axis &gt;</text>
</g>
<!-- Node2 -->
<g id="node2" class="node"><title>Node2</title>
<g id="a_node2"><a xlink:href="structse3_1_1JointModelBase.html" target="_top" xlink:title="JointModelBase\&lt; JointModel\lRevolute\&lt; axis \&gt; \&gt;">
<polygon fill="white" stroke="black" points="-0.5,-71 -0.5,-101 142.5,-101 142.5,-71 -0.5,-71"/>
<text text-anchor="start" x="7.5" y="-89" font-family="Helvetica,sans-Serif" font-size="10.00">JointModelBase&lt; JointModel</text>
<text text-anchor="middle" x="71" y="-78" font-family="Helvetica,sans-Serif" font-size="10.00">Revolute&lt; axis &gt; &gt;</text>
</a>
</g>
</g>
<!-- Node2&#45;&gt;Node1 -->
<g id="edge1" class="edge"><title>Node2&#45;&gt;Node1</title>
<path fill="none" stroke="midnightblue" d="M71,-60.7688C71,-50.8141 71,-39.6384 71,-31.0716"/>
<polygon fill="midnightblue" stroke="midnightblue" points="67.5001,-60.9103 71,-70.9104 74.5001,-60.9104 67.5001,-60.9103"/>
</g>
<!-- Node3 -->
<g id="node3" class="node"><title>Node3</title>
<g id="a_node3"><a xlink:href="structse3_1_1traits_3_01JointModelRevolute_3_01axis_01_4_01_4.html" target="_top" xlink:title="traits\&lt; JointModelRevolute\l\&lt; axis \&gt; \&gt;">
<polygon fill="white" stroke="black" points="4,-151 4,-181 138,-181 138,-151 4,-151"/>
<text text-anchor="start" x="12" y="-169" font-family="Helvetica,sans-Serif" font-size="10.00">traits&lt; JointModelRevolute</text>
<text text-anchor="middle" x="71" y="-158" font-family="Helvetica,sans-Serif" font-size="10.00">&lt; axis &gt; &gt;</text>
</a>
</g>
</g>
<!-- Node3&#45;&gt;Node2 -->
<g id="edge2" class="edge"><title>Node3&#45;&gt;Node2</title>
<path fill="none" stroke="#9a32cd" stroke-dasharray="5,2" d="M71,-140.564C71,-127.624 71,-112.186 71,-101.216"/>
<polygon fill="#9a32cd" stroke="#9a32cd" points="67.5001,-140.694 71,-150.694 74.5001,-140.694 67.5001,-140.694"/>
<text text-anchor="middle" x="100" y="-123.5" font-family="Helvetica,sans-Serif" font-size="10.00"> JointDerived</text>
</g>
</g>
</svg>
