<?xml version="1.0" encoding="UTF-8" standalone="no"?>
<!DOCTYPE svg PUBLIC "-//W3C//DTD SVG 1.1//EN"
 "http://www.w3.org/Graphics/SVG/1.1/DTD/svg11.dtd">
<!-- Generated by graphviz version 2.36.0 (20140111.2315)
 -->
<!-- Title: JointSphericalZYXTpl&lt; _Scalar, _Options &gt;::MotionSpherical Pages: 1 -->
<svg width="126pt" height="200pt"
 viewBox="0.00 0.00 126.00 200.00" xmlns="http://www.w3.org/2000/svg" xmlns:xlink="http://www.w3.org/1999/xlink">
<g id="graph0" class="graph" transform="scale(1 1) rotate(0) translate(4 196)">
<title>JointSphericalZYXTpl&lt; _Scalar, _Options &gt;::MotionSpherical</title>
<polygon fill="white" stroke="none" points="-4,4 -4,-196 122,-196 122,4 -4,4"/>
<!-- Node1 -->
<g id="node1" class="node"><title>Node1</title>
<polygon fill="#bfbfbf" stroke="black" points="2.5,-0.5 2.5,-41.5 115.5,-41.5 115.5,-0.5 2.5,-0.5"/>
<text text-anchor="start" x="10.5" y="-29.5" font-family="Helvetica,sans-Serif" font-size="10.00">JointSphericalZYXTpl</text>
<text text-anchor="start" x="10.5" y="-18.5" font-family="Helvetica,sans-Serif" font-size="10.00">&lt; _Scalar, _Options &gt;</text>
<text text-anchor="middle" x="59" y="-7.5" font-family="Helvetica,sans-Serif" font-size="10.00">::MotionSpherical</text>
</g>
<!-- Node2 -->
<g id="node2" class="node"><title>Node2</title>
<g id="a_node2"><a xlink:href="classse3_1_1MotionTpl.html" target="_top" xlink:title="MotionTpl\&lt; Scalar,\l Options \&gt;">
<polygon fill="white" stroke="black" points="9.5,-91 9.5,-121 108.5,-121 108.5,-91 9.5,-91"/>
<text text-anchor="start" x="17.5" y="-109" font-family="Helvetica,sans-Serif" font-size="10.00">MotionTpl&lt; Scalar,</text>
<text text-anchor="middle" x="59" y="-98" font-family="Helvetica,sans-Serif" font-size="10.00"> Options &gt;</text>
</a>
</g>
</g>
<!-- Node2&#45;&gt;Node1 -->
<g id="edge1" class="edge"><title>Node2&#45;&gt;Node1</title>
<path fill="none" stroke="#9a32cd" stroke-dasharray="5,2" d="M59,-80.8051C59,-68.3941 59,-53.4676 59,-41.7587"/>
<polygon fill="#9a32cd" stroke="#9a32cd" points="55.5001,-80.9201 59,-90.9202 62.5001,-80.9202 55.5001,-80.9201"/>
<text text-anchor="middle" x="64.5" y="-63.5" font-family="Helvetica,sans-Serif" font-size="10.00"> w</text>
</g>
<!-- Node3 -->
<g id="node3" class="node"><title>Node3</title>
<g id="a_node3"><a xlink:href="classse3_1_1MotionBase.html" target="_top" xlink:title="MotionBase\&lt; MotionTpl\l\&lt; Scalar, _Options \&gt; \&gt;">
<polygon fill="white" stroke="black" points="-1,-161 -1,-191 119,-191 119,-161 -1,-161"/>
<text text-anchor="start" x="7" y="-179" font-family="Helvetica,sans-Serif" font-size="10.00">MotionBase&lt; MotionTpl</text>
<text text-anchor="middle" x="59" y="-168" font-family="Helvetica,sans-Serif" font-size="10.00">&lt; Scalar, _Options &gt; &gt;</text>
</a>
</g>
</g>
<!-- Node3&#45;&gt;Node2 -->
<g id="edge2" class="edge"><title>Node3&#45;&gt;Node2</title>
<path fill="none" stroke="midnightblue" d="M59,-150.769C59,-140.814 59,-129.638 59,-121.072"/>
<polygon fill="midnightblue" stroke="midnightblue" points="55.5001,-150.91 59,-160.91 62.5001,-150.91 55.5001,-150.91"/>
</g>
</g>
</svg>
