<?xml version="1.0" encoding="UTF-8" standalone="no"?>
<!DOCTYPE svg PUBLIC "-//W3C//DTD SVG 1.1//EN"
 "http://www.w3.org/Graphics/SVG/1.1/DTD/svg11.dtd">
<!-- Generated by graphviz version 2.36.0 (20140111.2315)
 -->
<!-- Title: NLEForwardStep Pages: 1 -->
<svg width="136pt" height="152pt"
 viewBox="0.00 0.00 136.00 152.00" xmlns="http://www.w3.org/2000/svg" xmlns:xlink="http://www.w3.org/1999/xlink">
<g id="graph0" class="graph" transform="scale(1 1) rotate(0) translate(4 148)">
<title>NLEForwardStep</title>
<polygon fill="white" stroke="none" points="-4,4 -4,-148 132,-148 132,4 -4,4"/>
<!-- Node1 -->
<g id="node1" class="node"><title>Node1</title>
<polygon fill="#bfbfbf" stroke="black" points="18,-0.5 18,-19.5 110,-19.5 110,-0.5 18,-0.5"/>
<text text-anchor="middle" x="64" y="-7.5" font-family="Helvetica,sans-Serif" font-size="10.00">NLEForwardStep</text>
</g>
<!-- Node2 -->
<g id="node2" class="node"><title>Node2</title>
<g id="a_node2"><a xlink:href="structse3_1_1fusion_1_1JointVisitor.html" target="_top" xlink:title="JointVisitor\&lt; NLEForward\lStep \&gt;">
<polygon fill="white" stroke="black" points="-0.5,-57 -0.5,-87 128.5,-87 128.5,-57 -0.5,-57"/>
<text text-anchor="start" x="7.5" y="-75" font-family="Helvetica,sans-Serif" font-size="10.00">JointVisitor&lt; NLEForward</text>
<text text-anchor="middle" x="64" y="-64" font-family="Helvetica,sans-Serif" font-size="10.00">Step &gt;</text>
</a>
</g>
</g>
<!-- Node2&#45;&gt;Node1 -->
<g id="edge1" class="edge"><title>Node2&#45;&gt;Node1</title>
<path fill="none" stroke="midnightblue" d="M64,-46.5858C64,-37.0743 64,-26.7864 64,-19.7305"/>
<polygon fill="midnightblue" stroke="midnightblue" points="60.5001,-46.7808 64,-56.7808 67.5001,-46.7809 60.5001,-46.7808"/>
</g>
<!-- Node3 -->
<g id="node3" class="node"><title>Node3</title>
<polygon fill="white" stroke="#bfbfbf" points="22,-124.5 22,-143.5 106,-143.5 106,-124.5 22,-124.5"/>
<text text-anchor="middle" x="64" y="-131.5" font-family="Helvetica,sans-Serif" font-size="10.00">static_visitor&lt;&gt;</text>
</g>
<!-- Node3&#45;&gt;Node2 -->
<g id="edge2" class="edge"><title>Node3&#45;&gt;Node2</title>
<path fill="none" stroke="midnightblue" d="M64,-114.371C64,-105.585 64,-95.2721 64,-87.1408"/>
<polygon fill="midnightblue" stroke="midnightblue" points="60.5001,-114.403 64,-124.403 67.5001,-114.403 60.5001,-114.403"/>
</g>
</g>
</svg>
