<?xml version="1.0" encoding="UTF-8" standalone="no"?>
<!DOCTYPE svg PUBLIC "-//W3C//DTD SVG 1.1//EN"
 "http://www.w3.org/Graphics/SVG/1.1/DTD/svg11.dtd">
<!-- Generated by graphviz version 2.36.0 (20140111.2315)
 -->
<!-- Title: InterpolateStep&lt; LieGroup_t &gt; Pages: 1 -->
<svg width="168pt" height="152pt"
 viewBox="0.00 0.00 168.00 152.00" xmlns="http://www.w3.org/2000/svg" xmlns:xlink="http://www.w3.org/1999/xlink">
<g id="graph0" class="graph" transform="scale(1 1) rotate(0) translate(4 148)">
<title>InterpolateStep&lt; LieGroup_t &gt;</title>
<polygon fill="white" stroke="none" points="-4,4 -4,-148 164,-148 164,4 -4,4"/>
<!-- Node1 -->
<g id="node1" class="node"><title>Node1</title>
<polygon fill="#bfbfbf" stroke="black" points="6,-0.5 6,-19.5 154,-19.5 154,-0.5 6,-0.5"/>
<text text-anchor="middle" x="80" y="-7.5" font-family="Helvetica,sans-Serif" font-size="10.00">InterpolateStep&lt; LieGroup_t &gt;</text>
</g>
<!-- Node2 -->
<g id="node2" class="node"><title>Node2</title>
<g id="a_node2"><a xlink:href="structse3_1_1fusion_1_1JointModelVisitor.html" target="_top" xlink:title="JointModelVisitor\&lt;\l InterpolateStep\&lt; LieGroup_t \&gt; \&gt;">
<polygon fill="white" stroke="black" points="0,-57 0,-87 160,-87 160,-57 0,-57"/>
<text text-anchor="start" x="8" y="-75" font-family="Helvetica,sans-Serif" font-size="10.00">JointModelVisitor&lt;</text>
<text text-anchor="middle" x="80" y="-64" font-family="Helvetica,sans-Serif" font-size="10.00"> InterpolateStep&lt; LieGroup_t &gt; &gt;</text>
</a>
</g>
</g>
<!-- Node2&#45;&gt;Node1 -->
<g id="edge1" class="edge"><title>Node2&#45;&gt;Node1</title>
<path fill="none" stroke="midnightblue" d="M80,-46.5858C80,-37.0743 80,-26.7864 80,-19.7305"/>
<polygon fill="midnightblue" stroke="midnightblue" points="76.5001,-46.7808 80,-56.7808 83.5001,-46.7809 76.5001,-46.7808"/>
</g>
<!-- Node3 -->
<g id="node3" class="node"><title>Node3</title>
<polygon fill="white" stroke="#bfbfbf" points="38,-124.5 38,-143.5 122,-143.5 122,-124.5 38,-124.5"/>
<text text-anchor="middle" x="80" y="-131.5" font-family="Helvetica,sans-Serif" font-size="10.00">static_visitor&lt;&gt;</text>
</g>
<!-- Node3&#45;&gt;Node2 -->
<g id="edge2" class="edge"><title>Node3&#45;&gt;Node2</title>
<path fill="none" stroke="midnightblue" d="M80,-114.371C80,-105.585 80,-95.2721 80,-87.1408"/>
<polygon fill="midnightblue" stroke="midnightblue" points="76.5001,-114.403 80,-124.403 83.5001,-114.403 76.5001,-114.403"/>
</g>
</g>
</svg>
