<?xml version="1.0" encoding="UTF-8" standalone="no"?>
<!DOCTYPE svg PUBLIC "-//W3C//DTD SVG 1.1//EN"
 "http://www.w3.org/Graphics/SVG/1.1/DTD/svg11.dtd">
<!-- Generated by graphviz version 2.36.0 (20140111.2315)
 -->
<!-- Title: JointDataRevoluteUnbounded&lt; axis &gt; Pages: 1 -->
<svg width="156pt" height="190pt"
 viewBox="0.00 0.00 156.00 190.00" xmlns="http://www.w3.org/2000/svg" xmlns:xlink="http://www.w3.org/1999/xlink">
<g id="graph0" class="graph" transform="scale(1 1) rotate(0) translate(4 186)">
<title>JointDataRevoluteUnbounded&lt; axis &gt;</title>
<polygon fill="white" stroke="none" points="-4,4 -4,-186 152,-186 152,4 -4,4"/>
<!-- Node1 -->
<g id="node1" class="node"><title>Node1</title>
<polygon fill="#bfbfbf" stroke="black" points="0.5,-1 0.5,-31 147.5,-31 147.5,-1 0.5,-1"/>
<text text-anchor="start" x="8.5" y="-19" font-family="Helvetica,sans-Serif" font-size="10.00">JointDataRevoluteUnbounded</text>
<text text-anchor="middle" x="74" y="-8" font-family="Helvetica,sans-Serif" font-size="10.00">&lt; axis &gt;</text>
</g>
<!-- Node2 -->
<g id="node2" class="node"><title>Node2</title>
<g id="a_node2"><a xlink:href="structse3_1_1JointDataBase.html" target="_top" xlink:title="JointDataBase\&lt; JointData\lRevoluteUnbounded\&lt; axis \&gt; \&gt;">
<polygon fill="white" stroke="black" points="-1,-71 -1,-101 149,-101 149,-71 -1,-71"/>
<text text-anchor="start" x="7" y="-89" font-family="Helvetica,sans-Serif" font-size="10.00">JointDataBase&lt; JointData</text>
<text text-anchor="middle" x="74" y="-78" font-family="Helvetica,sans-Serif" font-size="10.00">RevoluteUnbounded&lt; axis &gt; &gt;</text>
</a>
</g>
</g>
<!-- Node2&#45;&gt;Node1 -->
<g id="edge1" class="edge"><title>Node2&#45;&gt;Node1</title>
<path fill="none" stroke="midnightblue" d="M74,-60.7688C74,-50.8141 74,-39.6384 74,-31.0716"/>
<polygon fill="midnightblue" stroke="midnightblue" points="70.5001,-60.9103 74,-70.9104 77.5001,-60.9104 70.5001,-60.9103"/>
</g>
<!-- Node3 -->
<g id="node3" class="node"><title>Node3</title>
<g id="a_node3"><a xlink:href="structse3_1_1traits_3_01JointDataRevoluteUnbounded_3_01axis_01_4_01_4.html" target="_top" xlink:title="traits\&lt; JointDataRevolute\lUnbounded\&lt; axis \&gt; \&gt;">
<polygon fill="white" stroke="black" points="10,-151 10,-181 138,-181 138,-151 10,-151"/>
<text text-anchor="start" x="18" y="-169" font-family="Helvetica,sans-Serif" font-size="10.00">traits&lt; JointDataRevolute</text>
<text text-anchor="middle" x="74" y="-158" font-family="Helvetica,sans-Serif" font-size="10.00">Unbounded&lt; axis &gt; &gt;</text>
</a>
</g>
</g>
<!-- Node3&#45;&gt;Node2 -->
<g id="edge2" class="edge"><title>Node3&#45;&gt;Node2</title>
<path fill="none" stroke="#9a32cd" stroke-dasharray="5,2" d="M74,-140.564C74,-127.624 74,-112.186 74,-101.216"/>
<polygon fill="#9a32cd" stroke="#9a32cd" points="70.5001,-140.694 74,-150.694 77.5001,-140.694 70.5001,-140.694"/>
<text text-anchor="middle" x="103" y="-123.5" font-family="Helvetica,sans-Serif" font-size="10.00"> JointDerived</text>
</g>
</g>
</svg>
