<?xml version="1.0" encoding="UTF-8" standalone="no"?>
<!DOCTYPE svg PUBLIC "-//W3C//DTD SVG 1.1//EN"
 "http://www.w3.org/Graphics/SVG/1.1/DTD/svg11.dtd">
<!-- Generated by graphviz version 2.36.0 (20140111.2315)
 -->
<!-- Title: JointModelPrismaticUnaligned Pages: 1 -->
<svg width="156pt" height="178pt"
 viewBox="0.00 0.00 156.00 178.00" xmlns="http://www.w3.org/2000/svg" xmlns:xlink="http://www.w3.org/1999/xlink">
<g id="graph0" class="graph" transform="scale(1 1) rotate(0) translate(4 174)">
<title>JointModelPrismaticUnaligned</title>
<polygon fill="white" stroke="none" points="-4,4 -4,-174 152,-174 152,4 -4,4"/>
<!-- Node1 -->
<g id="node1" class="node"><title>Node1</title>
<polygon fill="#bfbfbf" stroke="black" points="-0.5,-0.5 -0.5,-19.5 148.5,-19.5 148.5,-0.5 -0.5,-0.5"/>
<text text-anchor="middle" x="74" y="-7.5" font-family="Helvetica,sans-Serif" font-size="10.00">JointModelPrismaticUnaligned</text>
</g>
<!-- Node2 -->
<g id="node2" class="node"><title>Node2</title>
<g id="a_node2"><a xlink:href="structse3_1_1JointModelBase.html" target="_top" xlink:title="JointModelBase\&lt; JointModel\lPrismaticUnaligned \&gt;">
<polygon fill="white" stroke="black" points="2.5,-59 2.5,-89 145.5,-89 145.5,-59 2.5,-59"/>
<text text-anchor="start" x="10.5" y="-77" font-family="Helvetica,sans-Serif" font-size="10.00">JointModelBase&lt; JointModel</text>
<text text-anchor="middle" x="74" y="-66" font-family="Helvetica,sans-Serif" font-size="10.00">PrismaticUnaligned &gt;</text>
</a>
</g>
</g>
<!-- Node2&#45;&gt;Node1 -->
<g id="edge1" class="edge"><title>Node2&#45;&gt;Node1</title>
<path fill="none" stroke="midnightblue" d="M74,-48.8706C74,-38.6625 74,-27.4077 74,-19.8419"/>
<polygon fill="midnightblue" stroke="midnightblue" points="70.5001,-48.9312 74,-58.9312 77.5001,-48.9313 70.5001,-48.9312"/>
</g>
<!-- Node3 -->
<g id="node3" class="node"><title>Node3</title>
<g id="a_node3"><a xlink:href="structse3_1_1traits_3_01JointModelPrismaticUnaligned_01_4.html" target="_top" xlink:title="traits\&lt; JointModelPrismatic\lUnaligned \&gt;">
<polygon fill="white" stroke="black" points="6,-139 6,-169 142,-169 142,-139 6,-139"/>
<text text-anchor="start" x="14" y="-157" font-family="Helvetica,sans-Serif" font-size="10.00">traits&lt; JointModelPrismatic</text>
<text text-anchor="middle" x="74" y="-146" font-family="Helvetica,sans-Serif" font-size="10.00">Unaligned &gt;</text>
</a>
</g>
</g>
<!-- Node3&#45;&gt;Node2 -->
<g id="edge2" class="edge"><title>Node3&#45;&gt;Node2</title>
<path fill="none" stroke="#9a32cd" stroke-dasharray="5,2" d="M74,-128.564C74,-115.624 74,-100.186 74,-89.2157"/>
<polygon fill="#9a32cd" stroke="#9a32cd" points="70.5001,-128.694 74,-138.694 77.5001,-128.694 70.5001,-128.694"/>
<text text-anchor="middle" x="103" y="-111.5" font-family="Helvetica,sans-Serif" font-size="10.00"> JointDerived</text>
</g>
</g>
</svg>
