<?xml version="1.0" encoding="UTF-8" standalone="no"?>
<!DOCTYPE svg PUBLIC "-//W3C//DTD SVG 1.1//EN"
 "http://www.w3.org/Graphics/SVG/1.1/DTD/svg11.dtd">
<!-- Generated by graphviz version 2.36.0 (20140111.2315)
 -->
<!-- Title: LuaTable Pages: 1 -->
<svg width="112pt" height="154pt"
 viewBox="0.00 0.00 112.00 154.00" xmlns="http://www.w3.org/2000/svg" xmlns:xlink="http://www.w3.org/1999/xlink">
<g id="graph0" class="graph" transform="scale(1 1) rotate(0) translate(4 150)">
<title>LuaTable</title>
<polygon fill="white" stroke="none" points="-4,4 -4,-150 108,-150 108,4 -4,4"/>
<!-- Node1 -->
<g id="node1" class="node"><title>Node1</title>
<polygon fill="#bfbfbf" stroke="black" points="24,-0.5 24,-19.5 80,-19.5 80,-0.5 24,-0.5"/>
<text text-anchor="middle" x="52" y="-7.5" font-family="Helvetica,sans-Serif" font-size="10.00">LuaTable</text>
</g>
<!-- Node2 -->
<g id="node2" class="node"><title>Node2</title>
<g id="a_node2"><a xlink:title="STL class. ">
<polygon fill="white" stroke="#bfbfbf" points="31.5,-68.5 31.5,-87.5 72.5,-87.5 72.5,-68.5 31.5,-68.5"/>
<text text-anchor="middle" x="52" y="-75.5" font-family="Helvetica,sans-Serif" font-size="10.00">string</text>
</a>
</g>
</g>
<!-- Node2&#45;&gt;Node1 -->
<g id="edge1" class="edge"><title>Node2&#45;&gt;Node1</title>
<path fill="none" stroke="#9a32cd" stroke-dasharray="5,2" d="M52,-58.0413C52,-45.4724 52,-29.5631 52,-19.8411"/>
<polygon fill="#9a32cd" stroke="#9a32cd" points="48.5001,-58.3716 52,-68.3717 55.5001,-58.3717 48.5001,-58.3716"/>
<text text-anchor="middle" x="72" y="-41.5" font-family="Helvetica,sans-Serif" font-size="10.00"> filename</text>
</g>
<!-- Node3 -->
<g id="node3" class="node"><title>Node3</title>
<g id="a_node3"><a xlink:title="STL class. ">
<polygon fill="white" stroke="#bfbfbf" points="-1,-126.5 -1,-145.5 105,-145.5 105,-126.5 -1,-126.5"/>
<text text-anchor="middle" x="52" y="-133.5" font-family="Helvetica,sans-Serif" font-size="10.00">basic_string&lt; char &gt;</text>
</a>
</g>
</g>
<!-- Node3&#45;&gt;Node2 -->
<g id="edge2" class="edge"><title>Node3&#45;&gt;Node2</title>
<path fill="none" stroke="midnightblue" d="M52,-115.953C52,-106.287 52,-95.0312 52,-87.5052"/>
<polygon fill="midnightblue" stroke="midnightblue" points="48.5001,-116.25 52,-126.25 55.5001,-116.25 48.5001,-116.25"/>
</g>
</g>
</svg>
