<?xml version="1.0" encoding="UTF-8" standalone="no"?>
<!DOCTYPE svg PUBLIC "-//W3C//DTD SVG 1.1//EN"
 "http://www.w3.org/Graphics/SVG/1.1/DTD/svg11.dtd">
<!-- Generated by graphviz version 2.36.0 (20140111.2315)
 -->
<!-- Title: ParseRootTreeVisitor Pages: 1 -->
<svg width="928pt" height="369pt"
 viewBox="0.00 0.00 928.00 369.00" xmlns="http://www.w3.org/2000/svg" xmlns:xlink="http://www.w3.org/1999/xlink">
<g id="graph0" class="graph" transform="scale(1 1) rotate(0) translate(4 365)">
<title>ParseRootTreeVisitor</title>
<polygon fill="white" stroke="none" points="-4,4 -4,-365 924,-365 924,4 -4,4"/>
<!-- Node1 -->
<g id="node1" class="node"><title>Node1</title>
<polygon fill="#bfbfbf" stroke="black" points="810,-174.5 810,-193.5 920,-193.5 920,-174.5 810,-174.5"/>
<text text-anchor="middle" x="865" y="-181.5" font-family="Helvetica,sans-Serif" font-size="10.00">ParseRootTreeVisitor</text>
</g>
<!-- Node2 -->
<g id="node2" class="node"><title>Node2</title>
<polygon fill="white" stroke="#bfbfbf" points="646,-190.5 646,-209.5 730,-209.5 730,-190.5 646,-190.5"/>
<text text-anchor="middle" x="688" y="-197.5" font-family="Helvetica,sans-Serif" font-size="10.00">static_visitor&lt;&gt;</text>
</g>
<!-- Node2&#45;&gt;Node1 -->
<g id="edge1" class="edge"><title>Node2&#45;&gt;Node1</title>
<path fill="none" stroke="midnightblue" d="M740.144,-195.324C762.079,-193.319 787.721,-190.974 809.966,-188.94"/>
<polygon fill="midnightblue" stroke="midnightblue" points="739.669,-191.853 730.03,-196.249 740.307,-198.824 739.669,-191.853"/>
</g>
<!-- Node3 -->
<g id="node3" class="node"><title>Node3</title>
<g id="a_node3"><a xlink:href="structse3_1_1Model.html" target="_top" xlink:title="Model">
<polygon fill="white" stroke="black" points="666.5,-152.5 666.5,-171.5 709.5,-171.5 709.5,-152.5 666.5,-152.5"/>
<text text-anchor="middle" x="688" y="-159.5" font-family="Helvetica,sans-Serif" font-size="10.00">Model</text>
</a>
</g>
</g>
<!-- Node3&#45;&gt;Node1 -->
<g id="edge2" class="edge"><title>Node3&#45;&gt;Node1</title>
<path fill="none" stroke="#9a32cd" stroke-dasharray="5,2" d="M719.722,-165.862C744.618,-168.992 780.307,-173.479 809.96,-177.206"/>
<polygon fill="#9a32cd" stroke="#9a32cd" points="720.121,-162.385 709.762,-164.61 719.247,-169.33 720.121,-162.385"/>
<text text-anchor="middle" x="770" y="-178" font-family="Helvetica,sans-Serif" font-size="10.00"> m_model</text>
</g>
<!-- Node4 -->
<g id="node4" class="node"><title>Node4</title>
<g id="a_node4"><a xlink:href="classse3_1_1MotionTpl.html" target="_top" xlink:title="MotionTpl\&lt; double, 0 \&gt;">
<polygon fill="white" stroke="black" points="404.5,-322.5 404.5,-341.5 521.5,-341.5 521.5,-322.5 404.5,-322.5"/>
<text text-anchor="middle" x="463" y="-329.5" font-family="Helvetica,sans-Serif" font-size="10.00">MotionTpl&lt; double, 0 &gt;</text>
</a>
</g>
</g>
<!-- Node4&#45;&gt;Node3 -->
<g id="edge3" class="edge"><title>Node4&#45;&gt;Node3</title>
<path fill="none" stroke="#9a32cd" stroke-dasharray="5,2" d="M532.074,-325.722C565.633,-319.071 603.96,-305.515 628,-278 656.849,-244.98 619.111,-215.635 646,-181 651.003,-174.555 658.708,-170.211 666.094,-167.324"/>
<polygon fill="#9a32cd" stroke="#9a32cd" points="531.052,-322.35 521.833,-327.572 532.296,-329.238 531.052,-322.35"/>
<text text-anchor="middle" x="591" y="-322" font-family="Helvetica,sans-Serif" font-size="10.00"> gravity</text>
</g>
<!-- Node5 -->
<g id="node5" class="node"><title>Node5</title>
<g id="a_node5"><a xlink:href="classse3_1_1MotionBase.html" target="_top" xlink:title="MotionBase\&lt; MotionTpl\l\&lt; double, _Options \&gt; \&gt;">
<polygon fill="white" stroke="black" points="188,-331 188,-361 308,-361 308,-331 188,-331"/>
<text text-anchor="start" x="196" y="-349" font-family="Helvetica,sans-Serif" font-size="10.00">MotionBase&lt; MotionTpl</text>
<text text-anchor="middle" x="248" y="-338" font-family="Helvetica,sans-Serif" font-size="10.00">&lt; double, _Options &gt; &gt;</text>
</a>
</g>
</g>
<!-- Node5&#45;&gt;Node4 -->
<g id="edge4" class="edge"><title>Node5&#45;&gt;Node4</title>
<path fill="none" stroke="midnightblue" d="M318.117,-341.457C345.969,-339.626 377.727,-337.539 404.309,-335.792"/>
<polygon fill="midnightblue" stroke="midnightblue" points="317.798,-337.97 308.05,-342.119 318.258,-344.955 317.798,-337.97"/>
</g>
<!-- Node6 -->
<g id="node6" class="node"><title>Node6</title>
<g id="a_node6"><a xlink:href="classse3_1_1container_1_1aligned__vector.html" target="_top" xlink:title="aligned_vector\&lt; se3\l::SE3Tpl \&gt;">
<polygon fill="white" stroke="black" points="411,-260 411,-290 515,-290 515,-260 411,-260"/>
<text text-anchor="start" x="419" y="-278" font-family="Helvetica,sans-Serif" font-size="10.00">aligned_vector&lt; se3</text>
<text text-anchor="middle" x="463" y="-267" font-family="Helvetica,sans-Serif" font-size="10.00">::SE3Tpl &gt;</text>
</a>
</g>
</g>
<!-- Node6&#45;&gt;Node3 -->
<g id="edge5" class="edge"><title>Node6&#45;&gt;Node3</title>
<path fill="none" stroke="#9a32cd" stroke-dasharray="5,2" d="M525.475,-269.65C559.349,-263.777 600.067,-251.522 628,-226 643.903,-211.47 631.181,-196.633 646,-181 651.505,-175.192 659.132,-170.997 666.316,-168.05"/>
<polygon fill="#9a32cd" stroke="#9a32cd" points="524.534,-266.255 515.204,-271.275 525.628,-273.169 524.534,-266.255"/>
<text text-anchor="middle" x="591" y="-266" font-family="Helvetica,sans-Serif" font-size="10.00"> jointPlacements</text>
</g>
<!-- Node7 -->
<g id="node7" class="node"><title>Node7</title>
<g id="a_node7"><a xlink:title="STL class. ">
<polygon fill="white" stroke="#bfbfbf" points="186.5,-271.5 186.5,-312.5 309.5,-312.5 309.5,-271.5 186.5,-271.5"/>
<text text-anchor="start" x="194.5" y="-300.5" font-family="Helvetica,sans-Serif" font-size="10.00">vector&lt; se3::SE3Tpl,</text>
<text text-anchor="start" x="194.5" y="-289.5" font-family="Helvetica,sans-Serif" font-size="10.00"> Eigen::aligned_allocator</text>
<text text-anchor="middle" x="248" y="-278.5" font-family="Helvetica,sans-Serif" font-size="10.00">&lt; se3::SE3Tpl &gt; &gt;</text>
</a>
</g>
</g>
<!-- Node7&#45;&gt;Node6 -->
<g id="edge6" class="edge"><title>Node7&#45;&gt;Node6</title>
<path fill="none" stroke="midnightblue" d="M320.077,-286.327C349.806,-283.954 383.691,-281.25 410.894,-279.079"/>
<polygon fill="midnightblue" stroke="midnightblue" points="319.442,-282.867 309.752,-287.151 319.999,-289.844 319.442,-282.867"/>
</g>
<!-- Node8 -->
<g id="node8" class="node"><title>Node8</title>
<polygon fill="white" stroke="#bfbfbf" points="38.5,-173.5 38.5,-192.5 67.5,-192.5 67.5,-173.5 38.5,-173.5"/>
<text text-anchor="middle" x="53" y="-180.5" font-family="Helvetica,sans-Serif" font-size="10.00">T</text>
</g>
<!-- Node8&#45;&gt;Node7 -->
<g id="edge7" class="edge"><title>Node8&#45;&gt;Node7</title>
<path fill="none" stroke="#9a32cd" stroke-dasharray="5,2" d="M76.2334,-197.449C89.8904,-206.206 107.812,-217.485 124,-227 151.093,-242.925 158.21,-246.324 186,-261 192.513,-264.44 199.449,-268.031 206.221,-271.5"/>
<polygon fill="#9a32cd" stroke="#9a32cd" points="77.8354,-194.318 67.5337,-191.843 74.0435,-200.202 77.8354,-194.318"/>
<text text-anchor="middle" x="146" y="-254" font-family="Helvetica,sans-Serif" font-size="10.00"> elements</text>
</g>
<!-- Node10 -->
<g id="node10" class="node"><title>Node10</title>
<g id="a_node10"><a xlink:title="STL class. ">
<polygon fill="white" stroke="#bfbfbf" points="186.5,-211.5 186.5,-252.5 309.5,-252.5 309.5,-211.5 186.5,-211.5"/>
<text text-anchor="start" x="194.5" y="-240.5" font-family="Helvetica,sans-Serif" font-size="10.00">vector&lt; JointModel,</text>
<text text-anchor="start" x="194.5" y="-229.5" font-family="Helvetica,sans-Serif" font-size="10.00"> Eigen::aligned_allocator</text>
<text text-anchor="middle" x="248" y="-218.5" font-family="Helvetica,sans-Serif" font-size="10.00">&lt; JointModel &gt; &gt;</text>
</a>
</g>
</g>
<!-- Node8&#45;&gt;Node10 -->
<g id="edge10" class="edge"><title>Node8&#45;&gt;Node10</title>
<path fill="none" stroke="#9a32cd" stroke-dasharray="5,2" d="M77.5943,-188.99C104.509,-195.824 149.562,-207.262 186.442,-216.625"/>
<polygon fill="#9a32cd" stroke="#9a32cd" points="78.1252,-185.514 67.5714,-186.446 76.4026,-192.299 78.1252,-185.514"/>
<text text-anchor="middle" x="146" y="-215" font-family="Helvetica,sans-Serif" font-size="10.00"> elements</text>
</g>
<!-- Node16 -->
<g id="node16" class="node"><title>Node16</title>
<g id="a_node16"><a xlink:title="STL class. ">
<polygon fill="white" stroke="#bfbfbf" points="214,-173.5 214,-192.5 282,-192.5 282,-173.5 214,-173.5"/>
<text text-anchor="middle" x="248" y="-180.5" font-family="Helvetica,sans-Serif" font-size="10.00">vector&lt; T &gt;</text>
</a>
</g>
</g>
<!-- Node8&#45;&gt;Node16 -->
<g id="edge17" class="edge"><title>Node8&#45;&gt;Node16</title>
<path fill="none" stroke="#9a32cd" stroke-dasharray="5,2" d="M78.0026,-183C112.236,-183 175.209,-183 213.866,-183"/>
<polygon fill="#9a32cd" stroke="#9a32cd" points="77.5714,-179.5 67.5714,-183 77.5714,-186.5 77.5714,-179.5"/>
<text text-anchor="middle" x="146" y="-186" font-family="Helvetica,sans-Serif" font-size="10.00"> elements</text>
</g>
<!-- Node18 -->
<g id="node18" class="node"><title>Node18</title>
<g id="a_node18"><a xlink:title="STL class. ">
<polygon fill="white" stroke="#bfbfbf" points="186.5,-113.5 186.5,-154.5 309.5,-154.5 309.5,-113.5 186.5,-113.5"/>
<text text-anchor="start" x="194.5" y="-142.5" font-family="Helvetica,sans-Serif" font-size="10.00">vector&lt; se3::FrameTpl,</text>
<text text-anchor="start" x="194.5" y="-131.5" font-family="Helvetica,sans-Serif" font-size="10.00"> Eigen::aligned_allocator</text>
<text text-anchor="middle" x="248" y="-120.5" font-family="Helvetica,sans-Serif" font-size="10.00">&lt; se3::FrameTpl &gt; &gt;</text>
</a>
</g>
</g>
<!-- Node8&#45;&gt;Node18 -->
<g id="edge20" class="edge"><title>Node8&#45;&gt;Node18</title>
<path fill="none" stroke="#9a32cd" stroke-dasharray="5,2" d="M77.5943,-177.01C104.509,-170.176 149.562,-158.738 186.442,-149.375"/>
<polygon fill="#9a32cd" stroke="#9a32cd" points="76.4026,-173.701 67.5714,-179.554 78.1252,-180.486 76.4026,-173.701"/>
<text text-anchor="middle" x="146" y="-168" font-family="Helvetica,sans-Serif" font-size="10.00"> elements</text>
</g>
<!-- Node20 -->
<g id="node20" class="node"><title>Node20</title>
<g id="a_node20"><a xlink:title="STL class. ">
<polygon fill="white" stroke="#bfbfbf" points="186.5,-53.5 186.5,-94.5 309.5,-94.5 309.5,-53.5 186.5,-53.5"/>
<text text-anchor="start" x="194.5" y="-82.5" font-family="Helvetica,sans-Serif" font-size="10.00">vector&lt; se3::InertiaTpl,</text>
<text text-anchor="start" x="194.5" y="-71.5" font-family="Helvetica,sans-Serif" font-size="10.00"> Eigen::aligned_allocator</text>
<text text-anchor="middle" x="248" y="-60.5" font-family="Helvetica,sans-Serif" font-size="10.00">&lt; se3::InertiaTpl &gt; &gt;</text>
</a>
</g>
</g>
<!-- Node8&#45;&gt;Node20 -->
<g id="edge23" class="edge"><title>Node8&#45;&gt;Node20</title>
<path fill="none" stroke="#9a32cd" stroke-dasharray="5,2" d="M76.3083,-168.756C102.256,-152.399 146.577,-125.107 186,-104 191.826,-100.881 198.023,-97.6903 204.148,-94.6095"/>
<polygon fill="#9a32cd" stroke="#9a32cd" points="74.1992,-165.949 67.6231,-174.256 77.9442,-171.863 74.1992,-165.949"/>
<text text-anchor="middle" x="146" y="-141" font-family="Helvetica,sans-Serif" font-size="10.00"> elements</text>
</g>
<!-- Node9 -->
<g id="node9" class="node"><title>Node9</title>
<g id="a_node9"><a xlink:href="classse3_1_1container_1_1aligned__vector.html" target="_top" xlink:title="aligned_vector\&lt; JointModel \&gt;">
<polygon fill="white" stroke="black" points="390.5,-214.5 390.5,-233.5 535.5,-233.5 535.5,-214.5 390.5,-214.5"/>
<text text-anchor="middle" x="463" y="-221.5" font-family="Helvetica,sans-Serif" font-size="10.00">aligned_vector&lt; JointModel &gt;</text>
</a>
</g>
</g>
<!-- Node9&#45;&gt;Node3 -->
<g id="edge8" class="edge"><title>Node9&#45;&gt;Node3</title>
<path fill="none" stroke="#9a32cd" stroke-dasharray="5,2" d="M545.645,-212.695C572.377,-207.649 601.9,-200.611 628,-191 636.588,-187.838 637.843,-185.149 646,-181 652.573,-177.657 659.847,-174.207 666.421,-171.18"/>
<polygon fill="#9a32cd" stroke="#9a32cd" points="544.761,-209.298 535.549,-214.532 546.014,-216.185 544.761,-209.298"/>
<text text-anchor="middle" x="591" y="-214" font-family="Helvetica,sans-Serif" font-size="10.00"> joints</text>
</g>
<!-- Node10&#45;&gt;Node9 -->
<g id="edge9" class="edge"><title>Node10&#45;&gt;Node9</title>
<path fill="none" stroke="midnightblue" d="M319.951,-229.335C342.555,-228.486 367.572,-227.547 390.234,-226.695"/>
<polygon fill="midnightblue" stroke="midnightblue" points="319.614,-225.845 309.752,-229.718 319.877,-232.84 319.614,-225.845"/>
</g>
<!-- Node11 -->
<g id="node11" class="node"><title>Node11</title>
<polygon fill="white" stroke="#bfbfbf" points="409.5,-38.5 409.5,-57.5 516.5,-57.5 516.5,-38.5 409.5,-38.5"/>
<text text-anchor="middle" x="463" y="-45.5" font-family="Helvetica,sans-Serif" font-size="10.00">vector&lt; JointIndex &gt;</text>
</g>
<!-- Node11&#45;&gt;Node3 -->
<g id="edge11" class="edge"><title>Node11&#45;&gt;Node3</title>
<path fill="none" stroke="#9a32cd" stroke-dasharray="5,2" d="M526.971,-56.1477C559.111,-62.484 597.709,-73.61 628,-93 652.425,-108.635 672.219,-137.44 681.42,-152.406"/>
<polygon fill="#9a32cd" stroke="#9a32cd" points="527.252,-52.6402 516.781,-54.2543 525.974,-59.5224 527.252,-52.6402"/>
<text text-anchor="middle" x="591" y="-96" font-family="Helvetica,sans-Serif" font-size="10.00"> parents</text>
</g>
<!-- Node12 -->
<g id="node12" class="node"><title>Node12</title>
<polygon fill="white" stroke="#bfbfbf" points="410.5,-0.5 410.5,-19.5 515.5,-19.5 515.5,-0.5 410.5,-0.5"/>
<text text-anchor="middle" x="463" y="-7.5" font-family="Helvetica,sans-Serif" font-size="10.00">vector&lt; std::string &gt;</text>
</g>
<!-- Node12&#45;&gt;Node3 -->
<g id="edge12" class="edge"><title>Node12&#45;&gt;Node3</title>
<path fill="none" stroke="#9a32cd" stroke-dasharray="5,2" d="M525.808,-12.0131C559.044,-15.9238 599.03,-25.4954 628,-48 663.374,-75.4795 679.571,-130.085 684.899,-152.28"/>
<polygon fill="#9a32cd" stroke="#9a32cd" points="526.036,-8.51817 515.73,-10.9731 525.318,-15.4812 526.036,-8.51817"/>
<text text-anchor="middle" x="591" y="-51" font-family="Helvetica,sans-Serif" font-size="10.00"> names</text>
</g>
<!-- Node13 -->
<g id="node13" class="node"><title>Node13</title>
<g id="a_node13"><a xlink:title="STL class. ">
<polygon fill="white" stroke="#bfbfbf" points="227.5,-0.5 227.5,-19.5 268.5,-19.5 268.5,-0.5 227.5,-0.5"/>
<text text-anchor="middle" x="248" y="-7.5" font-family="Helvetica,sans-Serif" font-size="10.00">string</text>
</a>
</g>
</g>
<!-- Node13&#45;&gt;Node12 -->
<g id="edge13" class="edge"><title>Node13&#45;&gt;Node12</title>
<path fill="none" stroke="#9a32cd" stroke-dasharray="5,2" d="M278.885,-10C312.935,-10 369.184,-10 410.371,-10"/>
<polygon fill="#9a32cd" stroke="#9a32cd" points="278.657,-6.5001 268.657,-10 278.657,-13.5001 278.657,-6.5001"/>
<text text-anchor="middle" x="350" y="-13" font-family="Helvetica,sans-Serif" font-size="10.00"> elements</text>
</g>
<!-- Node14 -->
<g id="node14" class="node"><title>Node14</title>
<g id="a_node14"><a xlink:title="STL class. ">
<polygon fill="white" stroke="#bfbfbf" points="0,-0.5 0,-19.5 106,-19.5 106,-0.5 0,-0.5"/>
<text text-anchor="middle" x="53" y="-7.5" font-family="Helvetica,sans-Serif" font-size="10.00">basic_string&lt; char &gt;</text>
</a>
</g>
</g>
<!-- Node14&#45;&gt;Node13 -->
<g id="edge14" class="edge"><title>Node14&#45;&gt;Node13</title>
<path fill="none" stroke="midnightblue" d="M116.304,-10C154.707,-10 201.408,-10 227.302,-10"/>
<polygon fill="midnightblue" stroke="midnightblue" points="116.229,-6.5001 106.229,-10 116.229,-13.5001 116.229,-6.5001"/>
</g>
<!-- Node15 -->
<g id="node15" class="node"><title>Node15</title>
<polygon fill="white" stroke="#bfbfbf" points="406,-175.5 406,-194.5 520,-194.5 520,-175.5 406,-175.5"/>
<text text-anchor="middle" x="463" y="-182.5" font-family="Helvetica,sans-Serif" font-size="10.00">vector&lt; IndexVector &gt;</text>
</g>
<!-- Node15&#45;&gt;Node3 -->
<g id="edge15" class="edge"><title>Node15&#45;&gt;Node3</title>
<path fill="none" stroke="#9a32cd" stroke-dasharray="5,2" d="M530.272,-178.165C576.697,-173.377 635.719,-167.289 666.389,-164.126"/>
<polygon fill="#9a32cd" stroke="#9a32cd" points="529.86,-174.689 520.272,-179.196 530.579,-181.652 529.86,-174.689"/>
<text text-anchor="middle" x="591" y="-179" font-family="Helvetica,sans-Serif" font-size="10.00"> subtrees</text>
</g>
<!-- Node16&#45;&gt;Node15 -->
<g id="edge16" class="edge"><title>Node16&#45;&gt;Node15</title>
<path fill="none" stroke="#9a32cd" stroke-dasharray="5,2" d="M292.44,-183.408C325.157,-183.715 370.284,-184.139 405.758,-184.472"/>
<polygon fill="#9a32cd" stroke="#9a32cd" points="292.314,-179.907 282.281,-183.312 292.248,-186.906 292.314,-179.907"/>
<text text-anchor="middle" x="350" y="-188" font-family="Helvetica,sans-Serif" font-size="10.00"> elements</text>
</g>
<!-- Node17 -->
<g id="node17" class="node"><title>Node17</title>
<g id="a_node17"><a xlink:href="classse3_1_1container_1_1aligned__vector.html" target="_top" xlink:title="aligned_vector\&lt; se3\l::FrameTpl \&gt;">
<polygon fill="white" stroke="black" points="411,-126 411,-156 515,-156 515,-126 411,-126"/>
<text text-anchor="start" x="419" y="-144" font-family="Helvetica,sans-Serif" font-size="10.00">aligned_vector&lt; se3</text>
<text text-anchor="middle" x="463" y="-133" font-family="Helvetica,sans-Serif" font-size="10.00">::FrameTpl &gt;</text>
</a>
</g>
</g>
<!-- Node17&#45;&gt;Node3 -->
<g id="edge18" class="edge"><title>Node17&#45;&gt;Node3</title>
<path fill="none" stroke="#9a32cd" stroke-dasharray="5,2" d="M525.363,-141.551C556.262,-142.447 594.237,-144.49 628,-149 640.892,-150.722 655.137,-153.826 666.4,-156.569"/>
<polygon fill="#9a32cd" stroke="#9a32cd" points="525.259,-138.047 515.172,-141.289 525.079,-145.045 525.259,-138.047"/>
<text text-anchor="middle" x="591" y="-152" font-family="Helvetica,sans-Serif" font-size="10.00"> frames</text>
</g>
<!-- Node18&#45;&gt;Node17 -->
<g id="edge19" class="edge"><title>Node18&#45;&gt;Node17</title>
<path fill="none" stroke="midnightblue" d="M320.077,-136.336C349.806,-137.313 383.691,-138.426 410.894,-139.32"/>
<polygon fill="midnightblue" stroke="midnightblue" points="319.862,-132.827 309.752,-135.997 319.632,-139.823 319.862,-132.827"/>
</g>
<!-- Node19 -->
<g id="node19" class="node"><title>Node19</title>
<g id="a_node19"><a xlink:href="classse3_1_1container_1_1aligned__vector.html" target="_top" xlink:title="aligned_vector\&lt; se3\l::InertiaTpl \&gt;">
<polygon fill="white" stroke="black" points="411,-77 411,-107 515,-107 515,-77 411,-77"/>
<text text-anchor="start" x="419" y="-95" font-family="Helvetica,sans-Serif" font-size="10.00">aligned_vector&lt; se3</text>
<text text-anchor="middle" x="463" y="-84" font-family="Helvetica,sans-Serif" font-size="10.00">::InertiaTpl &gt;</text>
</a>
</g>
</g>
<!-- Node19&#45;&gt;Node3 -->
<g id="edge21" class="edge"><title>Node19&#45;&gt;Node3</title>
<path fill="none" stroke="#9a32cd" stroke-dasharray="5,2" d="M524.995,-100.798C556.439,-106.472 595.009,-115.225 628,-128 644.316,-134.318 661.486,-144.695 673.07,-152.325"/>
<polygon fill="#9a32cd" stroke="#9a32cd" points="525.505,-97.3345 515.052,-99.0632 524.302,-104.23 525.505,-97.3345"/>
<text text-anchor="middle" x="591" y="-131" font-family="Helvetica,sans-Serif" font-size="10.00"> inertias</text>
</g>
<!-- Node20&#45;&gt;Node19 -->
<g id="edge22" class="edge"><title>Node20&#45;&gt;Node19</title>
<path fill="none" stroke="midnightblue" d="M320.077,-80.0065C349.806,-82.5188 383.691,-85.3823 410.894,-87.6812"/>
<polygon fill="midnightblue" stroke="midnightblue" points="320.011,-76.4886 309.752,-79.134 319.422,-83.4637 320.011,-76.4886"/>
</g>
</g>
</svg>
