<?xml version="1.0" encoding="UTF-8" standalone="no"?>
<!DOCTYPE svg PUBLIC "-//W3C//DTD SVG 1.1//EN"
 "http://www.w3.org/Graphics/SVG/1.1/DTD/svg11.dtd">
<!-- Generated by graphviz version 2.36.0 (20140111.2315)
 -->
<!-- Title: JointModelPlanar Pages: 1 -->
<svg width="150pt" height="166pt"
 viewBox="0.00 0.00 150.00 166.00" xmlns="http://www.w3.org/2000/svg" xmlns:xlink="http://www.w3.org/1999/xlink">
<g id="graph0" class="graph" transform="scale(1 1) rotate(0) translate(4 162)">
<title>JointModelPlanar</title>
<polygon fill="white" stroke="none" points="-4,4 -4,-162 146,-162 146,4 -4,4"/>
<!-- Node1 -->
<g id="node1" class="node"><title>Node1</title>
<polygon fill="#bfbfbf" stroke="black" points="25,-0.5 25,-19.5 117,-19.5 117,-0.5 25,-0.5"/>
<text text-anchor="middle" x="71" y="-7.5" font-family="Helvetica,sans-Serif" font-size="10.00">JointModelPlanar</text>
</g>
<!-- Node2 -->
<g id="node2" class="node"><title>Node2</title>
<g id="a_node2"><a xlink:href="structse3_1_1JointModelBase.html" target="_top" xlink:title="JointModelBase\&lt; JointModel\lPlanar \&gt;">
<polygon fill="white" stroke="black" points="-0.5,-59 -0.5,-89 142.5,-89 142.5,-59 -0.5,-59"/>
<text text-anchor="start" x="7.5" y="-77" font-family="Helvetica,sans-Serif" font-size="10.00">JointModelBase&lt; JointModel</text>
<text text-anchor="middle" x="71" y="-66" font-family="Helvetica,sans-Serif" font-size="10.00">Planar &gt;</text>
</a>
</g>
</g>
<!-- Node2&#45;&gt;Node1 -->
<g id="edge1" class="edge"><title>Node2&#45;&gt;Node1</title>
<path fill="none" stroke="midnightblue" d="M71,-48.8706C71,-38.6625 71,-27.4077 71,-19.8419"/>
<polygon fill="midnightblue" stroke="midnightblue" points="67.5001,-48.9312 71,-58.9312 74.5001,-48.9313 67.5001,-48.9312"/>
</g>
<!-- Node3 -->
<g id="node3" class="node"><title>Node3</title>
<g id="a_node3"><a xlink:href="structse3_1_1traits_3_01JointModelPlanar_01_4.html" target="_top" xlink:title="traits\&lt; JointModelPlanar \&gt;">
<polygon fill="white" stroke="black" points="5.5,-138.5 5.5,-157.5 136.5,-157.5 136.5,-138.5 5.5,-138.5"/>
<text text-anchor="middle" x="71" y="-145.5" font-family="Helvetica,sans-Serif" font-size="10.00">traits&lt; JointModelPlanar &gt;</text>
</a>
</g>
</g>
<!-- Node3&#45;&gt;Node2 -->
<g id="edge2" class="edge"><title>Node3&#45;&gt;Node2</title>
<path fill="none" stroke="#9a32cd" stroke-dasharray="5,2" d="M71,-128.085C71,-115.915 71,-100.354 71,-89.2316"/>
<polygon fill="#9a32cd" stroke="#9a32cd" points="67.5001,-128.458 71,-138.458 74.5001,-128.458 67.5001,-128.458"/>
<text text-anchor="middle" x="100" y="-111.5" font-family="Helvetica,sans-Serif" font-size="10.00"> JointDerived</text>
</g>
</g>
</svg>
