<?xml version="1.0" encoding="UTF-8" standalone="no"?>
<!DOCTYPE svg PUBLIC "-//W3C//DTD SVG 1.1//EN"
 "http://www.w3.org/Graphics/SVG/1.1/DTD/svg11.dtd">
<!-- Generated by graphviz version 2.36.0 (20140111.2315)
 -->
<!-- Title: RandomConfigurationStep&lt; LieGroup_t &gt; Pages: 1 -->
<svg width="142pt" height="174pt"
 viewBox="0.00 0.00 142.00 174.00" xmlns="http://www.w3.org/2000/svg" xmlns:xlink="http://www.w3.org/1999/xlink">
<g id="graph0" class="graph" transform="scale(1 1) rotate(0) translate(4 170)">
<title>RandomConfigurationStep&lt; LieGroup_t &gt;</title>
<polygon fill="white" stroke="none" points="-4,4 -4,-170 138,-170 138,4 -4,4"/>
<!-- Node1 -->
<g id="node1" class="node"><title>Node1</title>
<polygon fill="#bfbfbf" stroke="black" points="1.5,-1 1.5,-31 132.5,-31 132.5,-1 1.5,-1"/>
<text text-anchor="start" x="9.5" y="-19" font-family="Helvetica,sans-Serif" font-size="10.00">RandomConfigurationStep</text>
<text text-anchor="middle" x="67" y="-8" font-family="Helvetica,sans-Serif" font-size="10.00">&lt; LieGroup_t &gt;</text>
</g>
<!-- Node2 -->
<g id="node2" class="node"><title>Node2</title>
<g id="a_node2"><a xlink:href="structse3_1_1fusion_1_1JointModelVisitor.html" target="_top" xlink:title="JointModelVisitor\&lt;\l RandomConfigurationStep\l\&lt; LieGroup_t \&gt; \&gt;">
<polygon fill="white" stroke="black" points="0,-68.5 0,-109.5 134,-109.5 134,-68.5 0,-68.5"/>
<text text-anchor="start" x="8" y="-97.5" font-family="Helvetica,sans-Serif" font-size="10.00">JointModelVisitor&lt;</text>
<text text-anchor="start" x="8" y="-86.5" font-family="Helvetica,sans-Serif" font-size="10.00"> RandomConfigurationStep</text>
<text text-anchor="middle" x="67" y="-75.5" font-family="Helvetica,sans-Serif" font-size="10.00">&lt; LieGroup_t &gt; &gt;</text>
</a>
</g>
</g>
<!-- Node2&#45;&gt;Node1 -->
<g id="edge1" class="edge"><title>Node2&#45;&gt;Node1</title>
<path fill="none" stroke="midnightblue" d="M67,-58.0188C67,-48.6567 67,-38.7696 67,-31.0485"/>
<polygon fill="midnightblue" stroke="midnightblue" points="63.5001,-58.2225 67,-68.2225 70.5001,-58.2226 63.5001,-58.2225"/>
</g>
<!-- Node3 -->
<g id="node3" class="node"><title>Node3</title>
<polygon fill="white" stroke="#bfbfbf" points="25,-146.5 25,-165.5 109,-165.5 109,-146.5 25,-146.5"/>
<text text-anchor="middle" x="67" y="-153.5" font-family="Helvetica,sans-Serif" font-size="10.00">static_visitor&lt;&gt;</text>
</g>
<!-- Node3&#45;&gt;Node2 -->
<g id="edge2" class="edge"><title>Node3&#45;&gt;Node2</title>
<path fill="none" stroke="midnightblue" d="M67,-136.037C67,-127.708 67,-117.936 67,-109.542"/>
<polygon fill="midnightblue" stroke="midnightblue" points="63.5001,-136.234 67,-146.234 70.5001,-136.234 63.5001,-136.234"/>
</g>
</g>
</svg>
