<?xml version="1.0" encoding="UTF-8" standalone="no"?>
<!DOCTYPE svg PUBLIC "-//W3C//DTD SVG 1.1//EN"
 "http://www.w3.org/Graphics/SVG/1.1/DTD/svg11.dtd">
<!-- Generated by graphviz version 2.36.0 (20140111.2315)
 -->
<!-- Title: AbaForwardStep1 Pages: 1 -->
<svg width="134pt" height="152pt"
 viewBox="0.00 0.00 134.00 152.00" xmlns="http://www.w3.org/2000/svg" xmlns:xlink="http://www.w3.org/1999/xlink">
<g id="graph0" class="graph" transform="scale(1 1) rotate(0) translate(4 148)">
<title>AbaForwardStep1</title>
<polygon fill="white" stroke="none" points="-4,4 -4,-148 130,-148 130,4 -4,4"/>
<!-- Node1 -->
<g id="node1" class="node"><title>Node1</title>
<polygon fill="#bfbfbf" stroke="black" points="15.5,-0.5 15.5,-19.5 110.5,-19.5 110.5,-0.5 15.5,-0.5"/>
<text text-anchor="middle" x="63" y="-7.5" font-family="Helvetica,sans-Serif" font-size="10.00">AbaForwardStep1</text>
</g>
<!-- Node2 -->
<g id="node2" class="node"><title>Node2</title>
<g id="a_node2"><a xlink:href="structse3_1_1fusion_1_1JointVisitor.html" target="_top" xlink:title="JointVisitor\&lt; AbaForward\lStep1 \&gt;">
<polygon fill="white" stroke="black" points="-0.5,-57 -0.5,-87 126.5,-87 126.5,-57 -0.5,-57"/>
<text text-anchor="start" x="7.5" y="-75" font-family="Helvetica,sans-Serif" font-size="10.00">JointVisitor&lt; AbaForward</text>
<text text-anchor="middle" x="63" y="-64" font-family="Helvetica,sans-Serif" font-size="10.00">Step1 &gt;</text>
</a>
</g>
</g>
<!-- Node2&#45;&gt;Node1 -->
<g id="edge1" class="edge"><title>Node2&#45;&gt;Node1</title>
<path fill="none" stroke="midnightblue" d="M63,-46.5858C63,-37.0743 63,-26.7864 63,-19.7305"/>
<polygon fill="midnightblue" stroke="midnightblue" points="59.5001,-46.7808 63,-56.7808 66.5001,-46.7809 59.5001,-46.7808"/>
</g>
<!-- Node3 -->
<g id="node3" class="node"><title>Node3</title>
<polygon fill="white" stroke="#bfbfbf" points="21,-124.5 21,-143.5 105,-143.5 105,-124.5 21,-124.5"/>
<text text-anchor="middle" x="63" y="-131.5" font-family="Helvetica,sans-Serif" font-size="10.00">static_visitor&lt;&gt;</text>
</g>
<!-- Node3&#45;&gt;Node2 -->
<g id="edge2" class="edge"><title>Node3&#45;&gt;Node2</title>
<path fill="none" stroke="midnightblue" d="M63,-114.371C63,-105.585 63,-95.2721 63,-87.1408"/>
<polygon fill="midnightblue" stroke="midnightblue" points="59.5001,-114.403 63,-124.403 66.5001,-114.403 59.5001,-114.403"/>
</g>
</g>
</svg>
