<?xml version="1.0" encoding="UTF-8" standalone="no"?>
<!DOCTYPE svg PUBLIC "-//W3C//DTD SVG 1.1//EN"
 "http://www.w3.org/Graphics/SVG/1.1/DTD/svg11.dtd">
<!-- Generated by graphviz version 2.36.0 (20140111.2315)
 -->
<!-- Title: Model Pages: 1 -->
<svg width="698pt" height="369pt"
 viewBox="0.00 0.00 698.00 369.00" xmlns="http://www.w3.org/2000/svg" xmlns:xlink="http://www.w3.org/1999/xlink">
<g id="graph0" class="graph" transform="scale(1 1) rotate(0) translate(4 365)">
<title>Model</title>
<polygon fill="white" stroke="none" points="-4,4 -4,-365 694,-365 694,4 -4,4"/>
<!-- Node1 -->
<g id="node1" class="node"><title>Node1</title>
<polygon fill="#bfbfbf" stroke="black" points="646.5,-152.5 646.5,-171.5 689.5,-171.5 689.5,-152.5 646.5,-152.5"/>
<text text-anchor="middle" x="668" y="-159.5" font-family="Helvetica,sans-Serif" font-size="10.00">Model</text>
</g>
<!-- Node2 -->
<g id="node2" class="node"><title>Node2</title>
<g id="a_node2"><a xlink:href="classse3_1_1MotionTpl.html" target="_top" xlink:title="MotionTpl\&lt; double, 0 \&gt;">
<polygon fill="white" stroke="black" points="404.5,-322.5 404.5,-341.5 521.5,-341.5 521.5,-322.5 404.5,-322.5"/>
<text text-anchor="middle" x="463" y="-329.5" font-family="Helvetica,sans-Serif" font-size="10.00">MotionTpl&lt; double, 0 &gt;</text>
</a>
</g>
</g>
<!-- Node2&#45;&gt;Node1 -->
<g id="edge1" class="edge"><title>Node2&#45;&gt;Node1</title>
<path fill="none" stroke="#9a32cd" stroke-dasharray="5,2" d="M531.61,-322.614C564.485,-314.854 602.338,-300.718 628,-275 657.318,-245.618 664.63,-193.176 666.427,-171.638"/>
<polygon fill="#9a32cd" stroke="#9a32cd" points="530.599,-319.252 521.587,-324.823 532.106,-326.088 530.599,-319.252"/>
<text text-anchor="middle" x="591" y="-319" font-family="Helvetica,sans-Serif" font-size="10.00"> gravity</text>
</g>
<!-- Node3 -->
<g id="node3" class="node"><title>Node3</title>
<g id="a_node3"><a xlink:href="classse3_1_1MotionBase.html" target="_top" xlink:title="MotionBase\&lt; MotionTpl\l\&lt; double, _Options \&gt; \&gt;">
<polygon fill="white" stroke="black" points="188,-331 188,-361 308,-361 308,-331 188,-331"/>
<text text-anchor="start" x="196" y="-349" font-family="Helvetica,sans-Serif" font-size="10.00">MotionBase&lt; MotionTpl</text>
<text text-anchor="middle" x="248" y="-338" font-family="Helvetica,sans-Serif" font-size="10.00">&lt; double, _Options &gt; &gt;</text>
</a>
</g>
</g>
<!-- Node3&#45;&gt;Node2 -->
<g id="edge2" class="edge"><title>Node3&#45;&gt;Node2</title>
<path fill="none" stroke="midnightblue" d="M318.117,-341.457C345.969,-339.626 377.727,-337.539 404.309,-335.792"/>
<polygon fill="midnightblue" stroke="midnightblue" points="317.798,-337.97 308.05,-342.119 318.258,-344.955 317.798,-337.97"/>
</g>
<!-- Node4 -->
<g id="node4" class="node"><title>Node4</title>
<g id="a_node4"><a xlink:href="classse3_1_1container_1_1aligned__vector.html" target="_top" xlink:title="aligned_vector\&lt; se3\l::SE3Tpl \&gt;">
<polygon fill="white" stroke="black" points="411,-260 411,-290 515,-290 515,-260 411,-260"/>
<text text-anchor="start" x="419" y="-278" font-family="Helvetica,sans-Serif" font-size="10.00">aligned_vector&lt; se3</text>
<text text-anchor="middle" x="463" y="-267" font-family="Helvetica,sans-Serif" font-size="10.00">::SE3Tpl &gt;</text>
</a>
</g>
</g>
<!-- Node4&#45;&gt;Node1 -->
<g id="edge3" class="edge"><title>Node4&#45;&gt;Node1</title>
<path fill="none" stroke="#9a32cd" stroke-dasharray="5,2" d="M525.058,-268.107C558.243,-261.825 598.421,-249.84 628,-227 646.749,-212.522 658.413,-186.269 663.686,-171.957"/>
<polygon fill="#9a32cd" stroke="#9a32cd" points="524.244,-264.696 515.003,-269.879 525.459,-271.59 524.244,-264.696"/>
<text text-anchor="middle" x="591" y="-263" font-family="Helvetica,sans-Serif" font-size="10.00"> jointPlacements</text>
</g>
<!-- Node5 -->
<g id="node5" class="node"><title>Node5</title>
<g id="a_node5"><a xlink:title="STL class. ">
<polygon fill="white" stroke="#bfbfbf" points="186.5,-271.5 186.5,-312.5 309.5,-312.5 309.5,-271.5 186.5,-271.5"/>
<text text-anchor="start" x="194.5" y="-300.5" font-family="Helvetica,sans-Serif" font-size="10.00">vector&lt; se3::SE3Tpl,</text>
<text text-anchor="start" x="194.5" y="-289.5" font-family="Helvetica,sans-Serif" font-size="10.00"> Eigen::aligned_allocator</text>
<text text-anchor="middle" x="248" y="-278.5" font-family="Helvetica,sans-Serif" font-size="10.00">&lt; se3::SE3Tpl &gt; &gt;</text>
</a>
</g>
</g>
<!-- Node5&#45;&gt;Node4 -->
<g id="edge4" class="edge"><title>Node5&#45;&gt;Node4</title>
<path fill="none" stroke="midnightblue" d="M320.077,-286.327C349.806,-283.954 383.691,-281.25 410.894,-279.079"/>
<polygon fill="midnightblue" stroke="midnightblue" points="319.442,-282.867 309.752,-287.151 319.999,-289.844 319.442,-282.867"/>
</g>
<!-- Node6 -->
<g id="node6" class="node"><title>Node6</title>
<polygon fill="white" stroke="#bfbfbf" points="38.5,-173.5 38.5,-192.5 67.5,-192.5 67.5,-173.5 38.5,-173.5"/>
<text text-anchor="middle" x="53" y="-180.5" font-family="Helvetica,sans-Serif" font-size="10.00">T</text>
</g>
<!-- Node6&#45;&gt;Node5 -->
<g id="edge5" class="edge"><title>Node6&#45;&gt;Node5</title>
<path fill="none" stroke="#9a32cd" stroke-dasharray="5,2" d="M76.2334,-197.449C89.8904,-206.206 107.812,-217.485 124,-227 151.093,-242.925 158.21,-246.324 186,-261 192.513,-264.44 199.449,-268.031 206.221,-271.5"/>
<polygon fill="#9a32cd" stroke="#9a32cd" points="77.8354,-194.318 67.5337,-191.843 74.0435,-200.202 77.8354,-194.318"/>
<text text-anchor="middle" x="146" y="-254" font-family="Helvetica,sans-Serif" font-size="10.00"> elements</text>
</g>
<!-- Node8 -->
<g id="node8" class="node"><title>Node8</title>
<g id="a_node8"><a xlink:title="STL class. ">
<polygon fill="white" stroke="#bfbfbf" points="186.5,-211.5 186.5,-252.5 309.5,-252.5 309.5,-211.5 186.5,-211.5"/>
<text text-anchor="start" x="194.5" y="-240.5" font-family="Helvetica,sans-Serif" font-size="10.00">vector&lt; JointModel,</text>
<text text-anchor="start" x="194.5" y="-229.5" font-family="Helvetica,sans-Serif" font-size="10.00"> Eigen::aligned_allocator</text>
<text text-anchor="middle" x="248" y="-218.5" font-family="Helvetica,sans-Serif" font-size="10.00">&lt; JointModel &gt; &gt;</text>
</a>
</g>
</g>
<!-- Node6&#45;&gt;Node8 -->
<g id="edge8" class="edge"><title>Node6&#45;&gt;Node8</title>
<path fill="none" stroke="#9a32cd" stroke-dasharray="5,2" d="M77.5943,-188.99C104.509,-195.824 149.562,-207.262 186.442,-216.625"/>
<polygon fill="#9a32cd" stroke="#9a32cd" points="78.1252,-185.514 67.5714,-186.446 76.4026,-192.299 78.1252,-185.514"/>
<text text-anchor="middle" x="146" y="-215" font-family="Helvetica,sans-Serif" font-size="10.00"> elements</text>
</g>
<!-- Node14 -->
<g id="node14" class="node"><title>Node14</title>
<g id="a_node14"><a xlink:title="STL class. ">
<polygon fill="white" stroke="#bfbfbf" points="214,-173.5 214,-192.5 282,-192.5 282,-173.5 214,-173.5"/>
<text text-anchor="middle" x="248" y="-180.5" font-family="Helvetica,sans-Serif" font-size="10.00">vector&lt; T &gt;</text>
</a>
</g>
</g>
<!-- Node6&#45;&gt;Node14 -->
<g id="edge15" class="edge"><title>Node6&#45;&gt;Node14</title>
<path fill="none" stroke="#9a32cd" stroke-dasharray="5,2" d="M78.0026,-183C112.236,-183 175.209,-183 213.866,-183"/>
<polygon fill="#9a32cd" stroke="#9a32cd" points="77.5714,-179.5 67.5714,-183 77.5714,-186.5 77.5714,-179.5"/>
<text text-anchor="middle" x="146" y="-186" font-family="Helvetica,sans-Serif" font-size="10.00"> elements</text>
</g>
<!-- Node16 -->
<g id="node16" class="node"><title>Node16</title>
<g id="a_node16"><a xlink:title="STL class. ">
<polygon fill="white" stroke="#bfbfbf" points="186.5,-113.5 186.5,-154.5 309.5,-154.5 309.5,-113.5 186.5,-113.5"/>
<text text-anchor="start" x="194.5" y="-142.5" font-family="Helvetica,sans-Serif" font-size="10.00">vector&lt; se3::FrameTpl,</text>
<text text-anchor="start" x="194.5" y="-131.5" font-family="Helvetica,sans-Serif" font-size="10.00"> Eigen::aligned_allocator</text>
<text text-anchor="middle" x="248" y="-120.5" font-family="Helvetica,sans-Serif" font-size="10.00">&lt; se3::FrameTpl &gt; &gt;</text>
</a>
</g>
</g>
<!-- Node6&#45;&gt;Node16 -->
<g id="edge18" class="edge"><title>Node6&#45;&gt;Node16</title>
<path fill="none" stroke="#9a32cd" stroke-dasharray="5,2" d="M77.5943,-177.01C104.509,-170.176 149.562,-158.738 186.442,-149.375"/>
<polygon fill="#9a32cd" stroke="#9a32cd" points="76.4026,-173.701 67.5714,-179.554 78.1252,-180.486 76.4026,-173.701"/>
<text text-anchor="middle" x="146" y="-168" font-family="Helvetica,sans-Serif" font-size="10.00"> elements</text>
</g>
<!-- Node18 -->
<g id="node18" class="node"><title>Node18</title>
<g id="a_node18"><a xlink:title="STL class. ">
<polygon fill="white" stroke="#bfbfbf" points="186.5,-53.5 186.5,-94.5 309.5,-94.5 309.5,-53.5 186.5,-53.5"/>
<text text-anchor="start" x="194.5" y="-82.5" font-family="Helvetica,sans-Serif" font-size="10.00">vector&lt; se3::InertiaTpl,</text>
<text text-anchor="start" x="194.5" y="-71.5" font-family="Helvetica,sans-Serif" font-size="10.00"> Eigen::aligned_allocator</text>
<text text-anchor="middle" x="248" y="-60.5" font-family="Helvetica,sans-Serif" font-size="10.00">&lt; se3::InertiaTpl &gt; &gt;</text>
</a>
</g>
</g>
<!-- Node6&#45;&gt;Node18 -->
<g id="edge21" class="edge"><title>Node6&#45;&gt;Node18</title>
<path fill="none" stroke="#9a32cd" stroke-dasharray="5,2" d="M76.3083,-168.756C102.256,-152.399 146.577,-125.107 186,-104 191.826,-100.881 198.023,-97.6903 204.148,-94.6095"/>
<polygon fill="#9a32cd" stroke="#9a32cd" points="74.1992,-165.949 67.6231,-174.256 77.9442,-171.863 74.1992,-165.949"/>
<text text-anchor="middle" x="146" y="-141" font-family="Helvetica,sans-Serif" font-size="10.00"> elements</text>
</g>
<!-- Node7 -->
<g id="node7" class="node"><title>Node7</title>
<g id="a_node7"><a xlink:href="classse3_1_1container_1_1aligned__vector.html" target="_top" xlink:title="aligned_vector\&lt; JointModel \&gt;">
<polygon fill="white" stroke="black" points="390.5,-214.5 390.5,-233.5 535.5,-233.5 535.5,-214.5 390.5,-214.5"/>
<text text-anchor="middle" x="463" y="-221.5" font-family="Helvetica,sans-Serif" font-size="10.00">aligned_vector&lt; JointModel &gt;</text>
</a>
</g>
</g>
<!-- Node7&#45;&gt;Node1 -->
<g id="edge6" class="edge"><title>Node7&#45;&gt;Node1</title>
<path fill="none" stroke="#9a32cd" stroke-dasharray="5,2" d="M545.979,-213.937C572.857,-208.836 602.383,-201.242 628,-190 638.38,-185.445 648.738,-177.827 656.168,-171.686"/>
<polygon fill="#9a32cd" stroke="#9a32cd" points="545.04,-210.55 535.821,-215.772 546.284,-217.438 545.04,-210.55"/>
<text text-anchor="middle" x="591" y="-215" font-family="Helvetica,sans-Serif" font-size="10.00"> joints</text>
</g>
<!-- Node8&#45;&gt;Node7 -->
<g id="edge7" class="edge"><title>Node8&#45;&gt;Node7</title>
<path fill="none" stroke="midnightblue" d="M319.951,-229.335C342.555,-228.486 367.572,-227.547 390.234,-226.695"/>
<polygon fill="midnightblue" stroke="midnightblue" points="319.614,-225.845 309.752,-229.718 319.877,-232.84 319.614,-225.845"/>
</g>
<!-- Node9 -->
<g id="node9" class="node"><title>Node9</title>
<polygon fill="white" stroke="#bfbfbf" points="409.5,-38.5 409.5,-57.5 516.5,-57.5 516.5,-38.5 409.5,-38.5"/>
<text text-anchor="middle" x="463" y="-45.5" font-family="Helvetica,sans-Serif" font-size="10.00">vector&lt; JointIndex &gt;</text>
</g>
<!-- Node9&#45;&gt;Node1 -->
<g id="edge9" class="edge"><title>Node9&#45;&gt;Node1</title>
<path fill="none" stroke="#9a32cd" stroke-dasharray="5,2" d="M526.864,-51.0918C559.875,-55.5387 599.311,-65.6192 628,-88 649.412,-104.704 660.352,-136.49 664.694,-152.411"/>
<polygon fill="#9a32cd" stroke="#9a32cd" points="527.191,-47.606 516.845,-49.8852 526.354,-54.5558 527.191,-47.606"/>
<text text-anchor="middle" x="591" y="-91" font-family="Helvetica,sans-Serif" font-size="10.00"> parents</text>
</g>
<!-- Node10 -->
<g id="node10" class="node"><title>Node10</title>
<polygon fill="white" stroke="#bfbfbf" points="410.5,-0.5 410.5,-19.5 515.5,-19.5 515.5,-0.5 410.5,-0.5"/>
<text text-anchor="middle" x="463" y="-7.5" font-family="Helvetica,sans-Serif" font-size="10.00">vector&lt; std::string &gt;</text>
</g>
<!-- Node10&#45;&gt;Node1 -->
<g id="edge10" class="edge"><title>Node10&#45;&gt;Node1</title>
<path fill="none" stroke="#9a32cd" stroke-dasharray="5,2" d="M526.048,-7.59026C559.918,-9.52875 600.442,-17.6032 628,-42 661.296,-71.4768 666.31,-129.661 666.959,-152.49"/>
<polygon fill="#9a32cd" stroke="#9a32cd" points="525.905,-4.08172 515.772,-7.17437 525.622,-11.076 525.905,-4.08172"/>
<text text-anchor="middle" x="591" y="-45" font-family="Helvetica,sans-Serif" font-size="10.00"> names</text>
</g>
<!-- Node11 -->
<g id="node11" class="node"><title>Node11</title>
<g id="a_node11"><a xlink:title="STL class. ">
<polygon fill="white" stroke="#bfbfbf" points="227.5,-0.5 227.5,-19.5 268.5,-19.5 268.5,-0.5 227.5,-0.5"/>
<text text-anchor="middle" x="248" y="-7.5" font-family="Helvetica,sans-Serif" font-size="10.00">string</text>
</a>
</g>
</g>
<!-- Node11&#45;&gt;Node10 -->
<g id="edge11" class="edge"><title>Node11&#45;&gt;Node10</title>
<path fill="none" stroke="#9a32cd" stroke-dasharray="5,2" d="M278.885,-10C312.935,-10 369.184,-10 410.371,-10"/>
<polygon fill="#9a32cd" stroke="#9a32cd" points="278.657,-6.5001 268.657,-10 278.657,-13.5001 278.657,-6.5001"/>
<text text-anchor="middle" x="350" y="-13" font-family="Helvetica,sans-Serif" font-size="10.00"> elements</text>
</g>
<!-- Node12 -->
<g id="node12" class="node"><title>Node12</title>
<g id="a_node12"><a xlink:title="STL class. ">
<polygon fill="white" stroke="#bfbfbf" points="0,-0.5 0,-19.5 106,-19.5 106,-0.5 0,-0.5"/>
<text text-anchor="middle" x="53" y="-7.5" font-family="Helvetica,sans-Serif" font-size="10.00">basic_string&lt; char &gt;</text>
</a>
</g>
</g>
<!-- Node12&#45;&gt;Node11 -->
<g id="edge12" class="edge"><title>Node12&#45;&gt;Node11</title>
<path fill="none" stroke="midnightblue" d="M116.304,-10C154.707,-10 201.408,-10 227.302,-10"/>
<polygon fill="midnightblue" stroke="midnightblue" points="116.229,-6.5001 106.229,-10 116.229,-13.5001 116.229,-6.5001"/>
</g>
<!-- Node13 -->
<g id="node13" class="node"><title>Node13</title>
<polygon fill="white" stroke="#bfbfbf" points="406,-175.5 406,-194.5 520,-194.5 520,-175.5 406,-175.5"/>
<text text-anchor="middle" x="463" y="-182.5" font-family="Helvetica,sans-Serif" font-size="10.00">vector&lt; IndexVector &gt;</text>
</g>
<!-- Node13&#45;&gt;Node1 -->
<g id="edge13" class="edge"><title>Node13&#45;&gt;Node1</title>
<path fill="none" stroke="#9a32cd" stroke-dasharray="5,2" d="M530.019,-177.52C570.187,-172.969 618.835,-167.457 646.013,-164.378"/>
<polygon fill="#9a32cd" stroke="#9a32cd" points="529.55,-174.051 520.008,-178.654 530.339,-181.006 529.55,-174.051"/>
<text text-anchor="middle" x="591" y="-178" font-family="Helvetica,sans-Serif" font-size="10.00"> subtrees</text>
</g>
<!-- Node14&#45;&gt;Node13 -->
<g id="edge14" class="edge"><title>Node14&#45;&gt;Node13</title>
<path fill="none" stroke="#9a32cd" stroke-dasharray="5,2" d="M292.44,-183.408C325.157,-183.715 370.284,-184.139 405.758,-184.472"/>
<polygon fill="#9a32cd" stroke="#9a32cd" points="292.314,-179.907 282.281,-183.312 292.248,-186.906 292.314,-179.907"/>
<text text-anchor="middle" x="350" y="-188" font-family="Helvetica,sans-Serif" font-size="10.00"> elements</text>
</g>
<!-- Node15 -->
<g id="node15" class="node"><title>Node15</title>
<g id="a_node15"><a xlink:href="classse3_1_1container_1_1aligned__vector.html" target="_top" xlink:title="aligned_vector\&lt; se3\l::FrameTpl \&gt;">
<polygon fill="white" stroke="black" points="411,-126 411,-156 515,-156 515,-126 411,-126"/>
<text text-anchor="start" x="419" y="-144" font-family="Helvetica,sans-Serif" font-size="10.00">aligned_vector&lt; se3</text>
<text text-anchor="middle" x="463" y="-133" font-family="Helvetica,sans-Serif" font-size="10.00">::FrameTpl &gt;</text>
</a>
</g>
</g>
<!-- Node15&#45;&gt;Node1 -->
<g id="edge16" class="edge"><title>Node15&#45;&gt;Node1</title>
<path fill="none" stroke="#9a32cd" stroke-dasharray="5,2" d="M525.256,-140.041C556.279,-140.55 594.394,-142.702 628,-149 634.033,-150.131 640.414,-151.969 646.228,-153.911"/>
<polygon fill="#9a32cd" stroke="#9a32cd" points="525.062,-136.538 515.024,-139.927 524.984,-143.538 525.062,-136.538"/>
<text text-anchor="middle" x="591" y="-152" font-family="Helvetica,sans-Serif" font-size="10.00"> frames</text>
</g>
<!-- Node16&#45;&gt;Node15 -->
<g id="edge17" class="edge"><title>Node16&#45;&gt;Node15</title>
<path fill="none" stroke="midnightblue" d="M320.077,-136.336C349.806,-137.313 383.691,-138.426 410.894,-139.32"/>
<polygon fill="midnightblue" stroke="midnightblue" points="319.862,-132.827 309.752,-135.997 319.632,-139.823 319.862,-132.827"/>
</g>
<!-- Node17 -->
<g id="node17" class="node"><title>Node17</title>
<g id="a_node17"><a xlink:href="classse3_1_1container_1_1aligned__vector.html" target="_top" xlink:title="aligned_vector\&lt; se3\l::InertiaTpl \&gt;">
<polygon fill="white" stroke="black" points="411,-77 411,-107 515,-107 515,-77 411,-77"/>
<text text-anchor="start" x="419" y="-95" font-family="Helvetica,sans-Serif" font-size="10.00">aligned_vector&lt; se3</text>
<text text-anchor="middle" x="463" y="-84" font-family="Helvetica,sans-Serif" font-size="10.00">::InertiaTpl &gt;</text>
</a>
</g>
</g>
<!-- Node17&#45;&gt;Node1 -->
<g id="edge19" class="edge"><title>Node17&#45;&gt;Node1</title>
<path fill="none" stroke="#9a32cd" stroke-dasharray="5,2" d="M525.181,-97.4035C557.16,-102.082 596.16,-110.793 628,-127 640.324,-133.273 651.762,-144.436 659.022,-152.47"/>
<polygon fill="#9a32cd" stroke="#9a32cd" points="525.444,-93.9071 515.063,-96.022 524.497,-100.843 525.444,-93.9071"/>
<text text-anchor="middle" x="591" y="-130" font-family="Helvetica,sans-Serif" font-size="10.00"> inertias</text>
</g>
<!-- Node18&#45;&gt;Node17 -->
<g id="edge20" class="edge"><title>Node18&#45;&gt;Node17</title>
<path fill="none" stroke="midnightblue" d="M320.077,-80.0065C349.806,-82.5188 383.691,-85.3823 410.894,-87.6812"/>
<polygon fill="midnightblue" stroke="midnightblue" points="320.011,-76.4886 309.752,-79.134 319.422,-83.4637 320.011,-76.4886"/>
</g>
</g>
</svg>
