<?xml version="1.0" encoding="UTF-8" standalone="no"?>
<!DOCTYPE svg PUBLIC "-//W3C//DTD SVG 1.1//EN"
 "http://www.w3.org/Graphics/SVG/1.1/DTD/svg11.dtd">
<!-- Generated by graphviz version 2.36.0 (20140111.2315)
 -->
<!-- Title: ConstraintRevolute&lt; axis &gt; Pages: 1 -->
<svg width="146pt" height="108pt"
 viewBox="0.00 0.00 146.00 108.00" xmlns="http://www.w3.org/2000/svg" xmlns:xlink="http://www.w3.org/1999/xlink">
<g id="graph0" class="graph" transform="scale(1 1) rotate(0) translate(4 104)">
<title>ConstraintRevolute&lt; axis &gt;</title>
<polygon fill="white" stroke="none" points="-4,4 -4,-104 142,-104 142,4 -4,4"/>
<!-- Node1 -->
<g id="node1" class="node"><title>Node1</title>
<polygon fill="#bfbfbf" stroke="black" points="18.5,-1 18.5,-31 119.5,-31 119.5,-1 18.5,-1"/>
<text text-anchor="start" x="26.5" y="-19" font-family="Helvetica,sans-Serif" font-size="10.00">ConstraintRevolute</text>
<text text-anchor="middle" x="69" y="-8" font-family="Helvetica,sans-Serif" font-size="10.00">&lt; axis &gt;</text>
</g>
<!-- Node2 -->
<g id="node2" class="node"><title>Node2</title>
<g id="a_node2"><a xlink:href="classse3_1_1ConstraintBase.html" target="_top" xlink:title="ConstraintBase\&lt; Constraint\lRevolute\&lt; axis \&gt; \&gt;">
<polygon fill="white" stroke="black" points="0,-69 0,-99 138,-99 138,-69 0,-69"/>
<text text-anchor="start" x="8" y="-87" font-family="Helvetica,sans-Serif" font-size="10.00">ConstraintBase&lt; Constraint</text>
<text text-anchor="middle" x="69" y="-76" font-family="Helvetica,sans-Serif" font-size="10.00">Revolute&lt; axis &gt; &gt;</text>
</a>
</g>
</g>
<!-- Node2&#45;&gt;Node1 -->
<g id="edge1" class="edge"><title>Node2&#45;&gt;Node1</title>
<path fill="none" stroke="midnightblue" d="M69,-58.5322C69,-49.3606 69,-39.2449 69,-31.2931"/>
<polygon fill="midnightblue" stroke="midnightblue" points="65.5001,-58.6789 69,-68.679 72.5001,-58.679 65.5001,-58.6789"/>
</g>
</g>
</svg>
