<?xml version="1.0" encoding="UTF-8" standalone="no"?>
<!DOCTYPE svg PUBLIC "-//W3C//DTD SVG 1.1//EN"
 "http://www.w3.org/Graphics/SVG/1.1/DTD/svg11.dtd">
<!-- Generated by graphviz version 2.36.0 (20140111.2315)
 -->
<!-- Title: JointData Pages: 1 -->
<svg width="255pt" height="154pt"
 viewBox="0.00 0.00 255.00 154.00" xmlns="http://www.w3.org/2000/svg" xmlns:xlink="http://www.w3.org/1999/xlink">
<g id="graph0" class="graph" transform="scale(1 1) rotate(0) translate(4 150)">
<title>JointData</title>
<polygon fill="white" stroke="none" points="-4,4 -4,-150 251,-150 251,4 -4,4"/>
<!-- Node1 -->
<g id="node1" class="node"><title>Node1</title>
<polygon fill="#bfbfbf" stroke="black" points="139.5,-0.5 139.5,-19.5 198.5,-19.5 198.5,-0.5 139.5,-0.5"/>
<text text-anchor="middle" x="169" y="-7.5" font-family="Helvetica,sans-Serif" font-size="10.00">JointData</text>
</g>
<!-- Node2 -->
<g id="node2" class="node"><title>Node2</title>
<g id="a_node2"><a xlink:href="structse3_1_1JointDataBase.html" target="_top" xlink:title="JointDataBase\&lt; JointData \&gt;">
<polygon fill="white" stroke="black" points="-0.5,-58.5 -0.5,-77.5 140.5,-77.5 140.5,-58.5 -0.5,-58.5"/>
<text text-anchor="middle" x="70" y="-65.5" font-family="Helvetica,sans-Serif" font-size="10.00">JointDataBase&lt; JointData &gt;</text>
</a>
</g>
</g>
<!-- Node2&#45;&gt;Node1 -->
<g id="edge1" class="edge"><title>Node2&#45;&gt;Node1</title>
<path fill="none" stroke="midnightblue" d="M93.8347,-53.5177C112.483,-42.9694 137.849,-28.621 153.823,-19.5852"/>
<polygon fill="midnightblue" stroke="midnightblue" points="92.0167,-50.5249 85.036,-58.4948 95.4632,-56.6177 92.0167,-50.5249"/>
</g>
<!-- Node3 -->
<g id="node3" class="node"><title>Node3</title>
<g id="a_node3"><a xlink:href="structse3_1_1traits_3_01JointData_01_4.html" target="_top" xlink:title="traits\&lt; JointData \&gt;">
<polygon fill="white" stroke="black" points="21,-126.5 21,-145.5 119,-145.5 119,-126.5 21,-126.5"/>
<text text-anchor="middle" x="70" y="-133.5" font-family="Helvetica,sans-Serif" font-size="10.00">traits&lt; JointData &gt;</text>
</a>
</g>
</g>
<!-- Node3&#45;&gt;Node2 -->
<g id="edge2" class="edge"><title>Node3&#45;&gt;Node2</title>
<path fill="none" stroke="#9a32cd" stroke-dasharray="5,2" d="M70,-116.041C70,-103.472 70,-87.5631 70,-77.8411"/>
<polygon fill="#9a32cd" stroke="#9a32cd" points="66.5001,-116.372 70,-126.372 73.5001,-116.372 66.5001,-116.372"/>
<text text-anchor="middle" x="99" y="-99.5" font-family="Helvetica,sans-Serif" font-size="10.00"> JointDerived</text>
</g>
<!-- Node4 -->
<g id="node4" class="node"><title>Node4</title>
<polygon fill="white" stroke="#bfbfbf" points="158.5,-58.5 158.5,-77.5 247.5,-77.5 247.5,-58.5 158.5,-58.5"/>
<text text-anchor="middle" x="203" y="-65.5" font-family="Helvetica,sans-Serif" font-size="10.00">JointDataVariant</text>
</g>
<!-- Node4&#45;&gt;Node1 -->
<g id="edge3" class="edge"><title>Node4&#45;&gt;Node1</title>
<path fill="none" stroke="midnightblue" d="M192.383,-49.514C186.317,-39.522 178.982,-27.4402 174.164,-19.5052"/>
<polygon fill="midnightblue" stroke="midnightblue" points="189.506,-51.5186 197.688,-58.25 195.489,-47.8857 189.506,-51.5186"/>
</g>
</g>
</svg>
