<?xml version="1.0" encoding="UTF-8" standalone="no"?>
<!DOCTYPE svg PUBLIC "-//W3C//DTD SVG 1.1//EN"
 "http://www.w3.org/Graphics/SVG/1.1/DTD/svg11.dtd">
<!-- Generated by graphviz version 2.36.0 (20140111.2315)
 -->
<!-- Title: GeometryData Pages: 1 -->
<svg width="682pt" height="280pt"
 viewBox="0.00 0.00 682.00 280.00" xmlns="http://www.w3.org/2000/svg" xmlns:xlink="http://www.w3.org/1999/xlink">
<g id="graph0" class="graph" transform="scale(1 1) rotate(0) translate(4 276)">
<title>GeometryData</title>
<polygon fill="white" stroke="none" points="-4,4 -4,-276 678,-276 678,4 -4,4"/>
<!-- Node1 -->
<g id="node1" class="node"><title>Node1</title>
<polygon fill="#bfbfbf" stroke="black" points="594,-120.5 594,-139.5 674,-139.5 674,-120.5 594,-120.5"/>
<text text-anchor="middle" x="634" y="-127.5" font-family="Helvetica,sans-Serif" font-size="10.00">GeometryData</text>
</g>
<!-- Node2 -->
<g id="node2" class="node"><title>Node2</title>
<polygon fill="white" stroke="#bfbfbf" points="322,-251.5 322,-270.5 468,-270.5 468,-251.5 322,-251.5"/>
<text text-anchor="middle" x="395" y="-258.5" font-family="Helvetica,sans-Serif" font-size="10.00">vector&lt; fcl::DistanceResult &gt;</text>
</g>
<!-- Node2&#45;&gt;Node1 -->
<g id="edge1" class="edge"><title>Node2&#45;&gt;Node1</title>
<path fill="none" stroke="#9a32cd" stroke-dasharray="5,2" d="M478.142,-262.262C511.055,-259.154 547.782,-250.767 576,-231 608.652,-208.127 624.893,-160.217 630.576,-139.682"/>
<polygon fill="#9a32cd" stroke="#9a32cd" points="477.754,-258.782 468.063,-263.064 478.309,-265.759 477.754,-258.782"/>
<text text-anchor="middle" x="531" y="-264" font-family="Helvetica,sans-Serif" font-size="10.00"> distanceResults</text>
</g>
<!-- Node3 -->
<g id="node3" class="node"><title>Node3</title>
<polygon fill="white" stroke="#bfbfbf" points="323,-213.5 323,-232.5 467,-232.5 467,-213.5 323,-213.5"/>
<text text-anchor="middle" x="395" y="-220.5" font-family="Helvetica,sans-Serif" font-size="10.00">vector&lt; fcl::CollisionObject &gt;</text>
</g>
<!-- Node3&#45;&gt;Node1 -->
<g id="edge2" class="edge"><title>Node3&#45;&gt;Node1</title>
<path fill="none" stroke="#9a32cd" stroke-dasharray="5,2" d="M477.461,-216.952C509.606,-212.007 545.955,-203.079 576,-187 597.716,-175.378 616.514,-152.795 626.142,-139.815"/>
<polygon fill="#9a32cd" stroke="#9a32cd" points="476.588,-213.541 467.185,-218.422 477.58,-220.471 476.588,-213.541"/>
<text text-anchor="middle" x="531" y="-219" font-family="Helvetica,sans-Serif" font-size="10.00"> collisionObjects</text>
</g>
<!-- Node4 -->
<g id="node4" class="node"><title>Node4</title>
<g id="a_node4"><a xlink:href="classse3_1_1container_1_1aligned__vector.html" target="_top" xlink:title="aligned_vector\&lt; se3\l::se3::SE3Tpl \&gt;">
<polygon fill="white" stroke="black" points="343,-164 343,-194 447,-194 447,-164 343,-164"/>
<text text-anchor="start" x="351" y="-182" font-family="Helvetica,sans-Serif" font-size="10.00">aligned_vector&lt; se3</text>
<text text-anchor="middle" x="395" y="-171" font-family="Helvetica,sans-Serif" font-size="10.00">::se3::SE3Tpl &gt;</text>
</a>
</g>
</g>
<!-- Node4&#45;&gt;Node1 -->
<g id="edge3" class="edge"><title>Node4&#45;&gt;Node1</title>
<path fill="none" stroke="#9a32cd" stroke-dasharray="5,2" d="M457.334,-175.114C492.546,-171.824 537.315,-165.829 576,-155 589.423,-151.242 603.792,-144.924 614.745,-139.579"/>
<polygon fill="#9a32cd" stroke="#9a32cd" points="456.852,-171.643 447.2,-176.011 457.47,-178.615 456.852,-171.643"/>
<text text-anchor="middle" x="531" y="-175" font-family="Helvetica,sans-Serif" font-size="10.00"> oMg</text>
</g>
<!-- Node5 -->
<g id="node5" class="node"><title>Node5</title>
<g id="a_node5"><a xlink:title="STL class. ">
<polygon fill="white" stroke="#bfbfbf" points="110.5,-158.5 110.5,-199.5 241.5,-199.5 241.5,-158.5 110.5,-158.5"/>
<text text-anchor="start" x="118.5" y="-187.5" font-family="Helvetica,sans-Serif" font-size="10.00">vector&lt; se3::se3::SE3Tpl,</text>
<text text-anchor="start" x="118.5" y="-176.5" font-family="Helvetica,sans-Serif" font-size="10.00"> Eigen::aligned_allocator</text>
<text text-anchor="middle" x="176" y="-165.5" font-family="Helvetica,sans-Serif" font-size="10.00">&lt; se3::se3::SE3Tpl &gt; &gt;</text>
</a>
</g>
</g>
<!-- Node5&#45;&gt;Node4 -->
<g id="edge4" class="edge"><title>Node5&#45;&gt;Node4</title>
<path fill="none" stroke="midnightblue" d="M251.558,-179C281.64,-179 315.593,-179 342.803,-179"/>
<polygon fill="midnightblue" stroke="midnightblue" points="251.52,-175.5 241.52,-179 251.52,-182.5 251.52,-175.5"/>
</g>
<!-- Node6 -->
<g id="node6" class="node"><title>Node6</title>
<polygon fill="white" stroke="#bfbfbf" points="0.5,-146.5 0.5,-165.5 29.5,-165.5 29.5,-146.5 0.5,-146.5"/>
<text text-anchor="middle" x="15" y="-153.5" font-family="Helvetica,sans-Serif" font-size="10.00">T</text>
</g>
<!-- Node6&#45;&gt;Node5 -->
<g id="edge5" class="edge"><title>Node6&#45;&gt;Node5</title>
<path fill="none" stroke="#9a32cd" stroke-dasharray="5,2" d="M39.5175,-159.402C58.2164,-162.107 85.305,-166.025 110.354,-169.649"/>
<polygon fill="#9a32cd" stroke="#9a32cd" points="39.9543,-155.929 29.5563,-157.961 38.9521,-162.857 39.9543,-155.929"/>
<text text-anchor="middle" x="70" y="-170" font-family="Helvetica,sans-Serif" font-size="10.00"> elements</text>
</g>
<!-- Node8 -->
<g id="node8" class="node"><title>Node8</title>
<g id="a_node8"><a xlink:title="STL class. ">
<polygon fill="white" stroke="#bfbfbf" points="142,-120.5 142,-139.5 210,-139.5 210,-120.5 142,-120.5"/>
<text text-anchor="middle" x="176" y="-127.5" font-family="Helvetica,sans-Serif" font-size="10.00">vector&lt; T &gt;</text>
</a>
</g>
</g>
<!-- Node6&#45;&gt;Node8 -->
<g id="edge8" class="edge"><title>Node6&#45;&gt;Node8</title>
<path fill="none" stroke="#9a32cd" stroke-dasharray="5,2" d="M39.1813,-148.227C42.1287,-147.396 45.1206,-146.626 48,-146 79.4875,-139.153 116.049,-134.93 141.835,-132.554"/>
<polygon fill="#9a32cd" stroke="#9a32cd" points="38.0953,-144.899 29.5604,-151.177 40.1471,-151.592 38.0953,-144.899"/>
<text text-anchor="middle" x="70" y="-149" font-family="Helvetica,sans-Serif" font-size="10.00"> elements</text>
</g>
<!-- Node7 -->
<g id="node7" class="node"><title>Node7</title>
<polygon fill="white" stroke="#bfbfbf" points="322,-115 322,-145 468,-145 468,-115 322,-115"/>
<text text-anchor="start" x="330" y="-133" font-family="Helvetica,sans-Serif" font-size="10.00">map&lt; JointIndex, GeomIndex</text>
<text text-anchor="middle" x="395" y="-122" font-family="Helvetica,sans-Serif" font-size="10.00">List &gt;</text>
</g>
<!-- Node7&#45;&gt;Node1 -->
<g id="edge6" class="edge"><title>Node7&#45;&gt;Node1</title>
<path fill="none" stroke="#9a32cd" stroke-dasharray="5,2" d="M478.179,-130C517.438,-130 562.585,-130 593.956,-130"/>
<polygon fill="#9a32cd" stroke="#9a32cd" points="478.073,-126.5 468.073,-130 478.073,-133.5 478.073,-126.5"/>
<text text-anchor="middle" x="531" y="-144" font-family="Helvetica,sans-Serif" font-size="10.00"> outerObjects</text>
<text text-anchor="middle" x="531" y="-133" font-family="Helvetica,sans-Serif" font-size="10.00">innerObjects</text>
</g>
<!-- Node8&#45;&gt;Node7 -->
<g id="edge7" class="edge"><title>Node8&#45;&gt;Node7</title>
<path fill="none" stroke="#9a32cd" stroke-dasharray="5,2" d="M220.641,-130C249.629,-130 288.375,-130 321.885,-130"/>
<polygon fill="#9a32cd" stroke="#9a32cd" points="220.431,-126.5 210.431,-130 220.431,-133.5 220.431,-126.5"/>
<text text-anchor="middle" x="282" y="-133" font-family="Helvetica,sans-Serif" font-size="10.00"> elements</text>
</g>
<!-- Node9 -->
<g id="node9" class="node"><title>Node9</title>
<polygon fill="white" stroke="#bfbfbf" points="355,-76.5 355,-95.5 435,-95.5 435,-76.5 355,-76.5"/>
<text text-anchor="middle" x="395" y="-83.5" font-family="Helvetica,sans-Serif" font-size="10.00">vector&lt; bool &gt;</text>
</g>
<!-- Node9&#45;&gt;Node1 -->
<g id="edge9" class="edge"><title>Node9&#45;&gt;Node1</title>
<path fill="none" stroke="#9a32cd" stroke-dasharray="5,2" d="M445.495,-92.6466C481.789,-97.8424 532.172,-105.726 576,-115 583.508,-116.589 591.51,-118.534 599.07,-120.491"/>
<polygon fill="#9a32cd" stroke="#9a32cd" points="445.57,-89.1225 435.178,-91.1878 444.59,-96.0536 445.57,-89.1225"/>
<text text-anchor="middle" x="531" y="-118" font-family="Helvetica,sans-Serif" font-size="10.00"> activeCollisionPairs</text>
</g>
<!-- Node10 -->
<g id="node10" class="node"><title>Node10</title>
<polygon fill="white" stroke="#bfbfbf" points="350,-38.5 350,-57.5 440,-57.5 440,-38.5 350,-38.5"/>
<text text-anchor="middle" x="395" y="-45.5" font-family="Helvetica,sans-Serif" font-size="10.00">vector&lt; double &gt;</text>
</g>
<!-- Node10&#45;&gt;Node1 -->
<g id="edge10" class="edge"><title>Node10&#45;&gt;Node1</title>
<path fill="none" stroke="#9a32cd" stroke-dasharray="5,2" d="M450.38,-52.5415C487.205,-57.1842 536.208,-66.4847 576,-85 594.976,-93.8295 613.309,-110.129 623.855,-120.499"/>
<polygon fill="#9a32cd" stroke="#9a32cd" points="450.676,-49.0523 440.334,-51.3518 449.853,-56.0037 450.676,-49.0523"/>
<text text-anchor="middle" x="531" y="-88" font-family="Helvetica,sans-Serif" font-size="10.00"> radius</text>
</g>
<!-- Node11 -->
<g id="node11" class="node"><title>Node11</title>
<polygon fill="white" stroke="#bfbfbf" points="323,-0.5 323,-19.5 467,-19.5 467,-0.5 323,-0.5"/>
<text text-anchor="middle" x="395" y="-7.5" font-family="Helvetica,sans-Serif" font-size="10.00">vector&lt; fcl::CollisionResult &gt;</text>
</g>
<!-- Node11&#45;&gt;Node1 -->
<g id="edge11" class="edge"><title>Node11&#45;&gt;Node1</title>
<path fill="none" stroke="#9a32cd" stroke-dasharray="5,2" d="M477.141,-11.7691C510.064,-15.7833 547.066,-24.791 576,-44 604.801,-63.1212 622.573,-102.291 629.576,-120.413"/>
<polygon fill="#9a32cd" stroke="#9a32cd" points="477.387,-8.2753 467.068,-10.6778 476.633,-15.2346 477.387,-8.2753"/>
<text text-anchor="middle" x="531" y="-47" font-family="Helvetica,sans-Serif" font-size="10.00"> collisionResults</text>
</g>
</g>
</svg>
