<?xml version="1.0" encoding="UTF-8" standalone="no"?>
<!DOCTYPE svg PUBLIC "-//W3C//DTD SVG 1.1//EN"
 "http://www.w3.org/Graphics/SVG/1.1/DTD/svg11.dtd">
<!-- Generated by graphviz version 2.36.0 (20140111.2315)
 -->
<!-- Title: SpecialOrthogonalOperation&lt; 3 &gt; Pages: 1 -->
<svg width="168pt" height="106pt"
 viewBox="0.00 0.00 168.00 106.00" xmlns="http://www.w3.org/2000/svg" xmlns:xlink="http://www.w3.org/1999/xlink">
<g id="graph0" class="graph" transform="scale(1 1) rotate(0) translate(4 102)">
<title>SpecialOrthogonalOperation&lt; 3 &gt;</title>
<polygon fill="white" stroke="none" points="-4,4 -4,-102 164,-102 164,4 -4,4"/>
<!-- Node1 -->
<g id="node1" class="node"><title>Node1</title>
<polygon fill="#bfbfbf" stroke="black" points="-0.5,-0.5 -0.5,-19.5 160.5,-19.5 160.5,-0.5 -0.5,-0.5"/>
<text text-anchor="middle" x="80" y="-7.5" font-family="Helvetica,sans-Serif" font-size="10.00">SpecialOrthogonalOperation&lt; 3 &gt;</text>
</g>
<!-- Node2 -->
<g id="node2" class="node"><title>Node2</title>
<g id="a_node2"><a xlink:href="structse3_1_1LieGroupOperationBase.html" target="_top" xlink:title="LieGroupOperationBase\l\&lt; SpecialOrthogonalOperation\l\&lt; 3 \&gt; \&gt;">
<polygon fill="white" stroke="black" points="6.5,-56.5 6.5,-97.5 153.5,-97.5 153.5,-56.5 6.5,-56.5"/>
<text text-anchor="start" x="14.5" y="-85.5" font-family="Helvetica,sans-Serif" font-size="10.00">LieGroupOperationBase</text>
<text text-anchor="start" x="14.5" y="-74.5" font-family="Helvetica,sans-Serif" font-size="10.00">&lt; SpecialOrthogonalOperation</text>
<text text-anchor="middle" x="80" y="-63.5" font-family="Helvetica,sans-Serif" font-size="10.00">&lt; 3 &gt; &gt;</text>
</a>
</g>
</g>
<!-- Node2&#45;&gt;Node1 -->
<g id="edge1" class="edge"><title>Node2&#45;&gt;Node1</title>
<path fill="none" stroke="midnightblue" d="M80,-46.2632C80,-36.5592 80,-26.5242 80,-19.6525"/>
<polygon fill="midnightblue" stroke="midnightblue" points="76.5001,-46.4978 80,-56.4979 83.5001,-46.4979 76.5001,-46.4978"/>
</g>
</g>
</svg>
