<?xml version="1.0" encoding="UTF-8" standalone="no"?>
<!DOCTYPE svg PUBLIC "-//W3C//DTD SVG 1.1//EN"
 "http://www.w3.org/Graphics/SVG/1.1/DTD/svg11.dtd">
<!-- Generated by graphviz version 2.36.0 (20140111.2315)
 -->
<!-- Title: JointModelTranslation Pages: 1 -->
<svg width="160pt" height="166pt"
 viewBox="0.00 0.00 160.00 166.00" xmlns="http://www.w3.org/2000/svg" xmlns:xlink="http://www.w3.org/1999/xlink">
<g id="graph0" class="graph" transform="scale(1 1) rotate(0) translate(4 162)">
<title>JointModelTranslation</title>
<polygon fill="white" stroke="none" points="-4,4 -4,-162 156,-162 156,4 -4,4"/>
<!-- Node1 -->
<g id="node1" class="node"><title>Node1</title>
<polygon fill="#bfbfbf" stroke="black" points="20,-0.5 20,-19.5 132,-19.5 132,-0.5 20,-0.5"/>
<text text-anchor="middle" x="76" y="-7.5" font-family="Helvetica,sans-Serif" font-size="10.00">JointModelTranslation</text>
</g>
<!-- Node2 -->
<g id="node2" class="node"><title>Node2</title>
<g id="a_node2"><a xlink:href="structse3_1_1JointModelBase.html" target="_top" xlink:title="JointModelBase\&lt; JointModel\lTranslation \&gt;">
<polygon fill="white" stroke="black" points="4.5,-59 4.5,-89 147.5,-89 147.5,-59 4.5,-59"/>
<text text-anchor="start" x="12.5" y="-77" font-family="Helvetica,sans-Serif" font-size="10.00">JointModelBase&lt; JointModel</text>
<text text-anchor="middle" x="76" y="-66" font-family="Helvetica,sans-Serif" font-size="10.00">Translation &gt;</text>
</a>
</g>
</g>
<!-- Node2&#45;&gt;Node1 -->
<g id="edge1" class="edge"><title>Node2&#45;&gt;Node1</title>
<path fill="none" stroke="midnightblue" d="M76,-48.8706C76,-38.6625 76,-27.4077 76,-19.8419"/>
<polygon fill="midnightblue" stroke="midnightblue" points="72.5001,-48.9312 76,-58.9312 79.5001,-48.9313 72.5001,-48.9312"/>
</g>
<!-- Node3 -->
<g id="node3" class="node"><title>Node3</title>
<g id="a_node3"><a xlink:href="structse3_1_1traits_3_01JointModelTranslation_01_4.html" target="_top" xlink:title="traits\&lt; JointModelTranslation \&gt;">
<polygon fill="white" stroke="black" points="0,-138.5 0,-157.5 152,-157.5 152,-138.5 0,-138.5"/>
<text text-anchor="middle" x="76" y="-145.5" font-family="Helvetica,sans-Serif" font-size="10.00">traits&lt; JointModelTranslation &gt;</text>
</a>
</g>
</g>
<!-- Node3&#45;&gt;Node2 -->
<g id="edge2" class="edge"><title>Node3&#45;&gt;Node2</title>
<path fill="none" stroke="#9a32cd" stroke-dasharray="5,2" d="M76,-128.085C76,-115.915 76,-100.354 76,-89.2316"/>
<polygon fill="#9a32cd" stroke="#9a32cd" points="72.5001,-128.458 76,-138.458 79.5001,-128.458 72.5001,-128.458"/>
<text text-anchor="middle" x="105" y="-111.5" font-family="Helvetica,sans-Serif" font-size="10.00"> JointDerived</text>
</g>
</g>
</svg>
