<?xml version="1.0" encoding="UTF-8" standalone="no"?>
<!DOCTYPE svg PUBLIC "-//W3C//DTD SVG 1.1//EN"
 "http://www.w3.org/Graphics/SVG/1.1/DTD/svg11.dtd">
<!-- Generated by graphviz version 2.36.0 (20140111.2315)
 -->
<!-- Title: ConstraintPrismatic&lt; axis &gt;::TransposeConst Pages: 1 -->
<svg width="146pt" height="190pt"
 viewBox="0.00 0.00 146.00 190.00" xmlns="http://www.w3.org/2000/svg" xmlns:xlink="http://www.w3.org/1999/xlink">
<g id="graph0" class="graph" transform="scale(1 1) rotate(0) translate(4 186)">
<title>ConstraintPrismatic&lt; axis &gt;::TransposeConst</title>
<polygon fill="white" stroke="none" points="-4,4 -4,-186 142,-186 142,4 -4,4"/>
<!-- Node1 -->
<g id="node1" class="node"><title>Node1</title>
<polygon fill="#bfbfbf" stroke="black" points="3.5,-1 3.5,-31 134.5,-31 134.5,-1 3.5,-1"/>
<text text-anchor="start" x="11.5" y="-19" font-family="Helvetica,sans-Serif" font-size="10.00">ConstraintPrismatic</text>
<text text-anchor="middle" x="69" y="-8" font-family="Helvetica,sans-Serif" font-size="10.00">&lt; axis &gt;::TransposeConst</text>
</g>
<!-- Node2 -->
<g id="node2" class="node"><title>Node2</title>
<g id="a_node2"><a xlink:href="structse3_1_1ConstraintPrismatic.html" target="_top" xlink:title="ConstraintPrismatic\l\&lt; axis \&gt;">
<polygon fill="white" stroke="black" points="17.5,-81 17.5,-111 120.5,-111 120.5,-81 17.5,-81"/>
<text text-anchor="start" x="25.5" y="-99" font-family="Helvetica,sans-Serif" font-size="10.00">ConstraintPrismatic</text>
<text text-anchor="middle" x="69" y="-88" font-family="Helvetica,sans-Serif" font-size="10.00">&lt; axis &gt;</text>
</a>
</g>
</g>
<!-- Node2&#45;&gt;Node1 -->
<g id="edge1" class="edge"><title>Node2&#45;&gt;Node1</title>
<path fill="none" stroke="#9a32cd" stroke-dasharray="5,2" d="M69,-70.5644C69,-57.6243 69,-42.1862 69,-31.2157"/>
<polygon fill="#9a32cd" stroke="#9a32cd" points="65.5001,-70.6936 69,-80.6936 72.5001,-70.6936 65.5001,-70.6936"/>
<text text-anchor="middle" x="76.5" y="-53.5" font-family="Helvetica,sans-Serif" font-size="10.00"> ref</text>
</g>
<!-- Node3 -->
<g id="node3" class="node"><title>Node3</title>
<g id="a_node3"><a xlink:href="classse3_1_1ConstraintBase.html" target="_top" xlink:title="ConstraintBase\&lt; Constraint\lPrismatic\&lt; axis \&gt; \&gt;">
<polygon fill="white" stroke="black" points="0,-151 0,-181 138,-181 138,-151 0,-151"/>
<text text-anchor="start" x="8" y="-169" font-family="Helvetica,sans-Serif" font-size="10.00">ConstraintBase&lt; Constraint</text>
<text text-anchor="middle" x="69" y="-158" font-family="Helvetica,sans-Serif" font-size="10.00">Prismatic&lt; axis &gt; &gt;</text>
</a>
</g>
</g>
<!-- Node3&#45;&gt;Node2 -->
<g id="edge2" class="edge"><title>Node3&#45;&gt;Node2</title>
<path fill="none" stroke="midnightblue" d="M69,-140.769C69,-130.814 69,-119.638 69,-111.072"/>
<polygon fill="midnightblue" stroke="midnightblue" points="65.5001,-140.91 69,-150.91 72.5001,-140.91 65.5001,-140.91"/>
</g>
</g>
</svg>
