<?xml version="1.0" encoding="UTF-8" standalone="no"?>
<!DOCTYPE svg PUBLIC "-//W3C//DTD SVG 1.1//EN"
 "http://www.w3.org/Graphics/SVG/1.1/DTD/svg11.dtd">
<!-- Generated by graphviz version 2.36.0 (20140111.2315)
 -->
<!-- Title: FinitDiffEpsVisitor Pages: 1 -->
<svg width="116pt" height="152pt"
 viewBox="0.00 0.00 116.00 152.00" xmlns="http://www.w3.org/2000/svg" xmlns:xlink="http://www.w3.org/1999/xlink">
<g id="graph0" class="graph" transform="scale(1 1) rotate(0) translate(4 148)">
<title>FinitDiffEpsVisitor</title>
<polygon fill="white" stroke="none" points="-4,4 -4,-148 112,-148 112,4 -4,4"/>
<!-- Node1 -->
<g id="node1" class="node"><title>Node1</title>
<polygon fill="#bfbfbf" stroke="black" points="6,-0.5 6,-19.5 102,-19.5 102,-0.5 6,-0.5"/>
<text text-anchor="middle" x="54" y="-7.5" font-family="Helvetica,sans-Serif" font-size="10.00">FinitDiffEpsVisitor</text>
</g>
<!-- Node2 -->
<g id="node2" class="node"><title>Node2</title>
<g id="a_node2"><a xlink:href="structse3_1_1fusion_1_1JointModelVisitor.html" target="_top" xlink:title="JointModelVisitor\&lt;\l FinitDiffEpsVisitor \&gt;">
<polygon fill="white" stroke="black" points="0,-57 0,-87 108,-87 108,-57 0,-57"/>
<text text-anchor="start" x="8" y="-75" font-family="Helvetica,sans-Serif" font-size="10.00">JointModelVisitor&lt;</text>
<text text-anchor="middle" x="54" y="-64" font-family="Helvetica,sans-Serif" font-size="10.00"> FinitDiffEpsVisitor &gt;</text>
</a>
</g>
</g>
<!-- Node2&#45;&gt;Node1 -->
<g id="edge1" class="edge"><title>Node2&#45;&gt;Node1</title>
<path fill="none" stroke="midnightblue" d="M54,-46.5858C54,-37.0743 54,-26.7864 54,-19.7305"/>
<polygon fill="midnightblue" stroke="midnightblue" points="50.5001,-46.7808 54,-56.7808 57.5001,-46.7809 50.5001,-46.7808"/>
</g>
<!-- Node3 -->
<g id="node3" class="node"><title>Node3</title>
<polygon fill="white" stroke="#bfbfbf" points="12,-124.5 12,-143.5 96,-143.5 96,-124.5 12,-124.5"/>
<text text-anchor="middle" x="54" y="-131.5" font-family="Helvetica,sans-Serif" font-size="10.00">static_visitor&lt;&gt;</text>
</g>
<!-- Node3&#45;&gt;Node2 -->
<g id="edge2" class="edge"><title>Node3&#45;&gt;Node2</title>
<path fill="none" stroke="midnightblue" d="M54,-114.371C54,-105.585 54,-95.2721 54,-87.1408"/>
<polygon fill="midnightblue" stroke="midnightblue" points="50.5001,-114.403 54,-124.403 57.5001,-114.403 50.5001,-114.403"/>
</g>
</g>
</svg>
