<?xml version="1.0" encoding="UTF-8" standalone="no"?>
<!DOCTYPE svg PUBLIC "-//W3C//DTD SVG 1.1//EN"
 "http://www.w3.org/Graphics/SVG/1.1/DTD/svg11.dtd">
<!-- Generated by graphviz version 2.36.0 (20140111.2315)
 -->
<!-- Title: JointDataTranslation Pages: 1 -->
<svg width="154pt" height="166pt"
 viewBox="0.00 0.00 154.00 166.00" xmlns="http://www.w3.org/2000/svg" xmlns:xlink="http://www.w3.org/1999/xlink">
<g id="graph0" class="graph" transform="scale(1 1) rotate(0) translate(4 162)">
<title>JointDataTranslation</title>
<polygon fill="white" stroke="none" points="-4,4 -4,-162 150,-162 150,4 -4,4"/>
<!-- Node1 -->
<g id="node1" class="node"><title>Node1</title>
<polygon fill="#bfbfbf" stroke="black" points="19.5,-0.5 19.5,-19.5 126.5,-19.5 126.5,-0.5 19.5,-0.5"/>
<text text-anchor="middle" x="73" y="-7.5" font-family="Helvetica,sans-Serif" font-size="10.00">JointDataTranslation</text>
</g>
<!-- Node2 -->
<g id="node2" class="node"><title>Node2</title>
<g id="a_node2"><a xlink:href="structse3_1_1JointDataBase.html" target="_top" xlink:title="JointDataBase\&lt; JointData\lTranslation \&gt;">
<polygon fill="white" stroke="black" points="7,-59 7,-89 139,-89 139,-59 7,-59"/>
<text text-anchor="start" x="15" y="-77" font-family="Helvetica,sans-Serif" font-size="10.00">JointDataBase&lt; JointData</text>
<text text-anchor="middle" x="73" y="-66" font-family="Helvetica,sans-Serif" font-size="10.00">Translation &gt;</text>
</a>
</g>
</g>
<!-- Node2&#45;&gt;Node1 -->
<g id="edge1" class="edge"><title>Node2&#45;&gt;Node1</title>
<path fill="none" stroke="midnightblue" d="M73,-48.8706C73,-38.6625 73,-27.4077 73,-19.8419"/>
<polygon fill="midnightblue" stroke="midnightblue" points="69.5001,-48.9312 73,-58.9312 76.5001,-48.9313 69.5001,-48.9312"/>
</g>
<!-- Node3 -->
<g id="node3" class="node"><title>Node3</title>
<g id="a_node3"><a xlink:href="structse3_1_1traits_3_01JointDataTranslation_01_4.html" target="_top" xlink:title="traits\&lt; JointDataTranslation \&gt;">
<polygon fill="white" stroke="black" points="0,-138.5 0,-157.5 146,-157.5 146,-138.5 0,-138.5"/>
<text text-anchor="middle" x="73" y="-145.5" font-family="Helvetica,sans-Serif" font-size="10.00">traits&lt; JointDataTranslation &gt;</text>
</a>
</g>
</g>
<!-- Node3&#45;&gt;Node2 -->
<g id="edge2" class="edge"><title>Node3&#45;&gt;Node2</title>
<path fill="none" stroke="#9a32cd" stroke-dasharray="5,2" d="M73,-128.085C73,-115.915 73,-100.354 73,-89.2316"/>
<polygon fill="#9a32cd" stroke="#9a32cd" points="69.5001,-128.458 73,-138.458 76.5001,-128.458 69.5001,-128.458"/>
<text text-anchor="middle" x="102" y="-111.5" font-family="Helvetica,sans-Serif" font-size="10.00"> JointDerived</text>
</g>
</g>
</svg>
