<?xml version="1.0" encoding="UTF-8" standalone="no"?>
<!DOCTYPE svg PUBLIC "-//W3C//DTD SVG 1.1//EN"
 "http://www.w3.org/Graphics/SVG/1.1/DTD/svg11.dtd">
<!-- Generated by graphviz version 2.36.0 (20140111.2315)
 -->
<!-- Title: ConstraintTranslationSubspace::ConstraintTranspose Pages: 1 -->
<svg width="160pt" height="178pt"
 viewBox="0.00 0.00 160.00 178.00" xmlns="http://www.w3.org/2000/svg" xmlns:xlink="http://www.w3.org/1999/xlink">
<g id="graph0" class="graph" transform="scale(1 1) rotate(0) translate(4 174)">
<title>ConstraintTranslationSubspace::ConstraintTranspose</title>
<polygon fill="white" stroke="none" points="-4,4 -4,-174 156,-174 156,4 -4,4"/>
<!-- Node1 -->
<g id="node1" class="node"><title>Node1</title>
<polygon fill="#bfbfbf" stroke="black" points="-0.5,-1 -0.5,-31 152.5,-31 152.5,-1 -0.5,-1"/>
<text text-anchor="start" x="7.5" y="-19" font-family="Helvetica,sans-Serif" font-size="10.00">ConstraintTranslationSubspace</text>
<text text-anchor="middle" x="76" y="-8" font-family="Helvetica,sans-Serif" font-size="10.00">::ConstraintTranspose</text>
</g>
<!-- Node2 -->
<g id="node2" class="node"><title>Node2</title>
<g id="a_node2"><a xlink:href="structse3_1_1ConstraintTranslationSubspace.html" target="_top" xlink:title="ConstraintTranslationSubspace">
<polygon fill="white" stroke="black" points="-0.5,-80.5 -0.5,-99.5 152.5,-99.5 152.5,-80.5 -0.5,-80.5"/>
<text text-anchor="middle" x="76" y="-87.5" font-family="Helvetica,sans-Serif" font-size="10.00">ConstraintTranslationSubspace</text>
</a>
</g>
</g>
<!-- Node2&#45;&gt;Node1 -->
<g id="edge1" class="edge"><title>Node2&#45;&gt;Node1</title>
<path fill="none" stroke="#9a32cd" stroke-dasharray="5,2" d="M76,-70.0846C76,-57.9148 76,-42.3538 76,-31.2316"/>
<polygon fill="#9a32cd" stroke="#9a32cd" points="72.5001,-70.4579 76,-80.4579 79.5001,-70.4579 72.5001,-70.4579"/>
<text text-anchor="middle" x="83.5" y="-53.5" font-family="Helvetica,sans-Serif" font-size="10.00"> ref</text>
</g>
<!-- Node3 -->
<g id="node3" class="node"><title>Node3</title>
<g id="a_node3"><a xlink:href="classse3_1_1ConstraintBase.html" target="_top" xlink:title="ConstraintBase\&lt; Constraint\lTranslationSubspace \&gt;">
<polygon fill="white" stroke="black" points="7,-139 7,-169 145,-169 145,-139 7,-139"/>
<text text-anchor="start" x="15" y="-157" font-family="Helvetica,sans-Serif" font-size="10.00">ConstraintBase&lt; Constraint</text>
<text text-anchor="middle" x="76" y="-146" font-family="Helvetica,sans-Serif" font-size="10.00">TranslationSubspace &gt;</text>
</a>
</g>
</g>
<!-- Node3&#45;&gt;Node2 -->
<g id="edge2" class="edge"><title>Node3&#45;&gt;Node2</title>
<path fill="none" stroke="midnightblue" d="M76,-128.871C76,-118.663 76,-107.408 76,-99.8419"/>
<polygon fill="midnightblue" stroke="midnightblue" points="72.5001,-128.931 76,-138.931 79.5001,-128.931 72.5001,-128.931"/>
</g>
</g>
</svg>
