<?xml version="1.0" encoding="UTF-8" standalone="no"?>
<!DOCTYPE svg PUBLIC "-//W3C//DTD SVG 1.1//EN"
 "http://www.w3.org/Graphics/SVG/1.1/DTD/svg11.dtd">
<!-- Generated by graphviz version 2.36.0 (20140111.2315)
 -->
<!-- Title: JointData Pages: 1 -->
<svg width="255pt" height="84pt"
 viewBox="0.00 0.00 255.00 84.00" xmlns="http://www.w3.org/2000/svg" xmlns:xlink="http://www.w3.org/1999/xlink">
<g id="graph0" class="graph" transform="scale(1 1) rotate(0) translate(4 80)">
<title>JointData</title>
<polygon fill="white" stroke="none" points="-4,4 -4,-80 251,-80 251,4 -4,4"/>
<!-- Node1 -->
<g id="node1" class="node"><title>Node1</title>
<polygon fill="#bfbfbf" stroke="black" points="106.5,-0.5 106.5,-19.5 165.5,-19.5 165.5,-0.5 106.5,-0.5"/>
<text text-anchor="middle" x="136" y="-7.5" font-family="Helvetica,sans-Serif" font-size="10.00">JointData</text>
</g>
<!-- Node2 -->
<g id="node2" class="node"><title>Node2</title>
<g id="a_node2"><a xlink:href="structse3_1_1JointDataBase.html" target="_top" xlink:title="JointDataBase\&lt; JointData \&gt;">
<polygon fill="white" stroke="black" points="-0.5,-56.5 -0.5,-75.5 140.5,-75.5 140.5,-56.5 -0.5,-56.5"/>
<text text-anchor="middle" x="70" y="-63.5" font-family="Helvetica,sans-Serif" font-size="10.00">JointDataBase&lt; JointData &gt;</text>
</a>
</g>
</g>
<!-- Node2&#45;&gt;Node1 -->
<g id="edge1" class="edge"><title>Node2&#45;&gt;Node1</title>
<path fill="none" stroke="midnightblue" d="M88.5537,-49.8197C100.378,-40.1452 115.286,-27.9481 125.203,-19.8339"/>
<polygon fill="midnightblue" stroke="midnightblue" points="86.1273,-47.2827 80.604,-56.324 90.56,-52.7004 86.1273,-47.2827"/>
</g>
<!-- Node3 -->
<g id="node3" class="node"><title>Node3</title>
<polygon fill="white" stroke="#bfbfbf" points="158.5,-56.5 158.5,-75.5 247.5,-75.5 247.5,-56.5 158.5,-56.5"/>
<text text-anchor="middle" x="203" y="-63.5" font-family="Helvetica,sans-Serif" font-size="10.00">JointDataVariant</text>
</g>
<!-- Node3&#45;&gt;Node1 -->
<g id="edge2" class="edge"><title>Node3&#45;&gt;Node1</title>
<path fill="none" stroke="midnightblue" d="M184.165,-49.8197C172.162,-40.1452 157.028,-27.9481 146.961,-19.8339"/>
<polygon fill="midnightblue" stroke="midnightblue" points="182.253,-52.7738 192.235,-56.324 186.646,-47.3236 182.253,-52.7738"/>
</g>
</g>
</svg>
