<?xml version="1.0" encoding="UTF-8" standalone="no"?>
<!DOCTYPE svg PUBLIC "-//W3C//DTD SVG 1.1//EN"
 "http://www.w3.org/Graphics/SVG/1.1/DTD/svg11.dtd">
<!-- Generated by graphviz version 2.36.0 (20140111.2315)
 -->
<!-- Title: JointDataPrismatic&lt; axis &gt; Pages: 1 -->
<svg width="140pt" height="190pt"
 viewBox="0.00 0.00 140.00 190.00" xmlns="http://www.w3.org/2000/svg" xmlns:xlink="http://www.w3.org/1999/xlink">
<g id="graph0" class="graph" transform="scale(1 1) rotate(0) translate(4 186)">
<title>JointDataPrismatic&lt; axis &gt;</title>
<polygon fill="white" stroke="none" points="-4,4 -4,-186 136,-186 136,4 -4,4"/>
<!-- Node1 -->
<g id="node1" class="node"><title>Node1</title>
<polygon fill="#bfbfbf" stroke="black" points="16,-1 16,-31 116,-31 116,-1 16,-1"/>
<text text-anchor="start" x="24" y="-19" font-family="Helvetica,sans-Serif" font-size="10.00">JointDataPrismatic</text>
<text text-anchor="middle" x="66" y="-8" font-family="Helvetica,sans-Serif" font-size="10.00">&lt; axis &gt;</text>
</g>
<!-- Node2 -->
<g id="node2" class="node"><title>Node2</title>
<g id="a_node2"><a xlink:href="structse3_1_1JointDataBase.html" target="_top" xlink:title="JointDataBase\&lt; JointData\lPrismatic\&lt; axis \&gt; \&gt;">
<polygon fill="white" stroke="black" points="0,-71 0,-101 132,-101 132,-71 0,-71"/>
<text text-anchor="start" x="8" y="-89" font-family="Helvetica,sans-Serif" font-size="10.00">JointDataBase&lt; JointData</text>
<text text-anchor="middle" x="66" y="-78" font-family="Helvetica,sans-Serif" font-size="10.00">Prismatic&lt; axis &gt; &gt;</text>
</a>
</g>
</g>
<!-- Node2&#45;&gt;Node1 -->
<g id="edge1" class="edge"><title>Node2&#45;&gt;Node1</title>
<path fill="none" stroke="midnightblue" d="M66,-60.7688C66,-50.8141 66,-39.6384 66,-31.0716"/>
<polygon fill="midnightblue" stroke="midnightblue" points="62.5001,-60.9103 66,-70.9104 69.5001,-60.9104 62.5001,-60.9103"/>
</g>
<!-- Node3 -->
<g id="node3" class="node"><title>Node3</title>
<g id="a_node3"><a xlink:href="structse3_1_1traits_3_01JointDataPrismatic_3_01axis_01_4_01_4.html" target="_top" xlink:title="traits\&lt; JointDataPrismatic\l\&lt; axis \&gt; \&gt;">
<polygon fill="white" stroke="black" points="0.5,-151 0.5,-181 131.5,-181 131.5,-151 0.5,-151"/>
<text text-anchor="start" x="8.5" y="-169" font-family="Helvetica,sans-Serif" font-size="10.00">traits&lt; JointDataPrismatic</text>
<text text-anchor="middle" x="66" y="-158" font-family="Helvetica,sans-Serif" font-size="10.00">&lt; axis &gt; &gt;</text>
</a>
</g>
</g>
<!-- Node3&#45;&gt;Node2 -->
<g id="edge2" class="edge"><title>Node3&#45;&gt;Node2</title>
<path fill="none" stroke="#9a32cd" stroke-dasharray="5,2" d="M66,-140.564C66,-127.624 66,-112.186 66,-101.216"/>
<polygon fill="#9a32cd" stroke="#9a32cd" points="62.5001,-140.694 66,-150.694 69.5001,-140.694 62.5001,-140.694"/>
<text text-anchor="middle" x="95" y="-123.5" font-family="Helvetica,sans-Serif" font-size="10.00"> JointDerived</text>
</g>
</g>
</svg>
