<?xml version="1.0" encoding="UTF-8" standalone="no"?>
<!DOCTYPE svg PUBLIC "-//W3C//DTD SVG 1.1//EN"
 "http://www.w3.org/Graphics/SVG/1.1/DTD/svg11.dtd">
<!-- Generated by graphviz version 2.36.0 (20140111.2315)
 -->
<!-- Title: JointModelSphericalZYX Pages: 1 -->
<svg width="150pt" height="178pt"
 viewBox="0.00 0.00 150.00 178.00" xmlns="http://www.w3.org/2000/svg" xmlns:xlink="http://www.w3.org/1999/xlink">
<g id="graph0" class="graph" transform="scale(1 1) rotate(0) translate(4 174)">
<title>JointModelSphericalZYX</title>
<polygon fill="white" stroke="none" points="-4,4 -4,-174 146,-174 146,4 -4,4"/>
<!-- Node1 -->
<g id="node1" class="node"><title>Node1</title>
<polygon fill="#bfbfbf" stroke="black" points="9,-0.5 9,-19.5 133,-19.5 133,-0.5 9,-0.5"/>
<text text-anchor="middle" x="71" y="-7.5" font-family="Helvetica,sans-Serif" font-size="10.00">JointModelSphericalZYX</text>
</g>
<!-- Node2 -->
<g id="node2" class="node"><title>Node2</title>
<g id="a_node2"><a xlink:href="structse3_1_1JointModelBase.html" target="_top" xlink:title="JointModelBase\&lt; JointModel\lSphericalZYX \&gt;">
<polygon fill="white" stroke="black" points="-0.5,-59 -0.5,-89 142.5,-89 142.5,-59 -0.5,-59"/>
<text text-anchor="start" x="7.5" y="-77" font-family="Helvetica,sans-Serif" font-size="10.00">JointModelBase&lt; JointModel</text>
<text text-anchor="middle" x="71" y="-66" font-family="Helvetica,sans-Serif" font-size="10.00">SphericalZYX &gt;</text>
</a>
</g>
</g>
<!-- Node2&#45;&gt;Node1 -->
<g id="edge1" class="edge"><title>Node2&#45;&gt;Node1</title>
<path fill="none" stroke="midnightblue" d="M71,-48.8706C71,-38.6625 71,-27.4077 71,-19.8419"/>
<polygon fill="midnightblue" stroke="midnightblue" points="67.5001,-48.9312 71,-58.9312 74.5001,-48.9313 67.5001,-48.9312"/>
</g>
<!-- Node3 -->
<g id="node3" class="node"><title>Node3</title>
<g id="a_node3"><a xlink:href="structse3_1_1traits_3_01JointModelSphericalZYX_01_4.html" target="_top" xlink:title="traits\&lt; JointModelSpherical\lZYX \&gt;">
<polygon fill="white" stroke="black" points="3.5,-139 3.5,-169 138.5,-169 138.5,-139 3.5,-139"/>
<text text-anchor="start" x="11.5" y="-157" font-family="Helvetica,sans-Serif" font-size="10.00">traits&lt; JointModelSpherical</text>
<text text-anchor="middle" x="71" y="-146" font-family="Helvetica,sans-Serif" font-size="10.00">ZYX &gt;</text>
</a>
</g>
</g>
<!-- Node3&#45;&gt;Node2 -->
<g id="edge2" class="edge"><title>Node3&#45;&gt;Node2</title>
<path fill="none" stroke="#9a32cd" stroke-dasharray="5,2" d="M71,-128.564C71,-115.624 71,-100.186 71,-89.2157"/>
<polygon fill="#9a32cd" stroke="#9a32cd" points="67.5001,-128.694 71,-138.694 74.5001,-128.694 67.5001,-128.694"/>
<text text-anchor="middle" x="100" y="-111.5" font-family="Helvetica,sans-Serif" font-size="10.00"> JointDerived</text>
</g>
</g>
</svg>
