<?xml version="1.0" encoding="UTF-8" standalone="no"?>
<!DOCTYPE svg PUBLIC "-//W3C//DTD SVG 1.1//EN"
 "http://www.w3.org/Graphics/SVG/1.1/DTD/svg11.dtd">
<!-- Generated by graphviz version 2.36.0 (20140111.2315)
 -->
<!-- Title: JacobianCenterOfMassBackwardStep Pages: 1 -->
<svg width="190pt" height="152pt"
 viewBox="0.00 0.00 190.00 152.00" xmlns="http://www.w3.org/2000/svg" xmlns:xlink="http://www.w3.org/1999/xlink">
<g id="graph0" class="graph" transform="scale(1 1) rotate(0) translate(4 148)">
<title>JacobianCenterOfMassBackwardStep</title>
<polygon fill="white" stroke="none" points="-4,4 -4,-148 186,-148 186,4 -4,4"/>
<!-- Node1 -->
<g id="node1" class="node"><title>Node1</title>
<polygon fill="#bfbfbf" stroke="black" points="-0.5,-0.5 -0.5,-19.5 182.5,-19.5 182.5,-0.5 -0.5,-0.5"/>
<text text-anchor="middle" x="91" y="-7.5" font-family="Helvetica,sans-Serif" font-size="10.00">JacobianCenterOfMassBackwardStep</text>
</g>
<!-- Node2 -->
<g id="node2" class="node"><title>Node2</title>
<g id="a_node2"><a xlink:href="structse3_1_1fusion_1_1JointVisitor.html" target="_top" xlink:title="JointVisitor\&lt; JacobianCenter\lOfMassBackwardStep \&gt;">
<polygon fill="white" stroke="black" points="19.5,-57 19.5,-87 162.5,-87 162.5,-57 19.5,-57"/>
<text text-anchor="start" x="27.5" y="-75" font-family="Helvetica,sans-Serif" font-size="10.00">JointVisitor&lt; JacobianCenter</text>
<text text-anchor="middle" x="91" y="-64" font-family="Helvetica,sans-Serif" font-size="10.00">OfMassBackwardStep &gt;</text>
</a>
</g>
</g>
<!-- Node2&#45;&gt;Node1 -->
<g id="edge1" class="edge"><title>Node2&#45;&gt;Node1</title>
<path fill="none" stroke="midnightblue" d="M91,-46.5858C91,-37.0743 91,-26.7864 91,-19.7305"/>
<polygon fill="midnightblue" stroke="midnightblue" points="87.5001,-46.7808 91,-56.7808 94.5001,-46.7809 87.5001,-46.7808"/>
</g>
<!-- Node3 -->
<g id="node3" class="node"><title>Node3</title>
<polygon fill="white" stroke="#bfbfbf" points="49,-124.5 49,-143.5 133,-143.5 133,-124.5 49,-124.5"/>
<text text-anchor="middle" x="91" y="-131.5" font-family="Helvetica,sans-Serif" font-size="10.00">static_visitor&lt;&gt;</text>
</g>
<!-- Node3&#45;&gt;Node2 -->
<g id="edge2" class="edge"><title>Node3&#45;&gt;Node2</title>
<path fill="none" stroke="midnightblue" d="M91,-114.371C91,-105.585 91,-95.2721 91,-87.1408"/>
<polygon fill="midnightblue" stroke="midnightblue" points="87.5001,-114.403 91,-124.403 94.5001,-114.403 87.5001,-114.403"/>
</g>
</g>
</svg>
