<?xml version="1.0" encoding="UTF-8" standalone="no"?>
<!DOCTYPE svg PUBLIC "-//W3C//DTD SVG 1.1//EN"
 "http://www.w3.org/Graphics/SVG/1.1/DTD/svg11.dtd">
<!-- Generated by graphviz version 2.36.0 (20140111.2315)
 -->
<!-- Title: JointSphericalZYXTpl&lt; _Scalar, _Options &gt;::ConstraintRotationalSubspace::ConstraintTranspose Pages: 1 -->
<svg width="162pt" height="130pt"
 viewBox="0.00 0.00 162.00 130.00" xmlns="http://www.w3.org/2000/svg" xmlns:xlink="http://www.w3.org/1999/xlink">
<g id="graph0" class="graph" transform="scale(1 1) rotate(0) translate(4 126)">
<title>JointSphericalZYXTpl&lt; _Scalar, _Options &gt;::ConstraintRotationalSubspace::ConstraintTranspose</title>
<polygon fill="white" stroke="none" points="-4,4 -4,-126 158,-126 158,4 -4,4"/>
<!-- Node1 -->
<g id="node1" class="node"><title>Node1</title>
<polygon fill="#bfbfbf" stroke="black" points="-0.5,-1 -0.5,-53 154.5,-53 154.5,-1 -0.5,-1"/>
<text text-anchor="start" x="7.5" y="-41" font-family="Helvetica,sans-Serif" font-size="10.00">JointSphericalZYXTpl</text>
<text text-anchor="start" x="7.5" y="-30" font-family="Helvetica,sans-Serif" font-size="10.00">&lt; _Scalar, _Options &gt;</text>
<text text-anchor="start" x="7.5" y="-19" font-family="Helvetica,sans-Serif" font-size="10.00">::ConstraintRotationalSubspace</text>
<text text-anchor="middle" x="77" y="-8" font-family="Helvetica,sans-Serif" font-size="10.00">::ConstraintTranspose</text>
</g>
<!-- Node2 -->
<g id="node2" class="node"><title>Node2</title>
<g id="a_node2"><a xlink:href="structse3_1_1JointSphericalZYXTpl_1_1ConstraintRotationalSubspace.html" target="_top" xlink:title="ConstraintRotationalSubspace">
<polygon fill="white" stroke="black" points="2.5,-102.5 2.5,-121.5 151.5,-121.5 151.5,-102.5 2.5,-102.5"/>
<text text-anchor="middle" x="77" y="-109.5" font-family="Helvetica,sans-Serif" font-size="10.00">ConstraintRotationalSubspace</text>
</a>
</g>
</g>
<!-- Node2&#45;&gt;Node1 -->
<g id="edge1" class="edge"><title>Node2&#45;&gt;Node1</title>
<path fill="none" stroke="#9a32cd" stroke-dasharray="5,2" d="M77,-92.2377C77,-80.7018 77,-65.7752 77,-53.2143"/>
<polygon fill="#9a32cd" stroke="#9a32cd" points="73.5001,-92.4301 77,-102.43 80.5001,-92.4302 73.5001,-92.4301"/>
<text text-anchor="middle" x="84.5" y="-75.5" font-family="Helvetica,sans-Serif" font-size="10.00"> ref</text>
</g>
</g>
</svg>
