<?xml version="1.0" encoding="UTF-8" standalone="no"?>
<!DOCTYPE svg PUBLIC "-//W3C//DTD SVG 1.1//EN"
 "http://www.w3.org/Graphics/SVG/1.1/DTD/svg11.dtd">
<!-- Generated by graphviz version 2.36.0 (20140111.2315)
 -->
<!-- Title: JointDataFreeFlyer Pages: 1 -->
<svg width="148pt" height="166pt"
 viewBox="0.00 0.00 148.00 166.00" xmlns="http://www.w3.org/2000/svg" xmlns:xlink="http://www.w3.org/1999/xlink">
<g id="graph0" class="graph" transform="scale(1 1) rotate(0) translate(4 162)">
<title>JointDataFreeFlyer</title>
<polygon fill="white" stroke="none" points="-4,4 -4,-162 144,-162 144,4 -4,4"/>
<!-- Node1 -->
<g id="node1" class="node"><title>Node1</title>
<polygon fill="#bfbfbf" stroke="black" points="20,-0.5 20,-19.5 120,-19.5 120,-0.5 20,-0.5"/>
<text text-anchor="middle" x="70" y="-7.5" font-family="Helvetica,sans-Serif" font-size="10.00">JointDataFreeFlyer</text>
</g>
<!-- Node2 -->
<g id="node2" class="node"><title>Node2</title>
<g id="a_node2"><a xlink:href="structse3_1_1JointDataBase.html" target="_top" xlink:title="JointDataBase\&lt; JointData\lFreeFlyer \&gt;">
<polygon fill="white" stroke="black" points="4,-59 4,-89 136,-89 136,-59 4,-59"/>
<text text-anchor="start" x="12" y="-77" font-family="Helvetica,sans-Serif" font-size="10.00">JointDataBase&lt; JointData</text>
<text text-anchor="middle" x="70" y="-66" font-family="Helvetica,sans-Serif" font-size="10.00">FreeFlyer &gt;</text>
</a>
</g>
</g>
<!-- Node2&#45;&gt;Node1 -->
<g id="edge1" class="edge"><title>Node2&#45;&gt;Node1</title>
<path fill="none" stroke="midnightblue" d="M70,-48.8706C70,-38.6625 70,-27.4077 70,-19.8419"/>
<polygon fill="midnightblue" stroke="midnightblue" points="66.5001,-48.9312 70,-58.9312 73.5001,-48.9313 66.5001,-48.9312"/>
</g>
<!-- Node3 -->
<g id="node3" class="node"><title>Node3</title>
<g id="a_node3"><a xlink:href="structse3_1_1traits_3_01JointDataFreeFlyer_01_4.html" target="_top" xlink:title="traits\&lt; JointDataFreeFlyer \&gt;">
<polygon fill="white" stroke="black" points="0,-138.5 0,-157.5 140,-157.5 140,-138.5 0,-138.5"/>
<text text-anchor="middle" x="70" y="-145.5" font-family="Helvetica,sans-Serif" font-size="10.00">traits&lt; JointDataFreeFlyer &gt;</text>
</a>
</g>
</g>
<!-- Node3&#45;&gt;Node2 -->
<g id="edge2" class="edge"><title>Node3&#45;&gt;Node2</title>
<path fill="none" stroke="#9a32cd" stroke-dasharray="5,2" d="M70,-128.085C70,-115.915 70,-100.354 70,-89.2316"/>
<polygon fill="#9a32cd" stroke="#9a32cd" points="66.5001,-128.458 70,-138.458 73.5001,-128.458 66.5001,-128.458"/>
<text text-anchor="middle" x="99" y="-111.5" font-family="Helvetica,sans-Serif" font-size="10.00"> JointDerived</text>
</g>
</g>
</svg>
