<?xml version="1.0" encoding="UTF-8" standalone="no"?>
<!DOCTYPE svg PUBLIC "-//W3C//DTD SVG 1.1//EN"
 "http://www.w3.org/Graphics/SVG/1.1/DTD/svg11.dtd">
<!-- Generated by graphviz version 2.36.0 (20140111.2315)
 -->
<!-- Title: ConstraintPlanar::ConstraintTranspose Pages: 1 -->
<svg width="148pt" height="178pt"
 viewBox="0.00 0.00 148.00 178.00" xmlns="http://www.w3.org/2000/svg" xmlns:xlink="http://www.w3.org/1999/xlink">
<g id="graph0" class="graph" transform="scale(1 1) rotate(0) translate(4 174)">
<title>ConstraintPlanar::ConstraintTranspose</title>
<polygon fill="white" stroke="none" points="-4,4 -4,-174 144,-174 144,4 -4,4"/>
<!-- Node1 -->
<g id="node1" class="node"><title>Node1</title>
<polygon fill="#bfbfbf" stroke="black" points="0,-1 0,-31 140,-31 140,-1 0,-1"/>
<text text-anchor="start" x="8" y="-19" font-family="Helvetica,sans-Serif" font-size="10.00">ConstraintPlanar::Constraint</text>
<text text-anchor="middle" x="70" y="-8" font-family="Helvetica,sans-Serif" font-size="10.00">Transpose</text>
</g>
<!-- Node2 -->
<g id="node2" class="node"><title>Node2</title>
<g id="a_node2"><a xlink:href="structse3_1_1ConstraintPlanar.html" target="_top" xlink:title="ConstraintPlanar">
<polygon fill="white" stroke="black" points="25.5,-80.5 25.5,-99.5 114.5,-99.5 114.5,-80.5 25.5,-80.5"/>
<text text-anchor="middle" x="70" y="-87.5" font-family="Helvetica,sans-Serif" font-size="10.00">ConstraintPlanar</text>
</a>
</g>
</g>
<!-- Node2&#45;&gt;Node1 -->
<g id="edge1" class="edge"><title>Node2&#45;&gt;Node1</title>
<path fill="none" stroke="#9a32cd" stroke-dasharray="5,2" d="M70,-70.0846C70,-57.9148 70,-42.3538 70,-31.2316"/>
<polygon fill="#9a32cd" stroke="#9a32cd" points="66.5001,-70.4579 70,-80.4579 73.5001,-70.4579 66.5001,-70.4579"/>
<text text-anchor="middle" x="77.5" y="-53.5" font-family="Helvetica,sans-Serif" font-size="10.00"> ref</text>
</g>
<!-- Node3 -->
<g id="node3" class="node"><title>Node3</title>
<g id="a_node3"><a xlink:href="classse3_1_1ConstraintBase.html" target="_top" xlink:title="ConstraintBase\&lt; Constraint\lPlanar \&gt;">
<polygon fill="white" stroke="black" points="1,-139 1,-169 139,-169 139,-139 1,-139"/>
<text text-anchor="start" x="9" y="-157" font-family="Helvetica,sans-Serif" font-size="10.00">ConstraintBase&lt; Constraint</text>
<text text-anchor="middle" x="70" y="-146" font-family="Helvetica,sans-Serif" font-size="10.00">Planar &gt;</text>
</a>
</g>
</g>
<!-- Node3&#45;&gt;Node2 -->
<g id="edge2" class="edge"><title>Node3&#45;&gt;Node2</title>
<path fill="none" stroke="midnightblue" d="M70,-128.871C70,-118.663 70,-107.408 70,-99.8419"/>
<polygon fill="midnightblue" stroke="midnightblue" points="66.5001,-128.931 70,-138.931 73.5001,-128.931 66.5001,-128.931"/>
</g>
</g>
</svg>
