<?xml version="1.0" encoding="UTF-8" standalone="no"?>
<!DOCTYPE svg PUBLIC "-//W3C//DTD SVG 1.1//EN"
 "http://www.w3.org/Graphics/SVG/1.1/DTD/svg11.dtd">
<!-- Generated by graphviz version 2.36.0 (20140111.2315)
 -->
<!-- Title: JointModelRevoluteUnbounded&lt; axis &gt; Pages: 1 -->
<svg width="160pt" height="190pt"
 viewBox="0.00 0.00 160.00 190.00" xmlns="http://www.w3.org/2000/svg" xmlns:xlink="http://www.w3.org/1999/xlink">
<g id="graph0" class="graph" transform="scale(1 1) rotate(0) translate(4 186)">
<title>JointModelRevoluteUnbounded&lt; axis &gt;</title>
<polygon fill="white" stroke="none" points="-4,4 -4,-186 156,-186 156,4 -4,4"/>
<!-- Node1 -->
<g id="node1" class="node"><title>Node1</title>
<polygon fill="#bfbfbf" stroke="black" points="0,-1 0,-31 152,-31 152,-1 0,-1"/>
<text text-anchor="start" x="8" y="-19" font-family="Helvetica,sans-Serif" font-size="10.00">JointModelRevoluteUnbounded</text>
<text text-anchor="middle" x="76" y="-8" font-family="Helvetica,sans-Serif" font-size="10.00">&lt; axis &gt;</text>
</g>
<!-- Node2 -->
<g id="node2" class="node"><title>Node2</title>
<g id="a_node2"><a xlink:href="structse3_1_1JointModelBase.html" target="_top" xlink:title="JointModelBase\&lt; JointModel\lRevoluteUnbounded\&lt; axis \&gt; \&gt;">
<polygon fill="white" stroke="black" points="1,-71 1,-101 151,-101 151,-71 1,-71"/>
<text text-anchor="start" x="9" y="-89" font-family="Helvetica,sans-Serif" font-size="10.00">JointModelBase&lt; JointModel</text>
<text text-anchor="middle" x="76" y="-78" font-family="Helvetica,sans-Serif" font-size="10.00">RevoluteUnbounded&lt; axis &gt; &gt;</text>
</a>
</g>
</g>
<!-- Node2&#45;&gt;Node1 -->
<g id="edge1" class="edge"><title>Node2&#45;&gt;Node1</title>
<path fill="none" stroke="midnightblue" d="M76,-60.7688C76,-50.8141 76,-39.6384 76,-31.0716"/>
<polygon fill="midnightblue" stroke="midnightblue" points="72.5001,-60.9103 76,-70.9104 79.5001,-60.9104 72.5001,-60.9103"/>
</g>
<!-- Node3 -->
<g id="node3" class="node"><title>Node3</title>
<g id="a_node3"><a xlink:href="structse3_1_1traits_3_01JointModelRevoluteUnbounded_3_01axis_01_4_01_4.html" target="_top" xlink:title="traits\&lt; JointModelRevolute\lUnbounded\&lt; axis \&gt; \&gt;">
<polygon fill="white" stroke="black" points="9,-151 9,-181 143,-181 143,-151 9,-151"/>
<text text-anchor="start" x="17" y="-169" font-family="Helvetica,sans-Serif" font-size="10.00">traits&lt; JointModelRevolute</text>
<text text-anchor="middle" x="76" y="-158" font-family="Helvetica,sans-Serif" font-size="10.00">Unbounded&lt; axis &gt; &gt;</text>
</a>
</g>
</g>
<!-- Node3&#45;&gt;Node2 -->
<g id="edge2" class="edge"><title>Node3&#45;&gt;Node2</title>
<path fill="none" stroke="#9a32cd" stroke-dasharray="5,2" d="M76,-140.564C76,-127.624 76,-112.186 76,-101.216"/>
<polygon fill="#9a32cd" stroke="#9a32cd" points="72.5001,-140.694 76,-150.694 79.5001,-140.694 72.5001,-140.694"/>
<text text-anchor="middle" x="105" y="-123.5" font-family="Helvetica,sans-Serif" font-size="10.00"> JointDerived</text>
</g>
</g>
</svg>
