<?xml version="1.0" encoding="UTF-8" standalone="no"?>
<!DOCTYPE svg PUBLIC "-//W3C//DTD SVG 1.1//EN"
 "http://www.w3.org/Graphics/SVG/1.1/DTD/svg11.dtd">
<!-- Generated by graphviz version 2.36.0 (20140111.2315)
 -->
<!-- Title: GeometryModel Pages: 1 -->
<svg width="814pt" height="88pt"
 viewBox="0.00 0.00 814.00 88.00" xmlns="http://www.w3.org/2000/svg" xmlns:xlink="http://www.w3.org/1999/xlink">
<g id="graph0" class="graph" transform="scale(1 1) rotate(0) translate(4 84)">
<title>GeometryModel</title>
<polygon fill="white" stroke="none" points="-4,4 -4,-84 810,-84 810,4 -4,4"/>
<!-- Node1 -->
<g id="node1" class="node"><title>Node1</title>
<polygon fill="#bfbfbf" stroke="black" points="720,-26.5 720,-45.5 806,-45.5 806,-26.5 720,-26.5"/>
<text text-anchor="middle" x="763" y="-33.5" font-family="Helvetica,sans-Serif" font-size="10.00">GeometryModel</text>
</g>
<!-- Node2 -->
<g id="node2" class="node"><title>Node2</title>
<g id="a_node2"><a xlink:href="classse3_1_1container_1_1aligned__vector.html" target="_top" xlink:title="aligned_vector\&lt; se3\l::GeometryObject \&gt;">
<polygon fill="white" stroke="black" points="485,-42 485,-72 589,-72 589,-42 485,-42"/>
<text text-anchor="start" x="493" y="-60" font-family="Helvetica,sans-Serif" font-size="10.00">aligned_vector&lt; se3</text>
<text text-anchor="middle" x="537" y="-49" font-family="Helvetica,sans-Serif" font-size="10.00">::GeometryObject &gt;</text>
</a>
</g>
</g>
<!-- Node2&#45;&gt;Node1 -->
<g id="edge1" class="edge"><title>Node2&#45;&gt;Node1</title>
<path fill="none" stroke="#9a32cd" stroke-dasharray="5,2" d="M599.109,-51.271C637.373,-47.6838 685.702,-43.153 719.747,-39.9612"/>
<polygon fill="#9a32cd" stroke="#9a32cd" points="598.739,-47.7903 589.109,-52.2085 599.392,-54.7597 598.739,-47.7903"/>
<text text-anchor="middle" x="663" y="-51" font-family="Helvetica,sans-Serif" font-size="10.00"> geometryObjects</text>
</g>
<!-- Node3 -->
<g id="node3" class="node"><title>Node3</title>
<g id="a_node3"><a xlink:title="STL class. ">
<polygon fill="white" stroke="#bfbfbf" points="238.5,-38.5 238.5,-79.5 387.5,-79.5 387.5,-38.5 238.5,-38.5"/>
<text text-anchor="start" x="246.5" y="-67.5" font-family="Helvetica,sans-Serif" font-size="10.00">vector&lt; se3::GeometryObject,</text>
<text text-anchor="start" x="246.5" y="-56.5" font-family="Helvetica,sans-Serif" font-size="10.00"> Eigen::aligned_allocator</text>
<text text-anchor="middle" x="313" y="-45.5" font-family="Helvetica,sans-Serif" font-size="10.00">&lt; se3::GeometryObject &gt; &gt;</text>
</a>
</g>
</g>
<!-- Node3&#45;&gt;Node2 -->
<g id="edge2" class="edge"><title>Node3&#45;&gt;Node2</title>
<path fill="none" stroke="midnightblue" d="M397.818,-58.2449C427.023,-57.9818 458.902,-57.6946 484.674,-57.4624"/>
<polygon fill="midnightblue" stroke="midnightblue" points="397.582,-54.7468 387.614,-58.3368 397.646,-61.7465 397.582,-54.7468"/>
</g>
<!-- Node4 -->
<g id="node4" class="node"><title>Node4</title>
<polygon fill="white" stroke="#bfbfbf" points="64.5,-49.5 64.5,-68.5 93.5,-68.5 93.5,-49.5 64.5,-49.5"/>
<text text-anchor="middle" x="79" y="-56.5" font-family="Helvetica,sans-Serif" font-size="10.00">T</text>
</g>
<!-- Node4&#45;&gt;Node3 -->
<g id="edge3" class="edge"><title>Node4&#45;&gt;Node3</title>
<path fill="none" stroke="#9a32cd" stroke-dasharray="5,2" d="M103.818,-59C135.243,-59 191.987,-59 238.305,-59"/>
<polygon fill="#9a32cd" stroke="#9a32cd" points="103.818,-55.5001 93.8179,-59 103.818,-62.5001 103.818,-55.5001"/>
<text text-anchor="middle" x="198" y="-62" font-family="Helvetica,sans-Serif" font-size="10.00"> elements</text>
</g>
<!-- Node5 -->
<g id="node5" class="node"><title>Node5</title>
<polygon fill="white" stroke="#bfbfbf" points="468,-3.5 468,-22.5 606,-22.5 606,-3.5 468,-3.5"/>
<text text-anchor="middle" x="537" y="-10.5" font-family="Helvetica,sans-Serif" font-size="10.00">vector&lt; se3::CollisionPair &gt;</text>
</g>
<!-- Node5&#45;&gt;Node1 -->
<g id="edge4" class="edge"><title>Node5&#45;&gt;Node1</title>
<path fill="none" stroke="#9a32cd" stroke-dasharray="5,2" d="M616.532,-18.6806C643.646,-20.9133 674.192,-23.7309 702,-27 707.754,-27.6764 713.804,-28.4776 719.759,-29.3187"/>
<polygon fill="#9a32cd" stroke="#9a32cd" points="616.57,-15.1724 606.32,-17.8538 616.005,-22.1495 616.57,-15.1724"/>
<text text-anchor="middle" x="663" y="-30" font-family="Helvetica,sans-Serif" font-size="10.00"> collisionPairs</text>
</g>
<!-- Node6 -->
<g id="node6" class="node"><title>Node6</title>
<g id="a_node6"><a xlink:href="structse3_1_1CollisionPair.html" target="_top" xlink:title="CollisionPair">
<polygon fill="white" stroke="black" points="277.5,-0.5 277.5,-19.5 348.5,-19.5 348.5,-0.5 277.5,-0.5"/>
<text text-anchor="middle" x="313" y="-7.5" font-family="Helvetica,sans-Serif" font-size="10.00">CollisionPair</text>
</a>
</g>
</g>
<!-- Node6&#45;&gt;Node5 -->
<g id="edge5" class="edge"><title>Node6&#45;&gt;Node5</title>
<path fill="none" stroke="#9a32cd" stroke-dasharray="5,2" d="M358.821,-10.6057C390.018,-11.0273 432.201,-11.5973 467.581,-12.0754"/>
<polygon fill="#9a32cd" stroke="#9a32cd" points="358.734,-7.10429 348.688,-10.4688 358.639,-14.1037 358.734,-7.10429"/>
<text text-anchor="middle" x="428" y="-15" font-family="Helvetica,sans-Serif" font-size="10.00"> elements</text>
</g>
<!-- Node7 -->
<g id="node7" class="node"><title>Node7</title>
<polygon fill="white" stroke="#bfbfbf" points="0.5,-0.5 0.5,-19.5 157.5,-19.5 157.5,-0.5 0.5,-0.5"/>
<text text-anchor="middle" x="79" y="-7.5" font-family="Helvetica,sans-Serif" font-size="10.00">pair&lt; GeomIndex, GeomIndex &gt;</text>
</g>
<!-- Node7&#45;&gt;Node6 -->
<g id="edge6" class="edge"><title>Node7&#45;&gt;Node6</title>
<path fill="none" stroke="midnightblue" d="M167.69,-10C205.855,-10 248.375,-10 277.312,-10"/>
<polygon fill="midnightblue" stroke="midnightblue" points="167.575,-6.5001 157.575,-10 167.575,-13.5001 167.575,-6.5001"/>
</g>
</g>
</svg>
