<?xml version="1.0" encoding="UTF-8" standalone="no"?>
<!DOCTYPE svg PUBLIC "-//W3C//DTD SVG 1.1//EN"
 "http://www.w3.org/Graphics/SVG/1.1/DTD/svg11.dtd">
<!-- Generated by graphviz version 2.36.0 (20140111.2315)
 -->
<!-- Title: JointDataRevoluteUnaligned Pages: 1 -->
<svg width="148pt" height="178pt"
 viewBox="0.00 0.00 148.00 178.00" xmlns="http://www.w3.org/2000/svg" xmlns:xlink="http://www.w3.org/1999/xlink">
<g id="graph0" class="graph" transform="scale(1 1) rotate(0) translate(4 174)">
<title>JointDataRevoluteUnaligned</title>
<polygon fill="white" stroke="none" points="-4,4 -4,-174 144,-174 144,4 -4,4"/>
<!-- Node1 -->
<g id="node1" class="node"><title>Node1</title>
<polygon fill="#bfbfbf" stroke="black" points="-0.5,-0.5 -0.5,-19.5 140.5,-19.5 140.5,-0.5 -0.5,-0.5"/>
<text text-anchor="middle" x="70" y="-7.5" font-family="Helvetica,sans-Serif" font-size="10.00">JointDataRevoluteUnaligned</text>
</g>
<!-- Node2 -->
<g id="node2" class="node"><title>Node2</title>
<g id="a_node2"><a xlink:href="structse3_1_1JointDataBase.html" target="_top" xlink:title="JointDataBase\&lt; JointData\lRevoluteUnaligned \&gt;">
<polygon fill="white" stroke="black" points="4,-59 4,-89 136,-89 136,-59 4,-59"/>
<text text-anchor="start" x="12" y="-77" font-family="Helvetica,sans-Serif" font-size="10.00">JointDataBase&lt; JointData</text>
<text text-anchor="middle" x="70" y="-66" font-family="Helvetica,sans-Serif" font-size="10.00">RevoluteUnaligned &gt;</text>
</a>
</g>
</g>
<!-- Node2&#45;&gt;Node1 -->
<g id="edge1" class="edge"><title>Node2&#45;&gt;Node1</title>
<path fill="none" stroke="midnightblue" d="M70,-48.8706C70,-38.6625 70,-27.4077 70,-19.8419"/>
<polygon fill="midnightblue" stroke="midnightblue" points="66.5001,-48.9312 70,-58.9312 73.5001,-48.9313 66.5001,-48.9312"/>
</g>
<!-- Node3 -->
<g id="node3" class="node"><title>Node3</title>
<g id="a_node3"><a xlink:href="structse3_1_1traits_3_01JointDataRevoluteUnaligned_01_4.html" target="_top" xlink:title="traits\&lt; JointDataRevolute\lUnaligned \&gt;">
<polygon fill="white" stroke="black" points="6,-139 6,-169 134,-169 134,-139 6,-139"/>
<text text-anchor="start" x="14" y="-157" font-family="Helvetica,sans-Serif" font-size="10.00">traits&lt; JointDataRevolute</text>
<text text-anchor="middle" x="70" y="-146" font-family="Helvetica,sans-Serif" font-size="10.00">Unaligned &gt;</text>
</a>
</g>
</g>
<!-- Node3&#45;&gt;Node2 -->
<g id="edge2" class="edge"><title>Node3&#45;&gt;Node2</title>
<path fill="none" stroke="#9a32cd" stroke-dasharray="5,2" d="M70,-128.564C70,-115.624 70,-100.186 70,-89.2157"/>
<polygon fill="#9a32cd" stroke="#9a32cd" points="66.5001,-128.694 70,-138.694 73.5001,-128.694 66.5001,-128.694"/>
<text text-anchor="middle" x="99" y="-111.5" font-family="Helvetica,sans-Serif" font-size="10.00"> JointDerived</text>
</g>
</g>
</svg>
