solid Exported from Blender-2.78 (sub 0)
facet normal -1.000000 0.000000 0.000000
outer loop
vertex -0.500000 -0.500000 -0.500000
vertex -0.500000 -0.500000 0.500000
vertex -0.500000 0.500000 0.500000
endloop
endfacet
facet normal -1.000000 0.000000 0.000000
outer loop
vertex -0.500000 0.500000 0.500000
vertex -0.500000 0.500000 -0.500000
vertex -0.500000 -0.500000 -0.500000
endloop
endfacet
facet normal 0.000000 1.000000 0.000000
outer loop
vertex -0.500000 0.500000 -0.500000
vertex -0.500000 0.500000 0.500000
vertex 0.500000 0.500000 0.500000
endloop
endfacet
facet normal 0.000000 1.000000 0.000000
outer loop
vertex 0.500000 0.500000 0.500000
vertex 0.500000 0.500000 -0.500000
vertex -0.500000 0.500000 -0.500000
endloop
endfacet
facet normal 1.000000 0.000000 0.000000
outer loop
vertex 0.500000 0.500000 -0.500000
vertex 0.500000 0.500000 0.500000
vertex 0.500000 -0.500000 0.500000
endloop
endfacet
facet normal 1.000000 0.000000 0.000000
outer loop
vertex 0.500000 -0.500000 0.500000
vertex 0.500000 -0.500000 -0.500000
vertex 0.500000 0.500000 -0.500000
endloop
endfacet
facet normal 0.000000 -1.000000 0.000000
outer loop
vertex -0.500000 -0.500000 0.500000
vertex -0.500000 -0.500000 -0.500000
vertex 0.500000 -0.500000 -0.500000
endloop
endfacet
facet normal 0.000000 -1.000000 0.000000
outer loop
vertex 0.500000 -0.500000 -0.500000
vertex 0.500000 -0.500000 0.500000
vertex -0.500000 -0.500000 0.500000
endloop
endfacet
facet normal 0.000000 0.000000 -1.000000
outer loop
vertex 0.500000 -0.500000 -0.500000
vertex -0.500000 -0.500000 -0.500000
vertex -0.500000 0.500000 -0.500000
endloop
endfacet
facet normal 0.000000 0.000000 -1.000000
outer loop
vertex -0.500000 0.500000 -0.500000
vertex 0.500000 0.500000 -0.500000
vertex 0.500000 -0.500000 -0.500000
endloop
endfacet
facet normal 0.000000 0.000000 1.000000
outer loop
vertex 0.500000 0.500000 0.500000
vertex -0.500000 0.500000 0.500000
vertex -0.500000 -0.500000 0.500000
endloop
endfacet
facet normal 0.000000 0.000000 1.000000
outer loop
vertex -0.500000 -0.500000 0.500000
vertex 0.500000 -0.500000 0.500000
vertex 0.500000 0.500000 0.500000
endloop
endfacet
endsolid Exported from Blender-2.78 (sub 0)
